<mxfile host="app.diagrams.net" modified="2023-10-18T04:04:07.139Z" agent="Mozilla/5.0 (Windows NT 10.0; Win64; x64) AppleWebKit/537.36 (KHTML, like Gecko) Chrome/118.0.0.0 Safari/537.36 Edg/118.0.2088.46" etag="k7dXlY-mRXA7qDPIJtFc" version="22.0.4" type="github">
  <diagram name="第 1 页" id="Bck55D9Km46n5Ga4YMbU">
    <mxGraphModel dx="2026" dy="1111" grid="1" gridSize="10" guides="1" tooltips="1" connect="1" arrows="1" fold="1" page="1" pageScale="1" pageWidth="3300" pageHeight="2339" math="0" shadow="0">
      <root>
        <mxCell id="0" />
        <mxCell id="1" parent="0" />
        <mxCell id="H0nsU_ZC4IHtGFfJjAbq-193" value="" style="rounded=0;whiteSpace=wrap;html=1;fillColor=none;strokeWidth=2;" vertex="1" parent="1">
          <mxGeometry x="2110" y="1450" width="510" height="160" as="geometry" />
        </mxCell>
        <mxCell id="H0nsU_ZC4IHtGFfJjAbq-9" value="" style="rounded=0;whiteSpace=wrap;html=1;fillColor=none;strokeWidth=2;" vertex="1" parent="1">
          <mxGeometry x="1450" y="1450" width="510" height="160" as="geometry" />
        </mxCell>
        <mxCell id="0f2K5YkPgI1Y6RwSM53R-6" style="edgeStyle=orthogonalEdgeStyle;rounded=0;orthogonalLoop=1;jettySize=auto;html=1;" parent="1" source="0f2K5YkPgI1Y6RwSM53R-2" edge="1">
          <mxGeometry relative="1" as="geometry">
            <mxPoint x="518.335" y="470" as="targetPoint" />
          </mxGeometry>
        </mxCell>
        <mxCell id="0f2K5YkPgI1Y6RwSM53R-2" value="" style="sketch=0;aspect=fixed;pointerEvents=1;shadow=0;dashed=0;html=1;strokeColor=none;labelPosition=center;verticalLabelPosition=bottom;verticalAlign=top;align=center;fillColor=#00188D;shape=mxgraph.azure.laptop" parent="1" vertex="1">
          <mxGeometry x="460" y="345" width="116.67" height="70" as="geometry" />
        </mxCell>
        <mxCell id="0f2K5YkPgI1Y6RwSM53R-3" value="" style="endArrow=none;html=1;rounded=0;strokeWidth=2;" parent="1" edge="1">
          <mxGeometry width="50" height="50" relative="1" as="geometry">
            <mxPoint x="350" y="470" as="sourcePoint" />
            <mxPoint x="520" y="470" as="targetPoint" />
            <Array as="points">
              <mxPoint x="430" y="470" />
            </Array>
          </mxGeometry>
        </mxCell>
        <mxCell id="0f2K5YkPgI1Y6RwSM53R-8" value="" style="endArrow=classic;html=1;rounded=0;" parent="1" target="0f2K5YkPgI1Y6RwSM53R-7" edge="1">
          <mxGeometry width="50" height="50" relative="1" as="geometry">
            <mxPoint x="430" y="470" as="sourcePoint" />
            <mxPoint x="1050" y="540" as="targetPoint" />
          </mxGeometry>
        </mxCell>
        <mxCell id="0f2K5YkPgI1Y6RwSM53R-10" value="" style="shape=image;verticalLabelPosition=bottom;labelBackgroundColor=default;verticalAlign=top;aspect=fixed;imageAspect=0;image=data:image/svg+xml,PHN2ZyB4bWxucz0iaHR0cDovL3d3dy53My5vcmcvMjAwMC9zdmciIHZpZXdCb3g9Ii02OC42MDM3IC0zNi40NTA3NSA1OTQuNTY1NCAyMTguNzA0NSIgd2lkdGg9IjEyMDAiIGhlaWdodD0iODAwIj48ZyB0cmFuc2Zvcm09InRyYW5zbGF0ZSgtMTcxLjMyMiAtMjI3LjExMykiPjxwYXRoIGZpbGw9IiM2MzY0NjYiIGQ9Ik00MjEuNjQgMjcyLjI3YzAgMy42MTktMi45NzMgNi44NDktNi44NSA2Ljg0OS0yLjk3MyAwLTUuNTU3Ljc3Ni03Ljc1NCAyLjQ1Ni0yLjQ1NSAxLjU1Mi00LjM5NCAzLjc0OC01Ljk0NCA2LjIwMy0zLjEwMiA0LjEzNi00LjY1MSA5LjA0Ni01LjI5OCAxMC44NTR2MjQuNTU0YzAgMy43NDgtMy4yMyA2Ljg1LTcuMTA3IDYuODUtMy43NDggMC02Ljg0OS0zLjEwMi02Ljg0OS02Ljg1VjI3Mi4yN2MwLTMuNzQ4IDMuMTAxLTYuNzIgNi44NDktNi43MiAzLjg3NyAwIDcuMTA3IDIuOTczIDcuMTA3IDYuNzJ2LjkwNWMuNzc1LS45MDUgMS44MDktMS45MzggMi43MTQtMi41ODUgNC4yNjUtMi44NDIgOS44MjEtNS4xNjkgMTYuMjgyLTUuMDQgMy44NzcgMCA2Ljg1IDIuOTczIDYuODUgNi43MnptLTMuNzkgMjUuNDZjLjEzLTE3LjU3NSAxMy44MjgtMzIuMzA3IDMxLjUzMS0zMi4zMDcgMTYuOCAwIDMwLjExIDEyLjUzNSAzMS4xNDUgMjkuOTh2LjY0NmMwIC4yNTkgMCAuOTA0LS4xMjkgMS4xNjMtLjM4OSAzLjEwMi0zLjEwMiA1LjE3LTYuNzIxIDUuMTdoLTQxLjA5NGMuNjQ2IDIuOTczIDIuMDY3IDYuMzMyIDQuMzk0IDguNTI5IDIuNzE0IDMuMTAyIDcuODgzIDUuNDI2IDEyLjQwNSA1LjgxNCA0LjY1Mi4zODcgMTAuMjA5LS43NzUgMTMuNDQtMy4yMyAyLjcxMy0yLjg0NCA4LjAxMi0yLjQ1NSA5LjY5Mi0uMzg5IDEuNjggMS44MTEgMi45NzIgNS42ODggMCA4LjQtNi4zMzMgNS44MTQtMTMuOTU3IDguNTI5LTIzLjEzMyA4LjUyOS0xNy43MDItLjEyNy0zMS40LTE0LjczLTMxLjUzLTMyLjMwNXptMTQuMDg2LTYuMzMyaDM2LjU3MWMtMS4yOTItNS4xNjktNy44ODMtMTIuNzkzLTE5LjEyNi0xMy42OTgtMTAuOTgzLjUxNi0xNi40MTEgOC40LTE3LjQ0NSAxMy42OTh6TTU0Ni4zNiAzMjMuMDZjMCAzLjc0OC0zLjEwMiA2Ljk3OS02Ljk3OSA2Ljk3OS0zLjQ4OSAwLTYuMjAyLTIuNDU1LTYuODQ5LTUuNTU3LTQuOTEgMy4zNTktMTEuMTEzIDUuNTU3LTE3LjU3NSA1LjU1Ny0xNy40NDUgMC0zMS40MDItMTQuNzMyLTMxLjQwMi0zMi4xNzggMC0xNy43MDUgMTMuOTU3LTMyLjQzNyAzMS40MDItMzIuNDM3IDYuMzMzIDAgMTIuNTM1IDIuMDY3IDE3LjMxNiA1LjQyN3YtMjQuMjk0YzAtMy43NDggMy4xMDItNi45NzkgNy4xMDctNi45NzkgMy44NzcgMCA2Ljk3OSAzLjIzMSA2Ljk3OSA2Ljk3OXY3Ni41MDN6bS0zMS40MDItNDMuNTVjLTQuNjUyIDAtOC45MTcgMS45MzgtMTIuMTQ2IDUuMjk4LTMuMjMxIDMuMjMxLTUuMTcgNy44ODItNS4xNyAxMy4wNTIgMCA0LjkxIDEuOTM4IDkuNTYyIDUuMTcgMTIuNzkzIDMuMjI5IDMuMzYxIDcuNDk0IDUuMjk5IDEyLjE0NiA1LjI5OSA0Ljc4MSAwIDguOTE3LTEuOTM4IDEyLjE0Ny01LjI5OSAzLjIzLTMuMjMgNS4xNjktNy44ODMgNS4xNjktMTIuNzkzIDAtNS4xNy0xLjkzOC05LjgyMS01LjE2OS0xMy4wNTItMy4yMy0zLjM2LTcuMzY2LTUuMjk4LTEyLjE0Ny01LjI5OHptNTUuOTkyLTMwLjI0YzAgMy44NzctMi45NzIgNy4xMDctNi45NzkgNy4xMDctMy44NzcgMC02Ljk3OC0zLjIzLTYuOTc4LTcuMTA3di0yLjcxNGE2Ljk1IDYuOTUgMCAwMTYuOTc4LTYuOTc5YzQuMDA3IDAgNi45NzkgMy4xMDIgNi45NzkgNi45Nzl6bTAgMjMuMzl2NTAuMzk5YzAgMy44NzctMi45NzIgNi45NzktNi45NzkgNi45NzlhNi45NSA2Ljk1IDAgMDEtNi45NzgtNi45NzlWMjcyLjY2YzAtNC4xMzUgMy4xMDEtNy4xMDggNi45NzgtNy4xMDggNC4wMDggMCA2Ljk3OSAyLjk3MyA2Ljk3OSA3LjEwOHptOC44OCAzOC44OWMyLjMyNi0zLjEgNi44NS0zLjQ4OCA5LjY5Mi0xLjAzMyAzLjM2IDIuODQ0IDkuMTc2IDUuODE0IDE0LjIxNSA1LjY4NiAzLjQ4OSAwIDYuNzItMS4xNjIgOC43ODgtMi40NTUgMS44MDktMS41NTEgMi4zMjUtMi44NDIgMi4zMjUtMy44NzcgMC0uNjQ2LS4xMjktLjkwNC0uMzg3LTEuMjkzLS4xMy0uMzg3LS42NDYtLjkwNC0xLjY4MS0xLjU0OS0xLjgwOS0xLjI5My01LjY4Ni0yLjcxNS0xMC4zMzgtMy42MTloLS4xMjljLTQuMDA3LS43NzUtNy44ODQtMS44MDktMTEuMjQzLTMuMzYxLTMuNDg5LTEuNjc5LTYuNTkxLTQuMDA1LTguOTE3LTcuNDk0LTEuNDIxLTIuMzI2LTIuMTk2LTUuMTY5LTIuMTk2LTguMTQxIDAtNS45NDUgMy4zNi0xMC45ODUgNy42MjQtMTQuMjE2IDQuNTIzLTMuMTAxIDkuOTUxLTQuNzgxIDE1Ljg5Ni00Ljc4MSA4LjkxNiAwIDE1LjI0OCA0LjI2NSAxOS4zODQgNy4xMDcgMy4xMDIgMi4wNjggNC4wMDYgNi4zMzMgMi4wNjcgOS41NjItMi4wNjcgMy4xMDItNi4zMzIgNC4wMDctOS41NjIgMS44MS00LjEzNS0yLjcxMy03Ljc1NC00Ljc4Mi0xMS44ODktNC43ODItMy4yMzEgMC02LjA3NCAxLjAzNC03Ljc1NCAyLjMyNi0xLjY4IDEuMTY0LTIuMDY3IDIuMzI3LTIuMDY3IDIuOTczIDAgLjUxNiAwIC42NDYuMjU4IDEuMDMzLjEzLjI1OC41MTcuNzc1IDEuNDIyIDEuMjkyIDEuNjgxIDEuMTYzIDUuMDQgMi4zMjYgOS40MzQgMy4xMDJsLjEyOS4xM2guMTNjNC4yNjUuNzc0IDguMjcxIDEuOTM4IDEyLjAxOCAzLjc0NyAzLjQ4OSAxLjU1MSA2Ljk3OSA0LjAwNiA5LjE3NiA3LjYyNCAxLjU1MSAyLjU4NCAyLjQ1NSA1LjU1NyAyLjQ1NSA4LjUyOSAwIDYuMzMyLTMuNDg5IDExLjYzMS04LjE0MiAxNC45OS00LjY1MiAzLjIzLTEwLjQ2OCA1LjE3LTE2LjggNS4xNy0xMC4wNzktLjEyOS0xNy44MzMtNC43ODEtMjMuMDAyLTguOTE2LTIuODQ0LTIuMzI2LTMuMjMxLTYuNzIxLS45MDYtOS41NjR6Ii8+PHBhdGggZmlsbD0iI2E0MWUxMSIgZD0iTTMzNC43NyAzMzkuNTRjLTkuMDc4IDQuNzMyLTU2LjEwNiAyNC4wNjgtNjYuMTE4IDI5LjI4Ny0xMC4wMTIgNS4yMjEtMTUuNTc0IDUuMTctMjMuNDgzIDEuMzg5LTcuOTA5LTMuNzgxLTU3Ljk1NS0yMy45OTYtNjYuOTctMjguMzA1LTQuNTA2LTIuMTU0LTYuODc1LTMuOTcxLTYuODc1LTUuNjg4di0xNy4xOTVzNjUuMTUzLTE0LjE4NCA3NS42NzItMTcuOTU3YzEwLjUxOC0zLjc3NCAxNC4xNjctMy45MSAyMy4xMTgtLjYzMSA4Ljk1MiAzLjI3OSA2Mi40NzQgMTIuOTM2IDcxLjMyMSAxNi4xNzZsLS4wMDQgMTYuOTUxYy4wMDEgMS43LTIuMDQgMy41NjUtNi42NjEgNS45NzN6Ii8+PHBhdGggZmlsbD0iI2Q4MmMyMCIgZD0iTTMzNC43NyAzMjIuMzRjLTkuMDc4IDQuNzMtNTYuMTA2IDI0LjA2OC02Ni4xMTggMjkuMjg3LTEwLjAxMiA1LjIyMS0xNS41NzQgNS4xNy0yMy40ODMgMS4zODktNy45MS0zLjc3OS01Ny45NTUtMjMuOTk4LTY2Ljk3LTI4LjMwNS05LjAxNS00LjMwOS05LjIwNC03LjI3NS0uMzQ4LTEwLjc0MiA4Ljg1NS0zLjQ2OSA1OC42MjYtMjIuOTk2IDY5LjE0Ni0yNi43NyAxMC41MTgtMy43NzIgMTQuMTY3LTMuOTEgMjMuMTE4LS42MyA4Ljk1MiAzLjI3OSA1NS42OTkgMjEuODg2IDY0LjU0NSAyNS4xMjYgOC44NDggMy4yNDMgOS4xODggNS45MTMuMTEgMTAuNjQ1eiIvPjxwYXRoIGZpbGw9IiNhNDFlMTEiIGQ9Ik0zMzQuNzcgMzExLjVjLTkuMDc4IDQuNzMyLTU2LjEwNiAyNC4wNjgtNjYuMTE4IDI5LjI4OS0xMC4wMTIgNS4yMTktMTUuNTc0IDUuMTY4LTIzLjQ4MyAxLjM4Ny03LjkxLTMuNzc5LTU3Ljk1NS0yMy45OTYtNjYuOTctMjguMzA1LTQuNTA2LTIuMTU0LTYuODc1LTMuOTY5LTYuODc1LTUuNjg2di0xNy4xOTdzNjUuMTUzLTE0LjE4MyA3NS42NzItMTcuOTU3YzEwLjUxOC0zLjc3MyAxNC4xNjctMy45MSAyMy4xMTgtLjYzMSA4Ljk1MiAzLjI3OSA2Mi40NzQgMTIuOTM0IDcxLjMyMSAxNi4xNzVsLS4wMDQgMTYuOTUzYy4wMDEgMS42OTktMi4wNCAzLjU2NC02LjY2MSA1Ljk3MnoiLz48cGF0aCBmaWxsPSIjZDgyYzIwIiBkPSJNMzM0Ljc3IDI5NC4zYy05LjA3OCA0LjczMi01Ni4xMDYgMjQuMDY4LTY2LjExOCAyOS4yODktMTAuMDEyIDUuMjE5LTE1LjU3NCA1LjE2OC0yMy40ODMgMS4zODctNy45MS0zLjc3OS01Ny45NTUtMjMuOTk3LTY2Ljk3LTI4LjMwNXMtOS4yMDQtNy4yNzQtLjM0OC0xMC43NDNjOC44NTUtMy40NjcgNTguNjI2LTIyLjk5NSA2OS4xNDYtMjYuNzY4IDEwLjUxOC0zLjc3MyAxNC4xNjctMy45MSAyMy4xMTgtLjYzMSA4Ljk1MiAzLjI3OSA1NS42OTkgMjEuODg1IDY0LjU0NSAyNS4xMjYgOC44NDggMy4yNDIgOS4xODggNS45MTMuMTEgMTAuNjQ1eiIvPjxwYXRoIGZpbGw9IiNhNDFlMTEiIGQ9Ik0zMzQuNzcgMjgyLjQyYy05LjA3OCA0LjczMi01Ni4xMDYgMjQuMDY5LTY2LjExOCAyOS4yOS0xMC4wMTIgNS4yMTktMTUuNTc0IDUuMTY4LTIzLjQ4MyAxLjM4Ny03LjkxLTMuNzc5LTU3Ljk1NS0yMy45OTctNjYuOTctMjguMzA1LTQuNTA2LTIuMTU0LTYuODc1LTMuOTctNi44NzUtNS42ODZ2LTE3LjE5N3M2NS4xNTMtMTQuMTgzIDc1LjY3Mi0xNy45NTZjMTAuNTE4LTMuNzc0IDE0LjE2Ny0zLjkxIDIzLjExOC0uNjMxIDguOTUyIDMuMjc5IDYyLjQ3NCAxMi45MzQgNzEuMzIxIDE2LjE3NWwtLjAwNCAxNi45NTJjLjAwMSAxLjY5OC0yLjA0IDMuNTYzLTYuNjYxIDUuOTcxeiIvPjxwYXRoIGZpbGw9IiNkODJjMjAiIGQ9Ik0zMzQuNzcgMjY1LjIyYy05LjA3OCA0LjczMi01Ni4xMDYgMjQuMDY5LTY2LjExOCAyOS4yODktMTAuMDEyIDUuMjE5LTE1LjU3NCA1LjE2OC0yMy40ODMgMS4zODgtNy45MDktMy43OC01Ny45NTUtMjMuOTk3LTY2Ljk3LTI4LjMwNXMtOS4yMDQtNy4yNzUtLjM0OC0xMC43NDNjOC44NTUtMy40NjggNTguNjI2LTIyLjk5NCA2OS4xNDYtMjYuNzY4IDEwLjUxOC0zLjc3NCAxNC4xNjctMy45MSAyMy4xMTgtLjYzIDguOTUyIDMuMjc5IDU1LjY5OSAyMS44ODUgNjQuNTQ1IDI1LjEyNiA4Ljg0OCAzLjI0IDkuMTg4IDUuOTEyLjExIDEwLjY0M3oiLz48cGF0aCBkPSJNMjYwLjYzIDI1OC4xM2wtNS4zMy04Ljg2LTE3LjAyLTEuNTMgMTIuNy00LjU4LTMuODEtNy4wMyAxMS44OSA0LjY1IDExLjIxLTMuNjctMy4wMyA3LjI3IDExLjQzIDQuMjgtMTQuNzQgMS41M3ptMTEuMDMgMTEuNTlsLTExLjkxIDE3LjQ2LTI3LjUxLTExLjQxeiIgZmlsbD0iI0ZGRiIvPjxlbGxpcHNlIGN4PSIyMjEuNjEiIHJ4PSIyMS4wNjkiIHJ5PSI4LjE2NyIgY3k9IjI2MS4yNCIgZmlsbD0iI0ZGRiIvPjxwYXRoIGQ9Ik0yOTYuMTEgMjY5LjI2bC0uMDItMTguNDMgMjMuMzMgOS4yMnoiIGZpbGw9IiM3YTBjMDAiLz48cGF0aCBkPSJNMjk2LjExIDI2OS4yNmwtMi41My45OS0yMy4zLTkuMjEgMjUuODEtMTAuMjF6IiBmaWxsPSIjYWQyMTE1Ii8+PC9nPjwvc3ZnPg==;" parent="1" vertex="1">
          <mxGeometry x="1230" y="830" width="195.01" height="130" as="geometry" />
        </mxCell>
        <mxCell id="0f2K5YkPgI1Y6RwSM53R-12" value="" style="endArrow=classic;html=1;rounded=0;strokeWidth=2;" parent="1" source="0f2K5YkPgI1Y6RwSM53R-7" target="0f2K5YkPgI1Y6RwSM53R-11" edge="1">
          <mxGeometry width="50" height="50" relative="1" as="geometry">
            <mxPoint x="520" y="580" as="sourcePoint" />
            <mxPoint x="570" y="530" as="targetPoint" />
          </mxGeometry>
        </mxCell>
        <mxCell id="0f2K5YkPgI1Y6RwSM53R-15" style="edgeStyle=orthogonalEdgeStyle;rounded=0;orthogonalLoop=1;jettySize=auto;html=1;" parent="1" source="0f2K5YkPgI1Y6RwSM53R-14" edge="1">
          <mxGeometry relative="1" as="geometry">
            <mxPoint x="355" y="470" as="targetPoint" />
          </mxGeometry>
        </mxCell>
        <mxCell id="0f2K5YkPgI1Y6RwSM53R-14" value="" style="verticalLabelPosition=bottom;html=1;verticalAlign=top;align=center;strokeColor=none;fillColor=#000099;shape=mxgraph.azure.mobile;pointerEvents=1;" parent="1" vertex="1">
          <mxGeometry x="330" y="320" width="50" height="110" as="geometry" />
        </mxCell>
        <mxCell id="0f2K5YkPgI1Y6RwSM53R-32" value="" style="group" parent="1" vertex="1" connectable="0">
          <mxGeometry x="400" y="530" width="60" height="100" as="geometry" />
        </mxCell>
        <mxCell id="0f2K5YkPgI1Y6RwSM53R-7" value="" style="sketch=0;outlineConnect=0;fontColor=#232F3E;gradientColor=none;fillColor=#232F3D;strokeColor=none;dashed=0;verticalLabelPosition=bottom;verticalAlign=top;align=center;html=1;fontSize=12;fontStyle=0;aspect=fixed;pointerEvents=1;shape=mxgraph.aws4.servers;" parent="0f2K5YkPgI1Y6RwSM53R-32" vertex="1">
          <mxGeometry x="2" width="58" height="58" as="geometry" />
        </mxCell>
        <mxCell id="0f2K5YkPgI1Y6RwSM53R-9" value="&lt;font style=&quot;font-size: 16px;&quot;&gt;Server&lt;/font&gt;" style="text;html=1;strokeColor=none;fillColor=none;align=center;verticalAlign=middle;whiteSpace=wrap;rounded=0;" parent="0f2K5YkPgI1Y6RwSM53R-32" vertex="1">
          <mxGeometry y="70" width="60" height="30" as="geometry" />
        </mxCell>
        <mxCell id="0f2K5YkPgI1Y6RwSM53R-33" value="" style="group" parent="1" vertex="1" connectable="0">
          <mxGeometry x="660" y="530" width="92" height="100" as="geometry" />
        </mxCell>
        <mxCell id="0f2K5YkPgI1Y6RwSM53R-11" value="" style="sketch=0;outlineConnect=0;fontColor=#232F3E;gradientColor=none;fillColor=#232F3D;strokeColor=none;dashed=0;verticalLabelPosition=bottom;verticalAlign=top;align=center;html=1;fontSize=12;fontStyle=0;aspect=fixed;pointerEvents=1;shape=mxgraph.aws4.servers;" parent="0f2K5YkPgI1Y6RwSM53R-33" vertex="1">
          <mxGeometry x="17" width="58" height="58" as="geometry" />
        </mxCell>
        <mxCell id="0f2K5YkPgI1Y6RwSM53R-13" value="&lt;font style=&quot;font-size: 16px;&quot;&gt;鉴权网关&lt;/font&gt;" style="text;html=1;strokeColor=none;fillColor=none;align=center;verticalAlign=middle;whiteSpace=wrap;rounded=0;" parent="0f2K5YkPgI1Y6RwSM53R-33" vertex="1">
          <mxGeometry y="70" width="92" height="30" as="geometry" />
        </mxCell>
        <mxCell id="0f2K5YkPgI1Y6RwSM53R-34" value="" style="group" parent="1" vertex="1" connectable="0">
          <mxGeometry x="1071" y="660" width="190" height="110" as="geometry" />
        </mxCell>
        <mxCell id="0f2K5YkPgI1Y6RwSM53R-19" value="" style="group" parent="0f2K5YkPgI1Y6RwSM53R-34" vertex="1" connectable="0">
          <mxGeometry x="10" y="20" width="60" height="88" as="geometry" />
        </mxCell>
        <mxCell id="0f2K5YkPgI1Y6RwSM53R-17" value="" style="sketch=0;outlineConnect=0;fontColor=#232F3E;gradientColor=none;fillColor=#232F3D;strokeColor=none;dashed=0;verticalLabelPosition=bottom;verticalAlign=top;align=center;html=1;fontSize=12;fontStyle=0;aspect=fixed;pointerEvents=1;shape=mxgraph.aws4.servers;" parent="0f2K5YkPgI1Y6RwSM53R-19" vertex="1">
          <mxGeometry width="58" height="58" as="geometry" />
        </mxCell>
        <mxCell id="0f2K5YkPgI1Y6RwSM53R-18" value="Worker" style="text;html=1;strokeColor=none;fillColor=none;align=center;verticalAlign=middle;whiteSpace=wrap;rounded=0;" parent="0f2K5YkPgI1Y6RwSM53R-19" vertex="1">
          <mxGeometry y="58" width="60" height="30" as="geometry" />
        </mxCell>
        <mxCell id="0f2K5YkPgI1Y6RwSM53R-20" value="" style="group" parent="0f2K5YkPgI1Y6RwSM53R-34" vertex="1" connectable="0">
          <mxGeometry x="110" y="20" width="60" height="88" as="geometry" />
        </mxCell>
        <mxCell id="0f2K5YkPgI1Y6RwSM53R-21" value="" style="sketch=0;outlineConnect=0;fontColor=#232F3E;gradientColor=none;fillColor=#232F3D;strokeColor=none;dashed=0;verticalLabelPosition=bottom;verticalAlign=top;align=center;html=1;fontSize=12;fontStyle=0;aspect=fixed;pointerEvents=1;shape=mxgraph.aws4.servers;" parent="0f2K5YkPgI1Y6RwSM53R-20" vertex="1">
          <mxGeometry width="58" height="58" as="geometry" />
        </mxCell>
        <mxCell id="0f2K5YkPgI1Y6RwSM53R-22" value="Worker" style="text;html=1;strokeColor=none;fillColor=none;align=center;verticalAlign=middle;whiteSpace=wrap;rounded=0;" parent="0f2K5YkPgI1Y6RwSM53R-20" vertex="1">
          <mxGeometry y="58" width="60" height="30" as="geometry" />
        </mxCell>
        <mxCell id="0f2K5YkPgI1Y6RwSM53R-30" value="" style="rounded=0;whiteSpace=wrap;html=1;fillColor=none;strokeWidth=2;" parent="0f2K5YkPgI1Y6RwSM53R-34" vertex="1">
          <mxGeometry width="190" height="110" as="geometry" />
        </mxCell>
        <mxCell id="0f2K5YkPgI1Y6RwSM53R-35" value="" style="group" parent="1" vertex="1" connectable="0">
          <mxGeometry x="1331" y="660" width="190" height="110" as="geometry" />
        </mxCell>
        <mxCell id="0f2K5YkPgI1Y6RwSM53R-23" value="" style="group" parent="0f2K5YkPgI1Y6RwSM53R-35" vertex="1" connectable="0">
          <mxGeometry x="10" y="22" width="60" height="88" as="geometry" />
        </mxCell>
        <mxCell id="0f2K5YkPgI1Y6RwSM53R-24" value="" style="sketch=0;outlineConnect=0;fontColor=#232F3E;gradientColor=none;fillColor=#232F3D;strokeColor=none;dashed=0;verticalLabelPosition=bottom;verticalAlign=top;align=center;html=1;fontSize=12;fontStyle=0;aspect=fixed;pointerEvents=1;shape=mxgraph.aws4.servers;" parent="0f2K5YkPgI1Y6RwSM53R-23" vertex="1">
          <mxGeometry width="58" height="58" as="geometry" />
        </mxCell>
        <mxCell id="0f2K5YkPgI1Y6RwSM53R-25" value="Worker" style="text;html=1;strokeColor=none;fillColor=none;align=center;verticalAlign=middle;whiteSpace=wrap;rounded=0;" parent="0f2K5YkPgI1Y6RwSM53R-23" vertex="1">
          <mxGeometry y="58" width="60" height="30" as="geometry" />
        </mxCell>
        <mxCell id="0f2K5YkPgI1Y6RwSM53R-26" value="" style="group" parent="0f2K5YkPgI1Y6RwSM53R-35" vertex="1" connectable="0">
          <mxGeometry x="110" y="22" width="60" height="88" as="geometry" />
        </mxCell>
        <mxCell id="0f2K5YkPgI1Y6RwSM53R-27" value="" style="sketch=0;outlineConnect=0;fontColor=#232F3E;gradientColor=none;fillColor=#232F3D;strokeColor=none;dashed=0;verticalLabelPosition=bottom;verticalAlign=top;align=center;html=1;fontSize=12;fontStyle=0;aspect=fixed;pointerEvents=1;shape=mxgraph.aws4.servers;" parent="0f2K5YkPgI1Y6RwSM53R-26" vertex="1">
          <mxGeometry width="58" height="58" as="geometry" />
        </mxCell>
        <mxCell id="0f2K5YkPgI1Y6RwSM53R-28" value="Worker" style="text;html=1;strokeColor=none;fillColor=none;align=center;verticalAlign=middle;whiteSpace=wrap;rounded=0;" parent="0f2K5YkPgI1Y6RwSM53R-26" vertex="1">
          <mxGeometry y="58" width="60" height="30" as="geometry" />
        </mxCell>
        <mxCell id="0f2K5YkPgI1Y6RwSM53R-31" value="" style="rounded=0;whiteSpace=wrap;html=1;fillColor=none;strokeWidth=2;" parent="0f2K5YkPgI1Y6RwSM53R-35" vertex="1">
          <mxGeometry width="190" height="110" as="geometry" />
        </mxCell>
        <mxCell id="0f2K5YkPgI1Y6RwSM53R-36" value="&lt;font style=&quot;font-size: 15px;&quot;&gt;音视频任务请求&lt;/font&gt;" style="text;html=1;strokeColor=none;fillColor=none;align=center;verticalAlign=middle;whiteSpace=wrap;rounded=0;" parent="1" vertex="1">
          <mxGeometry x="500" y="530" width="130" height="30" as="geometry" />
        </mxCell>
        <mxCell id="0f2K5YkPgI1Y6RwSM53R-57" style="edgeStyle=orthogonalEdgeStyle;rounded=0;orthogonalLoop=1;jettySize=auto;html=1;entryX=0;entryY=0.5;entryDx=0;entryDy=0;strokeWidth=2;" parent="1" source="0f2K5YkPgI1Y6RwSM53R-38" target="0f2K5YkPgI1Y6RwSM53R-54" edge="1">
          <mxGeometry relative="1" as="geometry" />
        </mxCell>
        <mxCell id="0f2K5YkPgI1Y6RwSM53R-38" value="" style="sketch=0;outlineConnect=0;fontColor=#232F3E;gradientColor=none;fillColor=#BF0816;strokeColor=none;dashed=0;verticalLabelPosition=bottom;verticalAlign=top;align=center;html=1;fontSize=12;fontStyle=0;aspect=fixed;pointerEvents=1;shape=mxgraph.aws4.filtering_rule;" parent="1" vertex="1">
          <mxGeometry x="860" y="530" width="60" height="60" as="geometry" />
        </mxCell>
        <mxCell id="0f2K5YkPgI1Y6RwSM53R-39" style="edgeStyle=orthogonalEdgeStyle;rounded=0;orthogonalLoop=1;jettySize=auto;html=1;" parent="1" source="0f2K5YkPgI1Y6RwSM53R-11" target="0f2K5YkPgI1Y6RwSM53R-38" edge="1">
          <mxGeometry relative="1" as="geometry" />
        </mxCell>
        <mxCell id="0f2K5YkPgI1Y6RwSM53R-40" value="&lt;font style=&quot;font-size: 16px;&quot;&gt;去重&lt;/font&gt;" style="text;html=1;strokeColor=none;fillColor=none;align=center;verticalAlign=middle;whiteSpace=wrap;rounded=0;" parent="1" vertex="1">
          <mxGeometry x="844" y="600" width="92" height="30" as="geometry" />
        </mxCell>
        <mxCell id="0f2K5YkPgI1Y6RwSM53R-42" value="" style="endArrow=classic;startArrow=classic;html=1;rounded=0;entryX=0.5;entryY=1;entryDx=0;entryDy=0;" parent="1" source="0f2K5YkPgI1Y6RwSM53R-10" target="0f2K5YkPgI1Y6RwSM53R-30" edge="1">
          <mxGeometry width="50" height="50" relative="1" as="geometry">
            <mxPoint x="1000" y="580" as="sourcePoint" />
            <mxPoint x="1050" y="530" as="targetPoint" />
          </mxGeometry>
        </mxCell>
        <mxCell id="0f2K5YkPgI1Y6RwSM53R-43" value="" style="endArrow=classic;startArrow=classic;html=1;rounded=0;exitX=0.75;exitY=0;exitDx=0;exitDy=0;entryX=0.5;entryY=1;entryDx=0;entryDy=0;" parent="1" source="0f2K5YkPgI1Y6RwSM53R-10" target="0f2K5YkPgI1Y6RwSM53R-31" edge="1">
          <mxGeometry width="50" height="50" relative="1" as="geometry">
            <mxPoint x="1560" y="870" as="sourcePoint" />
            <mxPoint x="1610" y="820" as="targetPoint" />
          </mxGeometry>
        </mxCell>
        <mxCell id="0f2K5YkPgI1Y6RwSM53R-47" value="" style="group" parent="1" vertex="1" connectable="0">
          <mxGeometry x="1170" y="230.06" width="79" height="119.94" as="geometry" />
        </mxCell>
        <mxCell id="0f2K5YkPgI1Y6RwSM53R-45" value="" style="shape=image;verticalLabelPosition=bottom;labelBackgroundColor=default;verticalAlign=top;aspect=fixed;imageAspect=0;image=data:image/png,iVBORw0KGgoAAAANSUhEUgAAAKkAAACqCAYAAADWQW+BAAAgAElEQVR4Ae2dh3sU5fbH81f8vNerVwGVEtITkN4TQkKvAoqi3utVUS5WVEoCAdITElIIhFD00ouUgPSmEqRIFQSkSRcFRLHg+T3nnX1n33fmndnZ3ZnZ2TDrc57ZDbhJZj+c857ve95zIrrkPAVdcxrzltsYunqsW25j4CyvCSSLLL8JpHDWFFLyJete0BREllrQFFILm6msR2Ez6FGktEhIK/JYcSSkMZZeHAmyTY+E9OnNifWc3hxkK2kOPT3Wq6Q5SBYFvUqioFepZL1Lo4CzGVHQe0YU9JkRrbayaOirshjoVxYD/crV1r88BvpXUIuF/hWSDaiIBWKVsTCAsYGVsSBZHAyc6bVBM+OAs6o4GFQVB4Or4nmbFQ+DZ8XDEJUlwJDZCfCMhg2tTgDJEmFotdeGzUkEkQ2fkwTDa9T2bE0SEJubBM/K1gKem+uxeS3gOY+NmNcCOJvfEkZ4bEhpEkQgpHqgcoBSYEWQ4tc4SBHaUIEqQYqwypDicxdUD7Q2gioDSmH1D9TBLKT1ClTGm1oNqtqbood1PSr1rmpvirAaB1WCNFvypPXOo7qgesN/IKFfDvsY/r1hH5+Lwj5+TRT6xWHfOKheSJ0CaqHJa9R6B2ocDKz0rk9xrcqtT/G1mWtUB4DKQ+qCqkqmuCSKJlU6yZQ9od8HqB5ITUumQgwqgbQzwsmaJ5Hya42a1wS6mZlMOcijuqAmwDMaoA4zKfTLGT+uVRVZvwwpgsrBagBUlKhUmb+ZoDpdnkLPapI8hZJV/ZSnEoOWpwaVJEEEBZReZa/qgippqHo6qomgujqqOJkSQup6VElPdQV/Zwj+EqTTniShnnpSevXHo6rCPi4FHB/6XcGf7FIFIk/NprtSwclTqKX60lG9kD6IoNY7eQq3UW2Up2wClUDaCQGl5kmgqDf1N/SHnUd1QXW84C9DqgeqHPZdHVWlo2JhikqicrqOGmaC/0DM7hFQaloe1QVVO5lSQerJ+LXkKVfwl7ZVjW6hDixJ5CG11KO6gr9c7vcggRqs4C9BOtXrSalHNQSrq6PaqqM+qII/gbQjQqoHapDJlLszZd7O1IMo+A+cnggRCKkLqlTpL1f3Y6U/k/m7hdOhq/AfwEKqBapWMlXv5SkCqiv4h1rw90D6BPGkeh71gQWV8aZuhX9ozkwxkLqgsgf78Lkc+l1QQyr4KyANHFRXR9XWUV3BX7se1chRFAJphykIJ2tSIuXvGtUFVRtUV/APHFQZUseA6gr+ruCvON8/oDgRIhBQav54VFfwN6kBhYmF0/VR8B9QnMBD6q9HlUF1BX9vE4pAGlCYCGp9E/yFkFoN6pCy9pBX+wHM2DQZZmzWsyyYsTkLypS2JQvKPJaz7l2uSwp2TBG188GvPagtfXI2jIHZu7J5250Nsz1WvTsbJMuB6t1em7M7B1ibuXMSjFrY0/aWPgOKBJ40kNBvVEcdWtERrt2+DGY9Ltw844HUbemj7D9FPerh7+vMut1w594teHfZEFtBJZC2Z9akFFB69WeNagTU8i1TTbth+EY8pCEC1eE6qpmQ4j1fc2i+uQ0ofFT4S5BmNQK7QJ27q8RiSF1QlR7VbEg3H18udU2xqVPKgKJ4iGiPkNoAKuqoepD+9ddf8Ndf9/2y8z+cJp38Aurm56AGFFYK/ocu7vHrnkqfwV+azkSG1KYK//4cpDaA6gvSXSc3wjMVHWBQWVtig8vagsrK28EQjw2c0crbKzWQtpMOAtUqwf+56vYwcm4XeBFtHrWu8OK8rvASa/O7wsvzu8HGY8sAHYbWQwSplS191JBaDKoepHhT8OasPrAQUvKa6TbxNfW49AMAKl0C0GRK6paibuS75KuZcP/+n1p8kq9zkDLe1CpQxZCS8O8V+GkSRa/+JFOyjuo5Mq2E9C+Q/mPvCoK65iAPqls4bV7htEjwH1ARByJARZ8PQmp5Nz8mmSKQtiNQetal3HOTQRWsSX/9/Rc4fGG/KrxIoC6C7vnNZY/qgmoeqKxHHVAZLwH6133WV5DP5Lsb38BPv/zAfZ1CaheoEqSTG4FdoCo96c/37sAzZR3hy1PbhKBi6E91QfUem9Y5Lt1H1b/fd8dpbCax+KtKuC8A9MSVr+GVj7vDlVsXNSG1A9R+mDi1Q0j1QDVRR527k5egENK+xS0grSCGgMrdDbpGPciDGnYNKBxa4Y8hXgQofgYnrxyCkTUdYdjsp8WQ2tgppV8hC6kNoIog7VPcgvSiSiuIhT2ntys5lZKpcAfVYYJ/fwrofT7EU0BfqOlIJqIMm6UFqX0tfdSQWgyqHqR4Ziq9ME7To2Iy1T0/Ul6jhp1HdQio/ctjhWtQL6Cd5fE9Ikg3YeJk4/geMaQWguoLUhT8exbGa4K69uvFkGInqA6Sp8wQ/PuVxcJSlJkUa1AEFNegI+d28jTzleSpoQJPipDivCl5xpTFoZ9A2nZyQ2lNinCyxmX6TPYfxBrVF6T0BCqCuufUNmHoX3vwwQU1OME/BpZ8VQX3BSH+BFmDdgY268dhaHqQGgY1yB7+MqR2gaqG9Db0KU5S9UelHlVrjerTo7oV/ooKf21AT145DC/UdJan+LGg+oLUDlAlSCc1BIRUAlXgVbU8apb/OqoQ0qIkzdaTuEatO71DKE+tU4R+V0cV66g4+GypwIOiFv3t1cPwwpxOMqB0Z4oK/kNntVRl9zTc2zVisi9m920RUptArVFJULehd1ES6epHSv0EFf7pBbE6oC5xdVRl+0lm2ETfMkySqlRrUAQUPeiI6o66s1CFkB5bbuss1L4FLKQ2gKoHqbyF6ieoGPpTC6LkrD9Yj5paEAkDZrSENz4eCNnr3oHZO/JgcV0VrNg/D5bvq4FPviyDsi2TYcLKV2FkdQr0KUkgA3ydNrS3XxludeoB2sEzwFd7xOTQKoEnpZDi4F5mYK839JsrT/UtiGM8aTAe1WAyZQhSjdbo1KMqsyn0CkpQ/ZWn0ouiYdSCgfDJF+Vw9PsDcPe3n0lVgfJ7KV/j9752+xLsOvkZFH82Dp6r6hTEdGnzWvoQD7pXDSj+/JIHpYDSSdNiUJ/RgBSTKrumSxNI21A42Wsga1QDoJZuyoKrty7J9t21k9CzMEFu4it7Ux1Q957ZqWSFrFlxjZqa7/WoRkDtW5IEpZsnwamrx3xW/6i+qeALd3+7AztPboCxS1+AntOjGWANjEE3SUftOyMGFmsA+u3VIyTEG+2POmRmCzh26QBcv3NZthX758g6qh2g9s2PgwiEVB9UhTQVhI7aNbsJdM+Lgu550ZLlRgnbTuodRUF5CpMp5QO9WtnmKdA1p7Ec+rVA7VEQBQUbPoJLP55Xvo0pr/+8/yd8fWEPvL/0edtBzal9W7UGxV8KPejz1Z0UWT/1pPSq9qgIKnpUDP24Rh08M1GG1A6PykFqF6jeUr/AO6X0KkqAOsUW6v6zXxA5i0CqA+pLc9Lh0Pk6lWKgRyfWWN7741f47Y97fv1/f/z5O2w6tgqGzWzvgdV6jzqwIgl2nqzlfh0loH1mRBNYjXpUmvWz8hQCSk3fo/qYhcrUpJIOflXxXO+pPsSTZkqe1E6Pag6oXo+6/+znPKAIqQrUJpBf+yHc+fUW9wEqX/x87zbUndkONbuKSHL0r5qeMKSiHQwqaw2Dy9vAszM7w5ufDIbc2vdg5b55cPLKEUDPqfVAD3/19iX4aPm/bAEVBf9BDKgE0DmdNEdMOgJUHcHfA2kDaBOuoBbGw4LPy6B3cSLgwF6tob1Yl7rsqxr48/4fQpbQU3713S6Y/Olo6FfSgpybSuGOozSVz/crz/X3KGwOL8xOhprdRbrLB/TCs3bkQlpRc+hRZK1HpaAurCuHEbM7SqV+OmV+TgaVgdQDKgOrrJ/ShCqQZCoAwV+3NbogoZIbpWn08O9REA2bjq4Shmn0cocvfAWjP3kGUvKaes9L4TQ/DlJjp1B7TY+B/PUfwOWfLgq/H25JLts3B9KLo4yBanbHaRM7pVDBX+soilnyFIG0dSYCSq0h51UdCapAR9UCFT3oxqOrhN4Tw3rRZ+MhJb+Z6SMm+5YmwuK6WfD7n7+pvjf+w1ixb269ADWwNap/OqoMaX0EtVtuE1hSVy3UO89e/xZeqk7jR6FbMAv1vSUvwI07V4SgLviilHhTQ6HfbI+qE/oDqfC3cgx6b0ycEFBqlnpUAzqqlFAFlvXTCiriVXOegpx17wsTmoPn90D/0qd5QHFgr0VDe3G9+t31EypQcX2cu/4948mUQyv8Sdgvj/GU+OHVaNZvzKP2zo+FiNYZXkgt96g2gfr8rO7CLP7AuS+h9/REnzpqssirBrBGpU3Shs/sSDYMlKTikuPV+X2Mg2qS4C+X/Ol4VHuSKd+geiHVA9Uj9oeLjtotpwkgjMrHqavfwIDSVpI0pZKnPJ7UQo86YlZXuHjzO+WPRSSs3iWxLqgzvROmB6F26rHeedSTIqT1BNSpq99RZda3fvkRXq7u6QVUqKNaCKqnwn/Ux/3h9q8/qkCt2VXogbSZsay/3nlUbcGfQNqKAkqvWmvUMPCouOWq3OrEoxIFG8bp6qjCyimz16geUPM3fKBaK9+9dwdGzOoig4pS1ruLnwNMrrAW4PDFr+DIxX3w+alNsHBPJXy4/CXoOyMOcGwPNX8Gosnhni3zC3noF4MqQ1pfQC1YP07lRXG7NCW3mQypluAvBNWCCn8U87ef4LctUZaqPbyEFKUUbRwH2IhNr90N/sO7fOsCzNw+DfrNSKjXoHogfRwQUsOgOlTw75rdGE5f47Po3//4DUbNHwRaOqq8z8+sUbVgNTOZQq+JSxD2gTtSuIWJwBp94N89fe04vLagT0CgCg/3OUzw75UXAxGtMhDS8Ad19MdDVWF098lN8vkpp4E6d3exX0DqgYv1CGOXveBIUIMV/CVIJ1JIwxvUFfsWcJ8jFn28s/AFGVKljqq314/e1GqPOqi8Ffzw8zXuZ1a+wJD/490f4MTlQ3Dk4lekDhcrq0QPlLNe/7ifeaDqrFHtFPx7Ek+KkDoF1AB11K45TeH7m+e4z+7izXOQnBvJQeovqFr1qGaFfjyWgp3rlA9S8HJ2l5QglcbL8lTP4mh445OBsOnYSuGW67kbp2BAeYt6BSqB9GkKaRiDOnJWGuD6k30sqZsjnUL1Y69ftEa1EtSXa9Q/N9atVmzNgp6kCAUlKdY81VPFzWHy6jfg9q8/sb8yWT4s3FMhQ1ofhvbKkAYNaojlqSmfvq34sO7D+4tf1Dwq7SSPuvc773EYXKLM2DyJHOxLLWwGvg73ZX76GinEZn95BPfZWR3rDagcpOEM6uI91eznBPd+/xX6TW/lPSqtV+KXLdWh+lqjWuVRh1a2hw2Hl5LjJsUbJ0CPouYypD5BLY6EFfvncr87ZvxzduVDej0R/HvmxkAEwskaWZ8GGvpD5FF3n9zMfVBXfvre0OE+OeMPMai0kDo1gN5Tw2d2gNsKOev0tWNkQl8woDpF8BdCGo4e9cTlIxykB87u4SDVO4UaNKgWCP7oQZWmF/o3HFnG/f4YSV6uSYV0RYmfv2tUJ4AqQTqB96TUqwblUW0W/JWZ/bbjtcJTqIZg1ajwZ89MWS1P0eopo6BmrHqN01wx5Geve0uCFEFVwOrPFmqoBX8CacsJj8HTYQxql2mN4cpPfMvsDYdXQMepT+qDGmTW7yRQsRTwt9/vcd50yd5Z0HN6VFiAqif4y5CGK6h9i1tB0YaJgAUa7GPb8fUE0gcJVOXGAB5dOXxxL8zakQ3Pz+4C6cXNzfeoNgj+6Zg4IaDUwsGj4qieASVtYWldjUonpKAePF8nQ6oFql4DCnmdaiD0W5X1y8kUTpg2sEb99gq/Lqf3Aq845WX7iXXw1qJnPAlVYNVTwtBvMagqSJ3uUTtNfQry1o2DH+/eYD8D1fM9p3eAmUdRQiVP+QOqMnlS3RQA+OPPPwisL89NDRsdVQipZaAGKU/1yIuDzUfXcAmC6IPA6qI3FwzzQPrEA+NRR8zqTPb3RSdUlfcJ71HplgzoVRItwxp0MqXjUYM5iiJBOt4b7mnYdxqovYtawuEL+zQBvXHnKqw9uAQyVoyG/tNbAy4JvF1SAgdVDvthoqNik7SR1cmQU/subD2+RjfiYH0Aet/+ZYmOBpVA2gIhdTCoqblxmoBihz5MnNIL4gmYdLQkvT6IoLJ7/YPLW0He+vc161RRqvri9GYYUJ4UEKh26KgypE4FtWPWU7D56FqVB8Vx1xsOrYBehUm2jUGXvWogyVSIBX88jjJt3Vtw7fZlZeQn93brN2ugd2msI0FNz4mBCASUNTbk0+ehyvrz141XtTHEIoyKzdnQIesJCVC5p7//PfzNbunjZME/rSgSBle0Juek0IOyD3w9eyfu95uY9ZtU4S+ElHhVRpYKFaj9p7chBb/szcSzPeWbs22bhYrVUkrzx6M6SfCnnVKwBPDTgx+rohPKVK9/3JcrTAk6mTIBVA+k/+Q8KfWqFE72aqdHXVY3j+WTPN9waKV31pTsQZkZU+RrgXtUHB35THknGFrRGYZRq+wCwxgbjs8rOpGu0lSawitXi2rzmSkjOqq0VpXqUXEnasvx1ar7W/fdNlVhStCg6mT9Rir806Rwj5A6C9S+Ra3g1i98Qe/1W1cgLS/BC2kQHae9CZXU0gfDftanb8H121dVHkb1SXoG83575SiMqEoO7BSq2celDQr+LKiDK1qRU6ns74dd/8YsHOLZmTIx9AcBKoE0aRyF1DmgFq/PZO8deV5QOx7aiab3aXlUP46ivLNwJOnkrPqmPr6Ajc9w1pQRj+qUnSkW1Mlr3lCt+VGWUhak+Fs95e/OlJ6OKkOqB6rd8lTbyU/A/rN8m5wf7lyDlNwYz0A083r4o0fF/v2nr/JHoX2wKf8xJhzVO4ukI9OBZP0h9qjY3ufU1aPy74NPsMMKft0poKZlx0AEAkpNCvtqj2onqKl58XD33s/cjVu9f5FiIJp5oGauHG0oxHM/EPPi+u0rkFYQ4xxQ/Sycxu7Tysc7i4dLkCpK/ELhUVWQOsGj/rt6gPKewfilr0uQYtdpueO0f6B2y46ED5a8Av/7ogpWH1gEa9AOLoLzP5zhvh+eESqoHQc5a8dCzjrecteNhV0nN3J/HxUH/BqO6AnYDi2BdZq2mDTkHb/iP5BWGC23RU/Jbwp0b1959afC/7UFfeEPRZv2qu3ZkEbrUIMENVjBPy07mvekTvCok1e+w0GAIfWZGV28kAYA6r/n9IMzV08AbgL4eizdO1fe7xfpqC/P7qk6/ObrPc34c/zZcd7Uv+f2NhXUATNaAG4rs48NR5YSSJ0AKoE0kQn3FFJyJRm/OvRbraOWbZzG3i/45be70CMvgYeUA1V/aO+/qvuqWtpw34B5gf8gXqnpL0MqKvPDEr9vrxxj/i97n978+TrgRBT0pNSUnpS+Nlrhf/rqce6X2Hd2lwwpB6rCqwYtTxnQUdOmRUMEQuokUGdtLeRu2E+/3ITuubE+BqKJQU3Ni4Wz109x76f3AgcyYCIlSVTaHacX7Zkd1DpW72cw8mc4lqdXcbwMqW7oNyBP7T/3Ofdtv7n8NQdpKEGVIP1IglQLVK1kyiqPOmtbEXfDsKyse24cgVS/ka8a1Mot6qQAG4P98PN13u5cg2PfH4RR84cYqp7CqXx4RAWTJtV7Kd+beY1e0F/D2lnlnCj0+NM3TgRpjE/wHnXPmW3cPT917TjgNirCyRrJ+OlalTkyHbRH1dFRexBPipA6CNTKLfncDfv53h1IzY33eypK52lN4ez109x74WBbrDVtj/v+fuioGPZFoV/vYJ9ZDSi650dC2eYslZ75zeVDgBOlzQB139nd3H3C3lMEUp+gWi/4eyB9VILUIaBmr/mAu2HoNQaVdJIg9eMU6rDybqoPFjP79qz4HyagJuc1hYOKFuu//PYLDJ/ZyQOpsTlTWmvUk5cPc/ccJwzSvX5dj8p4U6vkqR7ToiAi8SOENDhQzdRRR80bxt0wfPHh4lc9s6aMj5h8b9HLqvd5fd4QHlIENkxALdmk3oXDHvxnrp8QGnrHtxc9q5KplKD2nh4HV27xp22xIRq7MxVKUBWQOgPU9LwklcSzYu8CfiCagaMoGctHqyB9rjJFDakNoMqVU0FU+GesGqX6fXx9AXfqhpS3UYPKCP7Pz+5GDuqx7zV3dxHTKM3aEZO+tlAJpAmyJ3WGR22b+QQcu/g1e8/g6k+XoMvUSL9AzVzxX+498MWzlSnaZX4We9RgQQ0EUlwqjf5ksApSlKio4D9lzRhV+8kJK19hILV+2ISe4C9B+uGjoAcqp50ymqpW1m9G6K9SyFB4szNXjCFD0biBaDoeNUMEaUWKVEXFrkvZ5w4GNWPl66p/dL6+gMoITpamuqnyiqAq+/fj7tPAspYKSEMHaiquSRMQUg+oQlhDoKMOKulMOuOxH8KFH76DTlOaqkHVSKZ0IdUr83PA0F5Rhb8I0kMX9sIXp7YQO3xhr0q73XXyM1lLVQKKr1+s7g6oeLAPXMtifape7yndNarJgn/qVBZSB4GKM6U2HVnL3jvyfMHuCsMjJn1CaieoJlT4iyB9bX5/ebJ0yaZJHKQYfaaseUuGVCn4pxY0I9OrlTc5u/ZduRmFE0BVQyoENTQ66ojKNLIlyt5EnMc5dvErhkA1BGkYgSqC9FUG0q/P17G3Cn66exMGlbXW1FHx2LNyk+DyTxegd0m8DKkTPGp39KTxNNyz14+U69TQgPrJ51Wcd8BPAcX9MR8/7xNUMaTJlhVOWy34TxSsSRHSbnlNYFhlJ7j3B9+wTAr1qJ9S8+5MYRe+XxRhHj1v/oaxHKD0WEpwHjU4wV+G1Kmgdp0WBce/54VmBBXXUdNWj4W2k57QXKOKIB1ekewpnFZvobZjEyj2ucXJlNGdKSGk8/qR6dIlGzO5f8xSqB8DyTKgEqg9i2KhemehSuLDe1p3ZjukF0WBUkcNGtQgBX8PpI8AQqoFqlfsD42OOnRGN7hxmy8lw5uKoQrb7gwu7awGdVJDEEJaLkGKNantMNQrjYWTfe4AUPUgPXhuD94S+YFZ/cAZraT1an4T6FUcB5M+fZMM20WAlY/vfzwHz1Z1llUAJ4EqQfoBQupsULEQGtdYosedX2/Dqn3/g5FVPTkdVRNSrszPOaD60lG1IB1e2Ql+/e0ud2twHimO8XmpOg1W7l8AuNbUqqXFhhGvzu8rA0pVAKqjUk9KrwGH/gA9qhfSMAB1ZFVvIupznwbzYkndXM6jZixXi/nD0ZMipGEIqhakxZ9NVIX6rNVjCKRjl7zI/Rlzu8jTM9dOwMs16SpAnQRq9ymYOCGg1AL0qHYJ/r0KnoavzvAVO3i3MYS9MmcQl0yJtkU5SMMMVC1IDygKTzCy9CtpQSAdXNZO2MMVl0qrD/4P+pW2kCUqCqbyGmqPSiCNo4DSKwFVCv+y0E8zf1XW71mn2ij4t8lsCNmrPyRHHuj66tyN09BxShMZ0taZDcAQpByognUquy7lngfegALL+1jTauYrh3/PKdQJguwet0qVYvyOE+tJMoVZP1ZPHb90UHagCOeXp7fC6wv6C7N+JaD0telrVD8E/+5TmkMEQhpuoOLA3m7ToqHksylw7sYZmLtjBuAGALHMBgTWiYICk2HlyQFV+HPlfTKsJoPqQ/AXQVp7aKkMII0okz8dLUHqOS698MtKwLD+8Rfl8GJ1DzmZ8kpTwZX5BbxGNQgqB2lwoIZGR0VY2056EjpPifRCirBmNgA9SP2t8NeUp8zeQtUBVQQpHq1hHzg7oHdxvBfS3MbQozBKApN4VvSuHlPIU/S8lHJninpTvIbCo6ZkMZ5U26Nqy1P8Xn/oQG2V0QDQZG+aoQFpWbLfFf6yTCV7UEXvKZvkqQkrfBeYbP+mlgNU7ppCwVReHQOqtuAvQTpWCvcUUrFHDT9QhZ6UQqpRlMJn/X6sUW0A1QikmaveFI9AD3GnFJ9HUXTkKS+kQYIaasEfw75kXo+qDWkDzpvqh37n6Ki+IMVtzp5F8QRSYcvJMAWVQBo79h8Qh5DWM1D1IQ0/UH1BilMA5faTuY3t8ahMhT8V+/EacDIl8KgypPUR1Ami7L4smSRVRgunA23pQ3v2K6/elpP+D5vwBSkJ9dgXlVo9AZWDVAtUWejndFTtNapW6LdL8KehXw9SzP7DDVQ9SO/8egt6FSV4AfUFaoh7+PuzRk3G7B7hZE0O/Yrwz8HqcMEfQZ2w/E1WnSHPh3k8KUKqAtXsZMpkeUoP0q3H18k9UmVPqgBVuE5VZvv0tWOy/kiQIH2fh5TzqA4HtXVGI3hz/nPQJqMRKKdLa0Lq0VHDDdQJy19T/aOjX8hYOUqGlLZG75bTBN5bNBJSC6LkZCocQU3OioSIWIRUD1TPjhSVqAL3qObqqK0nNoKaHaWkZG/Brkpok8mDOmGZhieleqrHm4aLR9WC9Nbdm9C7OJHrj4retHJrNuBJBmxHGc6gdpscCRExFNKgQNVeo1oh+Lea2BDmbC8F7PGODyxDU4IqgnQohnsKqZ0e1QQddbyGJ916bK0EKJ7pz5YGTFRsnUYAle7NX7BWAaos8qMsRY2GeuU1xKFfhjScQG01sQHM2V4iA0pDHhab5K0dL4d9LUiVO1M07FvuUYMEVQvSiStGyWN8EFJcu6IHZR94bxDU7vnN5dAvw0khdaiOykFqNaiY9Y9d+B/YfGQtbD6yjtjaA8ugw6Qmcjt0VgEQnetvOf5xyYMKmuEevXgQeuQm6kK659QO2HKsFrb6aduO1YLKjtcCapPbjq8P2rZ/sx582dGLB1juyPObP9+APsUtZEjxKEqvwnioO71D9XcR1HVfL4GU/EjDoPYoiIJPD3wCWERNzcxuflIrHzzTr32uXwWp1aDO3G0h0NMAAAllSURBVFLA3TysfewyJVqzPyoLqgRoiaoJGb4hfoA9cpOAnTMl8qTcN68HL7YcW8MBSs9LoRy15/R21W9IPapRUPFMFFb1s4/aQwi6+nAfW4jCPg+2HtUD6cOAcLIWfDIlXqNW6kCq1x8VAa0mIf5P9n6R59SD0qFoFNRxS/zvnaR6c4d/YcLy14HUoyqqpzDs9ypM0PSoGPqNgOobUoNlfkHsTEmQvoeQBgcql/Gj6K9R4V+5WeBJs6Ll/qhsuKfPW4x7jACqPCOO/By9+DWk5iQABZReEdTBpV1Ux3wdzpxfPx5OqEYQ9Yqmsdlv3ZmdqvclHvXgYkjJa6Yd+vOagBakylOohsr8AgS12+RmEBGNkAYKqp86qhjSKG/rSUWFf4txj8PsbeIkCT1oyrR4MnKSwsleEdT3F70Ch87vI810saGunp27fhqCshunAU8IWGnnPe+/77vd8Nq8gYYq/NMLYolHRTDZBwUVm/SifkqNTajSi2LhkiDck5pUOeT7EfoNtEb3rlOlbn4ypHaBqg8pfxQFQ/zsbdOFWfyRCwcgOVsC1CmzUAMu8zN5ZwrXpUrTAxXHBLFZPyv4pxfGwqUf1WtSOwunOUiDAtWg4G8I0o9w4snjMGtrsSag1INSQOmV9aT0OV2j0h0pem018XEgJijzk7XUMBP85fbomqBuV50eRY+6+uBCoeDvE1LUVC32qF1puEdAqQUc+n2C+iiIIO2cFcW1nmwxrgFUEUDVSRLxoNNiPQN77R/fwxWlmL3XH6SOSg/3aa1R0bviFGoteQpB7V7A66iGILUYVCGkVnpUPUhxZypp3GNCD4prKQLo1DhZU2XlKepJ6ZV6UfYaFh7VBlBxYK+WPLUGQWUEfxGkOLlPDvfs7pRFHrXrJE/iRL0oe7XCowohnRxF+qPiBJRZW9QhHgE9fGE/SZJoxk+vWqCa0cjX8M6UTiNfJ9WjsutUzPq/PMWPxcH7jKEfQU3Jl7L+NMGaFCGVjkszh/oorBaASiCNetcb6llIrfCoepBWbSkSCvWYnSdPizck+FNPilcX1Cd9ylOaoB5YSOQpTUjN3kLVkadkSO0CVQxpNCCgIh300Pn9kDw1XtZR9QR/yas+RiQpCqsLanCg9ipOUGX3xJPS/X7qQZXXQDyqBqgcpFaDioK/CNJFX84VAnrkwn7oNjXWq6F65kzRUK+8uqHf/4FouDMlrVHFoX/jkVWAmwbsQwmpqaFfAKoH0r9D1LtoDxOL1gj/Aa9RGcFfCSmugdDYB74+fH4/dJkSw2X90rEU/RGTSSEa2mtp1m+2jjrtSZWOiln/nlPbhJ+F8vPhILXCoyoEfwWk1oOqhJSFE5/jDcE1aJesGMcNmxA1oLCtzM9sUAU6alpBDEmmlFAqPyOElBX85R0qZcinrwMJ/QyoAkgtBFUQ7tkbgDcH9+JTpiUAaqXExjeAFuMbQEvOGkLL8Q2h5YSG8PSEBrIkxYZ/rdBPEqoJjwn3+qnIz17rg+DfJbsJdM1pKlu3nKZALLcZdGMsObcZ9C5KhL1ndqk8Kvs5UUjtArULSlDN36Hhnr1aE/r1PClCeunHi3Dy8jHDtv34Z0JIEdh6CWoAOipWPJ2++o1h+/7mucAhNTvrL2gKMqS6oDK7UaxEFcgatXITXwXF/gsN5DkWjOAGgL9Zf1h7VD9BVfYvDeQ+s/8PFk6TE6k2nevvktlU8qQIqR2glm7IZn/foJ8TSD+SIPUX1AdFnjIb0lX7P/Ge77cBVBWkVoP6bFlP4eSLQGmVIQ1wDPqDAKqZkKKWPW7ZK15I8Wy/xaAKIVWDKq1PzdJRX60eBmv3L4PNR2pVtuVILch2tBa26NjWo7Ww+MsalY7qelSpuS9t6TN3VynsOPGZbDtPfAaBGB5VyVz1Bg+oogGFnOlTacqENaompFaDyjWgYKqnjFb401moTmnp45c8FWZ7/Sj4y+ZpjU4bUHDdUrQ8apAtfQikkZ71KIKpNEnktz7rV3b042ANg5Y+yraTYV+PKhD8/QHVTHlKgvTtv4ELqnfPny3vo8/DoszPBsE/FKB6IXUKqEzoF3ecNjoVxdyWPgirC6p0LMVuUDtnNIWISASUmiDk0yWAbaHfJ6ji49JYNG1FSx/qTcMGVD91VBzc2wnN4OgerEv1B9Rgkyk1pIF6VBMFf+X6VOxRXVDJwIkQD5sgsAaSTPmR9YshrQegamX9rjzFy1OSTCWV+DnVo3bOaAIRzWioV14DCf0O8qguqI2gvcWhXw77uASwyKN2nuiBNHhQzRX8tXRUf0O/C2r4gypB+tbfACENF1A5DVWnpY8r+DND0ZzuUXUE/07EkyKk1JQhn74OJPRbWOEv9qhG5Sm+Uwpbhyo/dyv8QWuNKjegsEnwV0Pq8aqyJEUhxasLqnzIj5Wl6HNXR7VGR/VA+pDXk4aDR/Wpoxr1qK7gH8ycKdmjCo6iyAmVgWTK1xZqx4mNIaLpWwhpfQPV1VHri44qQ2oLqA6Sp9ydKeuzfrN2piRIxzwECOmDBqorT4UHqF5I9UA1RZ5iTqE6yKO6oFoPqrw+DVDw7zgB16QIKDUtj2oKqK7gb9px6QeocFoNqeUe1R5QXcG/IWBHP5I8TW7EX0NUlBKoRyWQNqFelL16PKq0TmXEfldH9Z7zdwV/WwR/GVI9UMNOnmJ6T7k7U9SjCryqlkd1WIV/B1yTIqDU5LUp9apaa1Sne1RX8AcyaGKSBKkU+sMTVAnS//6fDGm98qg+QXUF/3AQ/L2QOgVUB8lTruBvvTxlRPDvMB7DPQJKzQmh30Ggujpq6EElkDamgNJrIKCaoqO6gr+ro6or/GVInQOqPTqqOOvXXqO6HtV6j6qloxJInxr1fyCyxm88BNSavPEQcPbmQ9DkzYegKbG/QdM3GRv9N2gmtL9D5Oi/Q+R/xdb8v3+H5mPQHuYsaszDQOythyGKtbcfhui3/6G2d/4BMYzFvvMPkOwRiH3Xa3HvPgKcvfcIxL33CMTL9ijEv+ex9x+FBA1LHPsoJI79p7Z98E9IVNljkPTBY5D0IWuPQ9JHj0MLDWs57nGQrAG0HNcAnqY2vgE8zVir8Q1AsobQaoLXWk9oCJxNbAhtiDWCNhMVltEI2grtCWiX8QS0yxRb+8wnoP0k1p6E9pMk6zDpSegwWWFZT0JH2Z6CTllqa/dBY4h4pFEMuObeAycz8P8fC9YV3ncQZQAAAABJRU5ErkJggg==;" parent="0f2K5YkPgI1Y6RwSM53R-47" vertex="1">
          <mxGeometry width="79" height="79.47" as="geometry" />
        </mxCell>
        <mxCell id="0f2K5YkPgI1Y6RwSM53R-46" value="&lt;font style=&quot;font-size: 15px;&quot;&gt;ZooKeeper&lt;br&gt;Clusrt&lt;/font&gt;" style="text;html=1;strokeColor=none;fillColor=none;align=center;verticalAlign=middle;whiteSpace=wrap;rounded=0;" parent="0f2K5YkPgI1Y6RwSM53R-47" vertex="1">
          <mxGeometry x="9.5" y="89.94" width="60" height="30" as="geometry" />
        </mxCell>
        <mxCell id="0f2K5YkPgI1Y6RwSM53R-48" value="" style="group" parent="1" vertex="1" connectable="0">
          <mxGeometry x="1330" y="230.06" width="79" height="119.94" as="geometry" />
        </mxCell>
        <mxCell id="0f2K5YkPgI1Y6RwSM53R-49" value="" style="shape=image;verticalLabelPosition=bottom;labelBackgroundColor=default;verticalAlign=top;aspect=fixed;imageAspect=0;image=data:image/png,iVBORw0KGgoAAAANSUhEUgAAAKkAAACqCAYAAADWQW+BAAAgAElEQVR4Ae2dh3sU5fbH81f8vNerVwGVEtITkN4TQkKvAoqi3utVUS5WVEoCAdITElIIhFD00ouUgPSmEqRIFQSkSRcFRLHg+T3nnX1n33fmndnZ3ZnZ2TDrc57ZDbhJZj+c857ve95zIrrkPAVdcxrzltsYunqsW25j4CyvCSSLLL8JpHDWFFLyJete0BREllrQFFILm6msR2Ez6FGktEhIK/JYcSSkMZZeHAmyTY+E9OnNifWc3hxkK2kOPT3Wq6Q5SBYFvUqioFepZL1Lo4CzGVHQe0YU9JkRrbayaOirshjoVxYD/crV1r88BvpXUIuF/hWSDaiIBWKVsTCAsYGVsSBZHAyc6bVBM+OAs6o4GFQVB4Or4nmbFQ+DZ8XDEJUlwJDZCfCMhg2tTgDJEmFotdeGzUkEkQ2fkwTDa9T2bE0SEJubBM/K1gKem+uxeS3gOY+NmNcCOJvfEkZ4bEhpEkQgpHqgcoBSYEWQ4tc4SBHaUIEqQYqwypDicxdUD7Q2gioDSmH1D9TBLKT1ClTGm1oNqtqbood1PSr1rmpvirAaB1WCNFvypPXOo7qgesN/IKFfDvsY/r1hH5+Lwj5+TRT6xWHfOKheSJ0CaqHJa9R6B2ocDKz0rk9xrcqtT/G1mWtUB4DKQ+qCqkqmuCSKJlU6yZQ9od8HqB5ITUumQgwqgbQzwsmaJ5Hya42a1wS6mZlMOcijuqAmwDMaoA4zKfTLGT+uVRVZvwwpgsrBagBUlKhUmb+ZoDpdnkLPapI8hZJV/ZSnEoOWpwaVJEEEBZReZa/qgippqHo6qomgujqqOJkSQup6VElPdQV/Zwj+EqTTniShnnpSevXHo6rCPi4FHB/6XcGf7FIFIk/NprtSwclTqKX60lG9kD6IoNY7eQq3UW2Up2wClUDaCQGl5kmgqDf1N/SHnUd1QXW84C9DqgeqHPZdHVWlo2JhikqicrqOGmaC/0DM7hFQaloe1QVVO5lSQerJ+LXkKVfwl7ZVjW6hDixJ5CG11KO6gr9c7vcggRqs4C9BOtXrSalHNQSrq6PaqqM+qII/gbQjQqoHapDJlLszZd7O1IMo+A+cnggRCKkLqlTpL1f3Y6U/k/m7hdOhq/AfwEKqBapWMlXv5SkCqiv4h1rw90D6BPGkeh71gQWV8aZuhX9ozkwxkLqgsgf78Lkc+l1QQyr4KyANHFRXR9XWUV3BX7se1chRFAJphykIJ2tSIuXvGtUFVRtUV/APHFQZUseA6gr+ruCvON8/oDgRIhBQav54VFfwN6kBhYmF0/VR8B9QnMBD6q9HlUF1BX9vE4pAGlCYCGp9E/yFkFoN6pCy9pBX+wHM2DQZZmzWsyyYsTkLypS2JQvKPJaz7l2uSwp2TBG188GvPagtfXI2jIHZu7J5250Nsz1WvTsbJMuB6t1em7M7B1ibuXMSjFrY0/aWPgOKBJ40kNBvVEcdWtERrt2+DGY9Ltw844HUbemj7D9FPerh7+vMut1w594teHfZEFtBJZC2Z9akFFB69WeNagTU8i1TTbth+EY8pCEC1eE6qpmQ4j1fc2i+uQ0ofFT4S5BmNQK7QJ27q8RiSF1QlR7VbEg3H18udU2xqVPKgKJ4iGiPkNoAKuqoepD+9ddf8Ndf9/2y8z+cJp38Aurm56AGFFYK/ocu7vHrnkqfwV+azkSG1KYK//4cpDaA6gvSXSc3wjMVHWBQWVtig8vagsrK28EQjw2c0crbKzWQtpMOAtUqwf+56vYwcm4XeBFtHrWu8OK8rvASa/O7wsvzu8HGY8sAHYbWQwSplS191JBaDKoepHhT8OasPrAQUvKa6TbxNfW49AMAKl0C0GRK6paibuS75KuZcP/+n1p8kq9zkDLe1CpQxZCS8O8V+GkSRa/+JFOyjuo5Mq2E9C+Q/mPvCoK65iAPqls4bV7htEjwH1ARByJARZ8PQmp5Nz8mmSKQtiNQetal3HOTQRWsSX/9/Rc4fGG/KrxIoC6C7vnNZY/qgmoeqKxHHVAZLwH6133WV5DP5Lsb38BPv/zAfZ1CaheoEqSTG4FdoCo96c/37sAzZR3hy1PbhKBi6E91QfUem9Y5Lt1H1b/fd8dpbCax+KtKuC8A9MSVr+GVj7vDlVsXNSG1A9R+mDi1Q0j1QDVRR527k5egENK+xS0grSCGgMrdDbpGPciDGnYNKBxa4Y8hXgQofgYnrxyCkTUdYdjsp8WQ2tgppV8hC6kNoIog7VPcgvSiSiuIhT2ntys5lZKpcAfVYYJ/fwrofT7EU0BfqOlIJqIMm6UFqX0tfdSQWgyqHqR4Ziq9ME7To2Iy1T0/Ul6jhp1HdQio/ctjhWtQL6Cd5fE9Ikg3YeJk4/geMaQWguoLUhT8exbGa4K69uvFkGInqA6Sp8wQ/PuVxcJSlJkUa1AEFNegI+d28jTzleSpoQJPipDivCl5xpTFoZ9A2nZyQ2lNinCyxmX6TPYfxBrVF6T0BCqCuufUNmHoX3vwwQU1OME/BpZ8VQX3BSH+BFmDdgY268dhaHqQGgY1yB7+MqR2gaqG9Db0KU5S9UelHlVrjerTo7oV/ooKf21AT145DC/UdJan+LGg+oLUDlAlSCc1BIRUAlXgVbU8apb/OqoQ0qIkzdaTuEatO71DKE+tU4R+V0cV66g4+GypwIOiFv3t1cPwwpxOMqB0Z4oK/kNntVRl9zTc2zVisi9m920RUptArVFJULehd1ES6epHSv0EFf7pBbE6oC5xdVRl+0lm2ETfMkySqlRrUAQUPeiI6o66s1CFkB5bbuss1L4FLKQ2gKoHqbyF6ieoGPpTC6LkrD9Yj5paEAkDZrSENz4eCNnr3oHZO/JgcV0VrNg/D5bvq4FPviyDsi2TYcLKV2FkdQr0KUkgA3ydNrS3XxludeoB2sEzwFd7xOTQKoEnpZDi4F5mYK839JsrT/UtiGM8aTAe1WAyZQhSjdbo1KMqsyn0CkpQ/ZWn0ouiYdSCgfDJF+Vw9PsDcPe3n0lVgfJ7KV/j9752+xLsOvkZFH82Dp6r6hTEdGnzWvoQD7pXDSj+/JIHpYDSSdNiUJ/RgBSTKrumSxNI21A42Wsga1QDoJZuyoKrty7J9t21k9CzMEFu4it7Ux1Q957ZqWSFrFlxjZqa7/WoRkDtW5IEpZsnwamrx3xW/6i+qeALd3+7AztPboCxS1+AntOjGWANjEE3SUftOyMGFmsA+u3VIyTEG+2POmRmCzh26QBcv3NZthX758g6qh2g9s2PgwiEVB9UhTQVhI7aNbsJdM+Lgu550ZLlRgnbTuodRUF5CpMp5QO9WtnmKdA1p7Ec+rVA7VEQBQUbPoJLP55Xvo0pr/+8/yd8fWEPvL/0edtBzal9W7UGxV8KPejz1Z0UWT/1pPSq9qgIKnpUDP24Rh08M1GG1A6PykFqF6jeUr/AO6X0KkqAOsUW6v6zXxA5i0CqA+pLc9Lh0Pk6lWKgRyfWWN7741f47Y97fv1/f/z5O2w6tgqGzWzvgdV6jzqwIgl2nqzlfh0loH1mRBNYjXpUmvWz8hQCSk3fo/qYhcrUpJIOflXxXO+pPsSTZkqe1E6Pag6oXo+6/+znPKAIqQrUJpBf+yHc+fUW9wEqX/x87zbUndkONbuKSHL0r5qeMKSiHQwqaw2Dy9vAszM7w5ufDIbc2vdg5b55cPLKEUDPqfVAD3/19iX4aPm/bAEVBf9BDKgE0DmdNEdMOgJUHcHfA2kDaBOuoBbGw4LPy6B3cSLgwF6tob1Yl7rsqxr48/4fQpbQU3713S6Y/Olo6FfSgpybSuGOozSVz/crz/X3KGwOL8xOhprdRbrLB/TCs3bkQlpRc+hRZK1HpaAurCuHEbM7SqV+OmV+TgaVgdQDKgOrrJ/ShCqQZCoAwV+3NbogoZIbpWn08O9REA2bjq4Shmn0cocvfAWjP3kGUvKaes9L4TQ/DlJjp1B7TY+B/PUfwOWfLgq/H25JLts3B9KLo4yBanbHaRM7pVDBX+soilnyFIG0dSYCSq0h51UdCapAR9UCFT3oxqOrhN4Tw3rRZ+MhJb+Z6SMm+5YmwuK6WfD7n7+pvjf+w1ixb269ADWwNap/OqoMaX0EtVtuE1hSVy3UO89e/xZeqk7jR6FbMAv1vSUvwI07V4SgLviilHhTQ6HfbI+qE/oDqfC3cgx6b0ycEFBqlnpUAzqqlFAFlvXTCiriVXOegpx17wsTmoPn90D/0qd5QHFgr0VDe3G9+t31EypQcX2cu/4948mUQyv8Sdgvj/GU+OHVaNZvzKP2zo+FiNYZXkgt96g2gfr8rO7CLP7AuS+h9/REnzpqssirBrBGpU3Shs/sSDYMlKTikuPV+X2Mg2qS4C+X/Ol4VHuSKd+geiHVA9Uj9oeLjtotpwkgjMrHqavfwIDSVpI0pZKnPJ7UQo86YlZXuHjzO+WPRSSs3iWxLqgzvROmB6F26rHeedSTIqT1BNSpq99RZda3fvkRXq7u6QVUqKNaCKqnwn/Ux/3h9q8/qkCt2VXogbSZsay/3nlUbcGfQNqKAkqvWmvUMPCouOWq3OrEoxIFG8bp6qjCyimz16geUPM3fKBaK9+9dwdGzOoig4pS1ruLnwNMrrAW4PDFr+DIxX3w+alNsHBPJXy4/CXoOyMOcGwPNX8Gosnhni3zC3noF4MqQ1pfQC1YP07lRXG7NCW3mQypluAvBNWCCn8U87ef4LctUZaqPbyEFKUUbRwH2IhNr90N/sO7fOsCzNw+DfrNSKjXoHogfRwQUsOgOlTw75rdGE5f47Po3//4DUbNHwRaOqq8z8+sUbVgNTOZQq+JSxD2gTtSuIWJwBp94N89fe04vLagT0CgCg/3OUzw75UXAxGtMhDS8Ad19MdDVWF098lN8vkpp4E6d3exX0DqgYv1CGOXveBIUIMV/CVIJ1JIwxvUFfsWcJ8jFn28s/AFGVKljqq314/e1GqPOqi8Ffzw8zXuZ1a+wJD/490f4MTlQ3Dk4lekDhcrq0QPlLNe/7ifeaDqrFHtFPx7Ek+KkDoF1AB11K45TeH7m+e4z+7izXOQnBvJQeovqFr1qGaFfjyWgp3rlA9S8HJ2l5QglcbL8lTP4mh445OBsOnYSuGW67kbp2BAeYt6BSqB9GkKaRiDOnJWGuD6k30sqZsjnUL1Y69ftEa1EtSXa9Q/N9atVmzNgp6kCAUlKdY81VPFzWHy6jfg9q8/sb8yWT4s3FMhQ1ofhvbKkAYNaojlqSmfvq34sO7D+4tf1Dwq7SSPuvc773EYXKLM2DyJHOxLLWwGvg73ZX76GinEZn95BPfZWR3rDagcpOEM6uI91eznBPd+/xX6TW/lPSqtV+KXLdWh+lqjWuVRh1a2hw2Hl5LjJsUbJ0CPouYypD5BLY6EFfvncr87ZvxzduVDej0R/HvmxkAEwskaWZ8GGvpD5FF3n9zMfVBXfvre0OE+OeMPMai0kDo1gN5Tw2d2gNsKOev0tWNkQl8woDpF8BdCGo4e9cTlIxykB87u4SDVO4UaNKgWCP7oQZWmF/o3HFnG/f4YSV6uSYV0RYmfv2tUJ4AqQTqB96TUqwblUW0W/JWZ/bbjtcJTqIZg1ajwZ89MWS1P0eopo6BmrHqN01wx5Geve0uCFEFVwOrPFmqoBX8CacsJj8HTYQxql2mN4cpPfMvsDYdXQMepT+qDGmTW7yRQsRTwt9/vcd50yd5Z0HN6VFiAqif4y5CGK6h9i1tB0YaJgAUa7GPb8fUE0gcJVOXGAB5dOXxxL8zakQ3Pz+4C6cXNzfeoNgj+6Zg4IaDUwsGj4qieASVtYWldjUonpKAePF8nQ6oFql4DCnmdaiD0W5X1y8kUTpg2sEb99gq/Lqf3Aq845WX7iXXw1qJnPAlVYNVTwtBvMagqSJ3uUTtNfQry1o2DH+/eYD8D1fM9p3eAmUdRQiVP+QOqMnlS3RQA+OPPPwisL89NDRsdVQipZaAGKU/1yIuDzUfXcAmC6IPA6qI3FwzzQPrEA+NRR8zqTPb3RSdUlfcJ71HplgzoVRItwxp0MqXjUYM5iiJBOt4b7mnYdxqovYtawuEL+zQBvXHnKqw9uAQyVoyG/tNbAy4JvF1SAgdVDvthoqNik7SR1cmQU/subD2+RjfiYH0Aet/+ZYmOBpVA2gIhdTCoqblxmoBihz5MnNIL4gmYdLQkvT6IoLJ7/YPLW0He+vc161RRqvri9GYYUJ4UEKh26KgypE4FtWPWU7D56FqVB8Vx1xsOrYBehUm2jUGXvWogyVSIBX88jjJt3Vtw7fZlZeQn93brN2ugd2msI0FNz4mBCASUNTbk0+ehyvrz141XtTHEIoyKzdnQIesJCVC5p7//PfzNbunjZME/rSgSBle0Juek0IOyD3w9eyfu95uY9ZtU4S+ElHhVRpYKFaj9p7chBb/szcSzPeWbs22bhYrVUkrzx6M6SfCnnVKwBPDTgx+rohPKVK9/3JcrTAk6mTIBVA+k/+Q8KfWqFE72aqdHXVY3j+WTPN9waKV31pTsQZkZU+RrgXtUHB35THknGFrRGYZRq+wCwxgbjs8rOpGu0lSawitXi2rzmSkjOqq0VpXqUXEnasvx1ar7W/fdNlVhStCg6mT9Rir806Rwj5A6C9S+Ra3g1i98Qe/1W1cgLS/BC2kQHae9CZXU0gfDftanb8H121dVHkb1SXoG83575SiMqEoO7BSq2celDQr+LKiDK1qRU6ns74dd/8YsHOLZmTIx9AcBKoE0aRyF1DmgFq/PZO8deV5QOx7aiab3aXlUP46ivLNwJOnkrPqmPr6Ajc9w1pQRj+qUnSkW1Mlr3lCt+VGWUhak+Fs95e/OlJ6OKkOqB6rd8lTbyU/A/rN8m5wf7lyDlNwYz0A083r4o0fF/v2nr/JHoX2wKf8xJhzVO4ukI9OBZP0h9qjY3ufU1aPy74NPsMMKft0poKZlx0AEAkpNCvtqj2onqKl58XD33s/cjVu9f5FiIJp5oGauHG0oxHM/EPPi+u0rkFYQ4xxQ/Sycxu7Tysc7i4dLkCpK/ELhUVWQOsGj/rt6gPKewfilr0uQYtdpueO0f6B2y46ED5a8Av/7ogpWH1gEa9AOLoLzP5zhvh+eESqoHQc5a8dCzjrecteNhV0nN3J/HxUH/BqO6AnYDi2BdZq2mDTkHb/iP5BWGC23RU/Jbwp0b1959afC/7UFfeEPRZv2qu3ZkEbrUIMENVjBPy07mvekTvCok1e+w0GAIfWZGV28kAYA6r/n9IMzV08AbgL4eizdO1fe7xfpqC/P7qk6/ObrPc34c/zZcd7Uv+f2NhXUATNaAG4rs48NR5YSSJ0AKoE0kQn3FFJyJRm/OvRbraOWbZzG3i/45be70CMvgYeUA1V/aO+/qvuqWtpw34B5gf8gXqnpL0MqKvPDEr9vrxxj/i97n978+TrgRBT0pNSUnpS+Nlrhf/rqce6X2Hd2lwwpB6rCqwYtTxnQUdOmRUMEQuokUGdtLeRu2E+/3ITuubE+BqKJQU3Ni4Wz109x76f3AgcyYCIlSVTaHacX7Zkd1DpW72cw8mc4lqdXcbwMqW7oNyBP7T/3Ofdtv7n8NQdpKEGVIP1IglQLVK1kyiqPOmtbEXfDsKyse24cgVS/ka8a1Mot6qQAG4P98PN13u5cg2PfH4RR84cYqp7CqXx4RAWTJtV7Kd+beY1e0F/D2lnlnCj0+NM3TgRpjE/wHnXPmW3cPT917TjgNirCyRrJ+OlalTkyHbRH1dFRexBPipA6CNTKLfncDfv53h1IzY33eypK52lN4ez109x74WBbrDVtj/v+fuioGPZFoV/vYJ9ZDSi650dC2eYslZ75zeVDgBOlzQB139nd3H3C3lMEUp+gWi/4eyB9VILUIaBmr/mAu2HoNQaVdJIg9eMU6rDybqoPFjP79qz4HyagJuc1hYOKFuu//PYLDJ/ZyQOpsTlTWmvUk5cPc/ccJwzSvX5dj8p4U6vkqR7ToiAi8SOENDhQzdRRR80bxt0wfPHh4lc9s6aMj5h8b9HLqvd5fd4QHlIENkxALdmk3oXDHvxnrp8QGnrHtxc9q5KplKD2nh4HV27xp22xIRq7MxVKUBWQOgPU9LwklcSzYu8CfiCagaMoGctHqyB9rjJFDakNoMqVU0FU+GesGqX6fXx9AXfqhpS3UYPKCP7Pz+5GDuqx7zV3dxHTKM3aEZO+tlAJpAmyJ3WGR22b+QQcu/g1e8/g6k+XoMvUSL9AzVzxX+498MWzlSnaZX4We9RgQQ0EUlwqjf5ksApSlKio4D9lzRhV+8kJK19hILV+2ISe4C9B+uGjoAcqp50ymqpW1m9G6K9SyFB4szNXjCFD0biBaDoeNUMEaUWKVEXFrkvZ5w4GNWPl66p/dL6+gMoITpamuqnyiqAq+/fj7tPAspYKSEMHaiquSRMQUg+oQlhDoKMOKulMOuOxH8KFH76DTlOaqkHVSKZ0IdUr83PA0F5Rhb8I0kMX9sIXp7YQO3xhr0q73XXyM1lLVQKKr1+s7g6oeLAPXMtifape7yndNarJgn/qVBZSB4GKM6U2HVnL3jvyfMHuCsMjJn1CaieoJlT4iyB9bX5/ebJ0yaZJHKQYfaaseUuGVCn4pxY0I9OrlTc5u/ZduRmFE0BVQyoENTQ66ojKNLIlyt5EnMc5dvErhkA1BGkYgSqC9FUG0q/P17G3Cn66exMGlbXW1FHx2LNyk+DyTxegd0m8DKkTPGp39KTxNNyz14+U69TQgPrJ51Wcd8BPAcX9MR8/7xNUMaTJlhVOWy34TxSsSRHSbnlNYFhlJ7j3B9+wTAr1qJ9S8+5MYRe+XxRhHj1v/oaxHKD0WEpwHjU4wV+G1Kmgdp0WBce/54VmBBXXUdNWj4W2k57QXKOKIB1ekewpnFZvobZjEyj2ucXJlNGdKSGk8/qR6dIlGzO5f8xSqB8DyTKgEqg9i2KhemehSuLDe1p3ZjukF0WBUkcNGtQgBX8PpI8AQqoFqlfsD42OOnRGN7hxmy8lw5uKoQrb7gwu7awGdVJDEEJaLkGKNantMNQrjYWTfe4AUPUgPXhuD94S+YFZ/cAZraT1an4T6FUcB5M+fZMM20WAlY/vfzwHz1Z1llUAJ4EqQfoBQupsULEQGtdYosedX2/Dqn3/g5FVPTkdVRNSrszPOaD60lG1IB1e2Ql+/e0ud2twHimO8XmpOg1W7l8AuNbUqqXFhhGvzu8rA0pVAKqjUk9KrwGH/gA9qhfSMAB1ZFVvIupznwbzYkndXM6jZixXi/nD0ZMipGEIqhakxZ9NVIX6rNVjCKRjl7zI/Rlzu8jTM9dOwMs16SpAnQRq9ymYOCGg1AL0qHYJ/r0KnoavzvAVO3i3MYS9MmcQl0yJtkU5SMMMVC1IDygKTzCy9CtpQSAdXNZO2MMVl0qrD/4P+pW2kCUqCqbyGmqPSiCNo4DSKwFVCv+y0E8zf1XW71mn2ij4t8lsCNmrPyRHHuj66tyN09BxShMZ0taZDcAQpByognUquy7lngfegALL+1jTauYrh3/PKdQJguwet0qVYvyOE+tJMoVZP1ZPHb90UHagCOeXp7fC6wv6C7N+JaD0telrVD8E/+5TmkMEQhpuoOLA3m7ToqHksylw7sYZmLtjBuAGALHMBgTWiYICk2HlyQFV+HPlfTKsJoPqQ/AXQVp7aKkMII0okz8dLUHqOS698MtKwLD+8Rfl8GJ1DzmZ8kpTwZX5BbxGNQgqB2lwoIZGR0VY2056EjpPifRCirBmNgA9SP2t8NeUp8zeQtUBVQQpHq1hHzg7oHdxvBfS3MbQozBKApN4VvSuHlPIU/S8lHJninpTvIbCo6ZkMZ5U26Nqy1P8Xn/oQG2V0QDQZG+aoQFpWbLfFf6yTCV7UEXvKZvkqQkrfBeYbP+mlgNU7ppCwVReHQOqtuAvQTpWCvcUUrFHDT9QhZ6UQqpRlMJn/X6sUW0A1QikmaveFI9AD3GnFJ9HUXTkKS+kQYIaasEfw75kXo+qDWkDzpvqh37n6Ki+IMVtzp5F8QRSYcvJMAWVQBo79h8Qh5DWM1D1IQ0/UH1BilMA5faTuY3t8ahMhT8V+/EacDIl8KgypPUR1Ami7L4smSRVRgunA23pQ3v2K6/elpP+D5vwBSkJ9dgXlVo9AZWDVAtUWejndFTtNapW6LdL8KehXw9SzP7DDVQ9SO/8egt6FSV4AfUFaoh7+PuzRk3G7B7hZE0O/Yrwz8HqcMEfQZ2w/E1WnSHPh3k8KUKqAtXsZMpkeUoP0q3H18k9UmVPqgBVuE5VZvv0tWOy/kiQIH2fh5TzqA4HtXVGI3hz/nPQJqMRKKdLa0Lq0VHDDdQJy19T/aOjX8hYOUqGlLZG75bTBN5bNBJSC6LkZCocQU3OioSIWIRUD1TPjhSVqAL3qObqqK0nNoKaHaWkZG/Brkpok8mDOmGZhieleqrHm4aLR9WC9Nbdm9C7OJHrj4retHJrNuBJBmxHGc6gdpscCRExFNKgQNVeo1oh+Lea2BDmbC8F7PGODyxDU4IqgnQohnsKqZ0e1QQddbyGJ916bK0EKJ7pz5YGTFRsnUYAle7NX7BWAaos8qMsRY2GeuU1xKFfhjScQG01sQHM2V4iA0pDHhab5K0dL4d9LUiVO1M07FvuUYMEVQvSiStGyWN8EFJcu6IHZR94bxDU7vnN5dAvw0khdaiOykFqNaiY9Y9d+B/YfGQtbD6yjtjaA8ugw6Qmcjt0VgEQnetvOf5xyYMKmuEevXgQeuQm6kK659QO2HKsFrb6aduO1YLKjtcCapPbjq8P2rZ/sx582dGLB1juyPObP9+APsUtZEjxKEqvwnioO71D9XcR1HVfL4GU/EjDoPYoiIJPD3wCWERNzcxuflIrHzzTr32uXwWp1aDO3G0h0NMAAAllSURBVFLA3TysfewyJVqzPyoLqgRoiaoJGb4hfoA9cpOAnTMl8qTcN68HL7YcW8MBSs9LoRy15/R21W9IPapRUPFMFFb1s4/aQwi6+nAfW4jCPg+2HtUD6cOAcLIWfDIlXqNW6kCq1x8VAa0mIf5P9n6R59SD0qFoFNRxS/zvnaR6c4d/YcLy14HUoyqqpzDs9ypM0PSoGPqNgOobUoNlfkHsTEmQvoeQBgcql/Gj6K9R4V+5WeBJs6Ll/qhsuKfPW4x7jACqPCOO/By9+DWk5iQABZReEdTBpV1Ux3wdzpxfPx5OqEYQ9Yqmsdlv3ZmdqvclHvXgYkjJa6Yd+vOagBakylOohsr8AgS12+RmEBGNkAYKqp86qhjSKG/rSUWFf4txj8PsbeIkCT1oyrR4MnKSwsleEdT3F70Ch87vI810saGunp27fhqCshunAU8IWGnnPe+/77vd8Nq8gYYq/NMLYolHRTDZBwUVm/SifkqNTajSi2LhkiDck5pUOeT7EfoNtEb3rlOlbn4ypHaBqg8pfxQFQ/zsbdOFWfyRCwcgOVsC1CmzUAMu8zN5ZwrXpUrTAxXHBLFZPyv4pxfGwqUf1WtSOwunOUiDAtWg4G8I0o9w4snjMGtrsSag1INSQOmV9aT0OV2j0h0pem018XEgJijzk7XUMBP85fbomqBuV50eRY+6+uBCoeDvE1LUVC32qF1puEdAqQUc+n2C+iiIIO2cFcW1nmwxrgFUEUDVSRLxoNNiPQN77R/fwxWlmL3XH6SOSg/3aa1R0bviFGoteQpB7V7A66iGILUYVCGkVnpUPUhxZypp3GNCD4prKQLo1DhZU2XlKepJ6ZV6UfYaFh7VBlBxYK+WPLUGQWUEfxGkOLlPDvfs7pRFHrXrJE/iRL0oe7XCowohnRxF+qPiBJRZW9QhHgE9fGE/SZJoxk+vWqCa0cjX8M6UTiNfJ9WjsutUzPq/PMWPxcH7jKEfQU3Jl7L+NMGaFCGVjkszh/oorBaASiCNetcb6llIrfCoepBWbSkSCvWYnSdPizck+FNPilcX1Cd9ylOaoB5YSOQpTUjN3kLVkadkSO0CVQxpNCCgIh300Pn9kDw1XtZR9QR/yas+RiQpCqsLanCg9ipOUGX3xJPS/X7qQZXXQDyqBqgcpFaDioK/CNJFX84VAnrkwn7oNjXWq6F65kzRUK+8uqHf/4FouDMlrVHFoX/jkVWAmwbsQwmpqaFfAKoH0r9D1LtoDxOL1gj/Aa9RGcFfCSmugdDYB74+fH4/dJkSw2X90rEU/RGTSSEa2mtp1m+2jjrtSZWOiln/nlPbhJ+F8vPhILXCoyoEfwWk1oOqhJSFE5/jDcE1aJesGMcNmxA1oLCtzM9sUAU6alpBDEmmlFAqPyOElBX85R0qZcinrwMJ/QyoAkgtBFUQ7tkbgDcH9+JTpiUAaqXExjeAFuMbQEvOGkLL8Q2h5YSG8PSEBrIkxYZ/rdBPEqoJjwn3+qnIz17rg+DfJbsJdM1pKlu3nKZALLcZdGMsObcZ9C5KhL1ndqk8Kvs5UUjtArULSlDN36Hhnr1aE/r1PClCeunHi3Dy8jHDtv34Z0JIEdh6CWoAOipWPJ2++o1h+/7mucAhNTvrL2gKMqS6oDK7UaxEFcgatXITXwXF/gsN5DkWjOAGgL9Zf1h7VD9BVfYvDeQ+s/8PFk6TE6k2nevvktlU8qQIqR2glm7IZn/foJ8TSD+SIPUX1AdFnjIb0lX7P/Ge77cBVBWkVoP6bFlP4eSLQGmVIQ1wDPqDAKqZkKKWPW7ZK15I8Wy/xaAKIVWDKq1PzdJRX60eBmv3L4PNR2pVtuVILch2tBa26NjWo7Ww+MsalY7qelSpuS9t6TN3VynsOPGZbDtPfAaBGB5VyVz1Bg+oogGFnOlTacqENaompFaDyjWgYKqnjFb401moTmnp45c8FWZ7/Sj4y+ZpjU4bUHDdUrQ8apAtfQikkZ71KIKpNEnktz7rV3b042ANg5Y+yraTYV+PKhD8/QHVTHlKgvTtv4ELqnfPny3vo8/DoszPBsE/FKB6IXUKqEzoF3ecNjoVxdyWPgirC6p0LMVuUDtnNIWISASUmiDk0yWAbaHfJ6ji49JYNG1FSx/qTcMGVD91VBzc2wnN4OgerEv1B9Rgkyk1pIF6VBMFf+X6VOxRXVDJwIkQD5sgsAaSTPmR9YshrQegamX9rjzFy1OSTCWV+DnVo3bOaAIRzWioV14DCf0O8qguqI2gvcWhXw77uASwyKN2nuiBNHhQzRX8tXRUf0O/C2r4gypB+tbfACENF1A5DVWnpY8r+DND0ZzuUXUE/07EkyKk1JQhn74OJPRbWOEv9qhG5Sm+Uwpbhyo/dyv8QWuNKjegsEnwV0Pq8aqyJEUhxasLqnzIj5Wl6HNXR7VGR/VA+pDXk4aDR/Wpoxr1qK7gH8ycKdmjCo6iyAmVgWTK1xZqx4mNIaLpWwhpfQPV1VHri44qQ2oLqA6Sp9ydKeuzfrN2piRIxzwECOmDBqorT4UHqF5I9UA1RZ5iTqE6yKO6oFoPqrw+DVDw7zgB16QIKDUtj2oKqK7gb9px6QeocFoNqeUe1R5QXcG/IWBHP5I8TW7EX0NUlBKoRyWQNqFelL16PKq0TmXEfldH9Z7zdwV/WwR/GVI9UMNOnmJ6T7k7U9SjCryqlkd1WIV/B1yTIqDU5LUp9apaa1Sne1RX8AcyaGKSBKkU+sMTVAnS//6fDGm98qg+QXUF/3AQ/L2QOgVUB8lTruBvvTxlRPDvMB7DPQJKzQmh30Ggujpq6EElkDamgNJrIKCaoqO6gr+ro6or/GVInQOqPTqqOOvXXqO6HtV6j6qloxJInxr1fyCyxm88BNSavPEQcPbmQ9DkzYegKbG/QdM3GRv9N2gmtL9D5Oi/Q+R/xdb8v3+H5mPQHuYsaszDQOythyGKtbcfhui3/6G2d/4BMYzFvvMPkOwRiH3Xa3HvPgKcvfcIxL33CMTL9ijEv+ex9x+FBA1LHPsoJI79p7Z98E9IVNljkPTBY5D0IWuPQ9JHj0MLDWs57nGQrAG0HNcAnqY2vgE8zVir8Q1AsobQaoLXWk9oCJxNbAhtiDWCNhMVltEI2grtCWiX8QS0yxRb+8wnoP0k1p6E9pMk6zDpSegwWWFZT0JH2Z6CTllqa/dBY4h4pFEMuObeAycz8P8fC9YV3ncQZQAAAABJRU5ErkJggg==;" parent="0f2K5YkPgI1Y6RwSM53R-48" vertex="1">
          <mxGeometry width="79" height="79.47" as="geometry" />
        </mxCell>
        <mxCell id="0f2K5YkPgI1Y6RwSM53R-50" value="&lt;font style=&quot;font-size: 15px;&quot;&gt;ZooKeeper&lt;br&gt;Clusrt&lt;/font&gt;" style="text;html=1;strokeColor=none;fillColor=none;align=center;verticalAlign=middle;whiteSpace=wrap;rounded=0;" parent="0f2K5YkPgI1Y6RwSM53R-48" vertex="1">
          <mxGeometry x="9.5" y="89.94" width="60" height="30" as="geometry" />
        </mxCell>
        <mxCell id="0f2K5YkPgI1Y6RwSM53R-51" value="" style="group" parent="1" vertex="1" connectable="0">
          <mxGeometry x="1250" y="350" width="79" height="119.94" as="geometry" />
        </mxCell>
        <mxCell id="0f2K5YkPgI1Y6RwSM53R-52" value="" style="shape=image;verticalLabelPosition=bottom;labelBackgroundColor=default;verticalAlign=top;aspect=fixed;imageAspect=0;image=data:image/png,iVBORw0KGgoAAAANSUhEUgAAAKkAAACqCAYAAADWQW+BAAAgAElEQVR4Ae2dh3sU5fbH81f8vNerVwGVEtITkN4TQkKvAoqi3utVUS5WVEoCAdITElIIhFD00ouUgPSmEqRIFQSkSRcFRLHg+T3nnX1n33fmndnZ3ZnZ2TDrc57ZDbhJZj+c857ve95zIrrkPAVdcxrzltsYunqsW25j4CyvCSSLLL8JpHDWFFLyJete0BREllrQFFILm6msR2Ez6FGktEhIK/JYcSSkMZZeHAmyTY+E9OnNifWc3hxkK2kOPT3Wq6Q5SBYFvUqioFepZL1Lo4CzGVHQe0YU9JkRrbayaOirshjoVxYD/crV1r88BvpXUIuF/hWSDaiIBWKVsTCAsYGVsSBZHAyc6bVBM+OAs6o4GFQVB4Or4nmbFQ+DZ8XDEJUlwJDZCfCMhg2tTgDJEmFotdeGzUkEkQ2fkwTDa9T2bE0SEJubBM/K1gKem+uxeS3gOY+NmNcCOJvfEkZ4bEhpEkQgpHqgcoBSYEWQ4tc4SBHaUIEqQYqwypDicxdUD7Q2gioDSmH1D9TBLKT1ClTGm1oNqtqbood1PSr1rmpvirAaB1WCNFvypPXOo7qgesN/IKFfDvsY/r1hH5+Lwj5+TRT6xWHfOKheSJ0CaqHJa9R6B2ocDKz0rk9xrcqtT/G1mWtUB4DKQ+qCqkqmuCSKJlU6yZQ9od8HqB5ITUumQgwqgbQzwsmaJ5Hya42a1wS6mZlMOcijuqAmwDMaoA4zKfTLGT+uVRVZvwwpgsrBagBUlKhUmb+ZoDpdnkLPapI8hZJV/ZSnEoOWpwaVJEEEBZReZa/qgippqHo6qomgujqqOJkSQup6VElPdQV/Zwj+EqTTniShnnpSevXHo6rCPi4FHB/6XcGf7FIFIk/NprtSwclTqKX60lG9kD6IoNY7eQq3UW2Up2wClUDaCQGl5kmgqDf1N/SHnUd1QXW84C9DqgeqHPZdHVWlo2JhikqicrqOGmaC/0DM7hFQaloe1QVVO5lSQerJ+LXkKVfwl7ZVjW6hDixJ5CG11KO6gr9c7vcggRqs4C9BOtXrSalHNQSrq6PaqqM+qII/gbQjQqoHapDJlLszZd7O1IMo+A+cnggRCKkLqlTpL1f3Y6U/k/m7hdOhq/AfwEKqBapWMlXv5SkCqiv4h1rw90D6BPGkeh71gQWV8aZuhX9ozkwxkLqgsgf78Lkc+l1QQyr4KyANHFRXR9XWUV3BX7se1chRFAJphykIJ2tSIuXvGtUFVRtUV/APHFQZUseA6gr+ruCvON8/oDgRIhBQav54VFfwN6kBhYmF0/VR8B9QnMBD6q9HlUF1BX9vE4pAGlCYCGp9E/yFkFoN6pCy9pBX+wHM2DQZZmzWsyyYsTkLypS2JQvKPJaz7l2uSwp2TBG188GvPagtfXI2jIHZu7J5250Nsz1WvTsbJMuB6t1em7M7B1ibuXMSjFrY0/aWPgOKBJ40kNBvVEcdWtERrt2+DGY9Ltw844HUbemj7D9FPerh7+vMut1w594teHfZEFtBJZC2Z9akFFB69WeNagTU8i1TTbth+EY8pCEC1eE6qpmQ4j1fc2i+uQ0ofFT4S5BmNQK7QJ27q8RiSF1QlR7VbEg3H18udU2xqVPKgKJ4iGiPkNoAKuqoepD+9ddf8Ndf9/2y8z+cJp38Aurm56AGFFYK/ocu7vHrnkqfwV+azkSG1KYK//4cpDaA6gvSXSc3wjMVHWBQWVtig8vagsrK28EQjw2c0crbKzWQtpMOAtUqwf+56vYwcm4XeBFtHrWu8OK8rvASa/O7wsvzu8HGY8sAHYbWQwSplS191JBaDKoepHhT8OasPrAQUvKa6TbxNfW49AMAKl0C0GRK6paibuS75KuZcP/+n1p8kq9zkDLe1CpQxZCS8O8V+GkSRa/+JFOyjuo5Mq2E9C+Q/mPvCoK65iAPqls4bV7htEjwH1ARByJARZ8PQmp5Nz8mmSKQtiNQetal3HOTQRWsSX/9/Rc4fGG/KrxIoC6C7vnNZY/qgmoeqKxHHVAZLwH6133WV5DP5Lsb38BPv/zAfZ1CaheoEqSTG4FdoCo96c/37sAzZR3hy1PbhKBi6E91QfUem9Y5Lt1H1b/fd8dpbCax+KtKuC8A9MSVr+GVj7vDlVsXNSG1A9R+mDi1Q0j1QDVRR527k5egENK+xS0grSCGgMrdDbpGPciDGnYNKBxa4Y8hXgQofgYnrxyCkTUdYdjsp8WQ2tgppV8hC6kNoIog7VPcgvSiSiuIhT2ntys5lZKpcAfVYYJ/fwrofT7EU0BfqOlIJqIMm6UFqX0tfdSQWgyqHqR4Ziq9ME7To2Iy1T0/Ul6jhp1HdQio/ctjhWtQL6Cd5fE9Ikg3YeJk4/geMaQWguoLUhT8exbGa4K69uvFkGInqA6Sp8wQ/PuVxcJSlJkUa1AEFNegI+d28jTzleSpoQJPipDivCl5xpTFoZ9A2nZyQ2lNinCyxmX6TPYfxBrVF6T0BCqCuufUNmHoX3vwwQU1OME/BpZ8VQX3BSH+BFmDdgY268dhaHqQGgY1yB7+MqR2gaqG9Db0KU5S9UelHlVrjerTo7oV/ooKf21AT145DC/UdJan+LGg+oLUDlAlSCc1BIRUAlXgVbU8apb/OqoQ0qIkzdaTuEatO71DKE+tU4R+V0cV66g4+GypwIOiFv3t1cPwwpxOMqB0Z4oK/kNntVRl9zTc2zVisi9m920RUptArVFJULehd1ES6epHSv0EFf7pBbE6oC5xdVRl+0lm2ETfMkySqlRrUAQUPeiI6o66s1CFkB5bbuss1L4FLKQ2gKoHqbyF6ieoGPpTC6LkrD9Yj5paEAkDZrSENz4eCNnr3oHZO/JgcV0VrNg/D5bvq4FPviyDsi2TYcLKV2FkdQr0KUkgA3ydNrS3XxludeoB2sEzwFd7xOTQKoEnpZDi4F5mYK839JsrT/UtiGM8aTAe1WAyZQhSjdbo1KMqsyn0CkpQ/ZWn0ouiYdSCgfDJF+Vw9PsDcPe3n0lVgfJ7KV/j9752+xLsOvkZFH82Dp6r6hTEdGnzWvoQD7pXDSj+/JIHpYDSSdNiUJ/RgBSTKrumSxNI21A42Wsga1QDoJZuyoKrty7J9t21k9CzMEFu4it7Ux1Q957ZqWSFrFlxjZqa7/WoRkDtW5IEpZsnwamrx3xW/6i+qeALd3+7AztPboCxS1+AntOjGWANjEE3SUftOyMGFmsA+u3VIyTEG+2POmRmCzh26QBcv3NZthX758g6qh2g9s2PgwiEVB9UhTQVhI7aNbsJdM+Lgu550ZLlRgnbTuodRUF5CpMp5QO9WtnmKdA1p7Ec+rVA7VEQBQUbPoJLP55Xvo0pr/+8/yd8fWEPvL/0edtBzal9W7UGxV8KPejz1Z0UWT/1pPSq9qgIKnpUDP24Rh08M1GG1A6PykFqF6jeUr/AO6X0KkqAOsUW6v6zXxA5i0CqA+pLc9Lh0Pk6lWKgRyfWWN7741f47Y97fv1/f/z5O2w6tgqGzWzvgdV6jzqwIgl2nqzlfh0loH1mRBNYjXpUmvWz8hQCSk3fo/qYhcrUpJIOflXxXO+pPsSTZkqe1E6Pag6oXo+6/+znPKAIqQrUJpBf+yHc+fUW9wEqX/x87zbUndkONbuKSHL0r5qeMKSiHQwqaw2Dy9vAszM7w5ufDIbc2vdg5b55cPLKEUDPqfVAD3/19iX4aPm/bAEVBf9BDKgE0DmdNEdMOgJUHcHfA2kDaBOuoBbGw4LPy6B3cSLgwF6tob1Yl7rsqxr48/4fQpbQU3713S6Y/Olo6FfSgpybSuGOozSVz/crz/X3KGwOL8xOhprdRbrLB/TCs3bkQlpRc+hRZK1HpaAurCuHEbM7SqV+OmV+TgaVgdQDKgOrrJ/ShCqQZCoAwV+3NbogoZIbpWn08O9REA2bjq4Shmn0cocvfAWjP3kGUvKaes9L4TQ/DlJjp1B7TY+B/PUfwOWfLgq/H25JLts3B9KLo4yBanbHaRM7pVDBX+soilnyFIG0dSYCSq0h51UdCapAR9UCFT3oxqOrhN4Tw3rRZ+MhJb+Z6SMm+5YmwuK6WfD7n7+pvjf+w1ixb269ADWwNap/OqoMaX0EtVtuE1hSVy3UO89e/xZeqk7jR6FbMAv1vSUvwI07V4SgLviilHhTQ6HfbI+qE/oDqfC3cgx6b0ycEFBqlnpUAzqqlFAFlvXTCiriVXOegpx17wsTmoPn90D/0qd5QHFgr0VDe3G9+t31EypQcX2cu/4948mUQyv8Sdgvj/GU+OHVaNZvzKP2zo+FiNYZXkgt96g2gfr8rO7CLP7AuS+h9/REnzpqssirBrBGpU3Shs/sSDYMlKTikuPV+X2Mg2qS4C+X/Ol4VHuSKd+geiHVA9Uj9oeLjtotpwkgjMrHqavfwIDSVpI0pZKnPJ7UQo86YlZXuHjzO+WPRSSs3iWxLqgzvROmB6F26rHeedSTIqT1BNSpq99RZda3fvkRXq7u6QVUqKNaCKqnwn/Ux/3h9q8/qkCt2VXogbSZsay/3nlUbcGfQNqKAkqvWmvUMPCouOWq3OrEoxIFG8bp6qjCyimz16geUPM3fKBaK9+9dwdGzOoig4pS1ruLnwNMrrAW4PDFr+DIxX3w+alNsHBPJXy4/CXoOyMOcGwPNX8Gosnhni3zC3noF4MqQ1pfQC1YP07lRXG7NCW3mQypluAvBNWCCn8U87ef4LctUZaqPbyEFKUUbRwH2IhNr90N/sO7fOsCzNw+DfrNSKjXoHogfRwQUsOgOlTw75rdGE5f47Po3//4DUbNHwRaOqq8z8+sUbVgNTOZQq+JSxD2gTtSuIWJwBp94N89fe04vLagT0CgCg/3OUzw75UXAxGtMhDS8Ad19MdDVWF098lN8vkpp4E6d3exX0DqgYv1CGOXveBIUIMV/CVIJ1JIwxvUFfsWcJ8jFn28s/AFGVKljqq314/e1GqPOqi8Ffzw8zXuZ1a+wJD/490f4MTlQ3Dk4lekDhcrq0QPlLNe/7ifeaDqrFHtFPx7Ek+KkDoF1AB11K45TeH7m+e4z+7izXOQnBvJQeovqFr1qGaFfjyWgp3rlA9S8HJ2l5QglcbL8lTP4mh445OBsOnYSuGW67kbp2BAeYt6BSqB9GkKaRiDOnJWGuD6k30sqZsjnUL1Y69ftEa1EtSXa9Q/N9atVmzNgp6kCAUlKdY81VPFzWHy6jfg9q8/sb8yWT4s3FMhQ1ofhvbKkAYNaojlqSmfvq34sO7D+4tf1Dwq7SSPuvc773EYXKLM2DyJHOxLLWwGvg73ZX76GinEZn95BPfZWR3rDagcpOEM6uI91eznBPd+/xX6TW/lPSqtV+KXLdWh+lqjWuVRh1a2hw2Hl5LjJsUbJ0CPouYypD5BLY6EFfvncr87ZvxzduVDej0R/HvmxkAEwskaWZ8GGvpD5FF3n9zMfVBXfvre0OE+OeMPMai0kDo1gN5Tw2d2gNsKOev0tWNkQl8woDpF8BdCGo4e9cTlIxykB87u4SDVO4UaNKgWCP7oQZWmF/o3HFnG/f4YSV6uSYV0RYmfv2tUJ4AqQTqB96TUqwblUW0W/JWZ/bbjtcJTqIZg1ajwZ89MWS1P0eopo6BmrHqN01wx5Geve0uCFEFVwOrPFmqoBX8CacsJj8HTYQxql2mN4cpPfMvsDYdXQMepT+qDGmTW7yRQsRTwt9/vcd50yd5Z0HN6VFiAqif4y5CGK6h9i1tB0YaJgAUa7GPb8fUE0gcJVOXGAB5dOXxxL8zakQ3Pz+4C6cXNzfeoNgj+6Zg4IaDUwsGj4qieASVtYWldjUonpKAePF8nQ6oFql4DCnmdaiD0W5X1y8kUTpg2sEb99gq/Lqf3Aq845WX7iXXw1qJnPAlVYNVTwtBvMagqSJ3uUTtNfQry1o2DH+/eYD8D1fM9p3eAmUdRQiVP+QOqMnlS3RQA+OPPPwisL89NDRsdVQipZaAGKU/1yIuDzUfXcAmC6IPA6qI3FwzzQPrEA+NRR8zqTPb3RSdUlfcJ71HplgzoVRItwxp0MqXjUYM5iiJBOt4b7mnYdxqovYtawuEL+zQBvXHnKqw9uAQyVoyG/tNbAy4JvF1SAgdVDvthoqNik7SR1cmQU/subD2+RjfiYH0Aet/+ZYmOBpVA2gIhdTCoqblxmoBihz5MnNIL4gmYdLQkvT6IoLJ7/YPLW0He+vc161RRqvri9GYYUJ4UEKh26KgypE4FtWPWU7D56FqVB8Vx1xsOrYBehUm2jUGXvWogyVSIBX88jjJt3Vtw7fZlZeQn93brN2ugd2msI0FNz4mBCASUNTbk0+ehyvrz141XtTHEIoyKzdnQIesJCVC5p7//PfzNbunjZME/rSgSBle0Juek0IOyD3w9eyfu95uY9ZtU4S+ElHhVRpYKFaj9p7chBb/szcSzPeWbs22bhYrVUkrzx6M6SfCnnVKwBPDTgx+rohPKVK9/3JcrTAk6mTIBVA+k/+Q8KfWqFE72aqdHXVY3j+WTPN9waKV31pTsQZkZU+RrgXtUHB35THknGFrRGYZRq+wCwxgbjs8rOpGu0lSawitXi2rzmSkjOqq0VpXqUXEnasvx1ar7W/fdNlVhStCg6mT9Rir806Rwj5A6C9S+Ra3g1i98Qe/1W1cgLS/BC2kQHae9CZXU0gfDftanb8H121dVHkb1SXoG83575SiMqEoO7BSq2celDQr+LKiDK1qRU6ns74dd/8YsHOLZmTIx9AcBKoE0aRyF1DmgFq/PZO8deV5QOx7aiab3aXlUP46ivLNwJOnkrPqmPr6Ajc9w1pQRj+qUnSkW1Mlr3lCt+VGWUhak+Fs95e/OlJ6OKkOqB6rd8lTbyU/A/rN8m5wf7lyDlNwYz0A083r4o0fF/v2nr/JHoX2wKf8xJhzVO4ukI9OBZP0h9qjY3ufU1aPy74NPsMMKft0poKZlx0AEAkpNCvtqj2onqKl58XD33s/cjVu9f5FiIJp5oGauHG0oxHM/EPPi+u0rkFYQ4xxQ/Sycxu7Tysc7i4dLkCpK/ELhUVWQOsGj/rt6gPKewfilr0uQYtdpueO0f6B2y46ED5a8Av/7ogpWH1gEa9AOLoLzP5zhvh+eESqoHQc5a8dCzjrecteNhV0nN3J/HxUH/BqO6AnYDi2BdZq2mDTkHb/iP5BWGC23RU/Jbwp0b1959afC/7UFfeEPRZv2qu3ZkEbrUIMENVjBPy07mvekTvCok1e+w0GAIfWZGV28kAYA6r/n9IMzV08AbgL4eizdO1fe7xfpqC/P7qk6/ObrPc34c/zZcd7Uv+f2NhXUATNaAG4rs48NR5YSSJ0AKoE0kQn3FFJyJRm/OvRbraOWbZzG3i/45be70CMvgYeUA1V/aO+/qvuqWtpw34B5gf8gXqnpL0MqKvPDEr9vrxxj/i97n978+TrgRBT0pNSUnpS+Nlrhf/rqce6X2Hd2lwwpB6rCqwYtTxnQUdOmRUMEQuokUGdtLeRu2E+/3ITuubE+BqKJQU3Ni4Wz109x76f3AgcyYCIlSVTaHacX7Zkd1DpW72cw8mc4lqdXcbwMqW7oNyBP7T/3Ofdtv7n8NQdpKEGVIP1IglQLVK1kyiqPOmtbEXfDsKyse24cgVS/ka8a1Mot6qQAG4P98PN13u5cg2PfH4RR84cYqp7CqXx4RAWTJtV7Kd+beY1e0F/D2lnlnCj0+NM3TgRpjE/wHnXPmW3cPT917TjgNirCyRrJ+OlalTkyHbRH1dFRexBPipA6CNTKLfncDfv53h1IzY33eypK52lN4ez109x74WBbrDVtj/v+fuioGPZFoV/vYJ9ZDSi650dC2eYslZ75zeVDgBOlzQB139nd3H3C3lMEUp+gWi/4eyB9VILUIaBmr/mAu2HoNQaVdJIg9eMU6rDybqoPFjP79qz4HyagJuc1hYOKFuu//PYLDJ/ZyQOpsTlTWmvUk5cPc/ccJwzSvX5dj8p4U6vkqR7ToiAi8SOENDhQzdRRR80bxt0wfPHh4lc9s6aMj5h8b9HLqvd5fd4QHlIENkxALdmk3oXDHvxnrp8QGnrHtxc9q5KplKD2nh4HV27xp22xIRq7MxVKUBWQOgPU9LwklcSzYu8CfiCagaMoGctHqyB9rjJFDakNoMqVU0FU+GesGqX6fXx9AXfqhpS3UYPKCP7Pz+5GDuqx7zV3dxHTKM3aEZO+tlAJpAmyJ3WGR22b+QQcu/g1e8/g6k+XoMvUSL9AzVzxX+498MWzlSnaZX4We9RgQQ0EUlwqjf5ksApSlKio4D9lzRhV+8kJK19hILV+2ISe4C9B+uGjoAcqp50ymqpW1m9G6K9SyFB4szNXjCFD0biBaDoeNUMEaUWKVEXFrkvZ5w4GNWPl66p/dL6+gMoITpamuqnyiqAq+/fj7tPAspYKSEMHaiquSRMQUg+oQlhDoKMOKulMOuOxH8KFH76DTlOaqkHVSKZ0IdUr83PA0F5Rhb8I0kMX9sIXp7YQO3xhr0q73XXyM1lLVQKKr1+s7g6oeLAPXMtifape7yndNarJgn/qVBZSB4GKM6U2HVnL3jvyfMHuCsMjJn1CaieoJlT4iyB9bX5/ebJ0yaZJHKQYfaaseUuGVCn4pxY0I9OrlTc5u/ZduRmFE0BVQyoENTQ66ojKNLIlyt5EnMc5dvErhkA1BGkYgSqC9FUG0q/P17G3Cn66exMGlbXW1FHx2LNyk+DyTxegd0m8DKkTPGp39KTxNNyz14+U69TQgPrJ51Wcd8BPAcX9MR8/7xNUMaTJlhVOWy34TxSsSRHSbnlNYFhlJ7j3B9+wTAr1qJ9S8+5MYRe+XxRhHj1v/oaxHKD0WEpwHjU4wV+G1Kmgdp0WBce/54VmBBXXUdNWj4W2k57QXKOKIB1ekewpnFZvobZjEyj2ucXJlNGdKSGk8/qR6dIlGzO5f8xSqB8DyTKgEqg9i2KhemehSuLDe1p3ZjukF0WBUkcNGtQgBX8PpI8AQqoFqlfsD42OOnRGN7hxmy8lw5uKoQrb7gwu7awGdVJDEEJaLkGKNantMNQrjYWTfe4AUPUgPXhuD94S+YFZ/cAZraT1an4T6FUcB5M+fZMM20WAlY/vfzwHz1Z1llUAJ4EqQfoBQupsULEQGtdYosedX2/Dqn3/g5FVPTkdVRNSrszPOaD60lG1IB1e2Ql+/e0ud2twHimO8XmpOg1W7l8AuNbUqqXFhhGvzu8rA0pVAKqjUk9KrwGH/gA9qhfSMAB1ZFVvIupznwbzYkndXM6jZixXi/nD0ZMipGEIqhakxZ9NVIX6rNVjCKRjl7zI/Rlzu8jTM9dOwMs16SpAnQRq9ymYOCGg1AL0qHYJ/r0KnoavzvAVO3i3MYS9MmcQl0yJtkU5SMMMVC1IDygKTzCy9CtpQSAdXNZO2MMVl0qrD/4P+pW2kCUqCqbyGmqPSiCNo4DSKwFVCv+y0E8zf1XW71mn2ij4t8lsCNmrPyRHHuj66tyN09BxShMZ0taZDcAQpByognUquy7lngfegALL+1jTauYrh3/PKdQJguwet0qVYvyOE+tJMoVZP1ZPHb90UHagCOeXp7fC6wv6C7N+JaD0telrVD8E/+5TmkMEQhpuoOLA3m7ToqHksylw7sYZmLtjBuAGALHMBgTWiYICk2HlyQFV+HPlfTKsJoPqQ/AXQVp7aKkMII0okz8dLUHqOS698MtKwLD+8Rfl8GJ1DzmZ8kpTwZX5BbxGNQgqB2lwoIZGR0VY2056EjpPifRCirBmNgA9SP2t8NeUp8zeQtUBVQQpHq1hHzg7oHdxvBfS3MbQozBKApN4VvSuHlPIU/S8lHJninpTvIbCo6ZkMZ5U26Nqy1P8Xn/oQG2V0QDQZG+aoQFpWbLfFf6yTCV7UEXvKZvkqQkrfBeYbP+mlgNU7ppCwVReHQOqtuAvQTpWCvcUUrFHDT9QhZ6UQqpRlMJn/X6sUW0A1QikmaveFI9AD3GnFJ9HUXTkKS+kQYIaasEfw75kXo+qDWkDzpvqh37n6Ki+IMVtzp5F8QRSYcvJMAWVQBo79h8Qh5DWM1D1IQ0/UH1BilMA5faTuY3t8ahMhT8V+/EacDIl8KgypPUR1Ami7L4smSRVRgunA23pQ3v2K6/elpP+D5vwBSkJ9dgXlVo9AZWDVAtUWejndFTtNapW6LdL8KehXw9SzP7DDVQ9SO/8egt6FSV4AfUFaoh7+PuzRk3G7B7hZE0O/Yrwz8HqcMEfQZ2w/E1WnSHPh3k8KUKqAtXsZMpkeUoP0q3H18k9UmVPqgBVuE5VZvv0tWOy/kiQIH2fh5TzqA4HtXVGI3hz/nPQJqMRKKdLa0Lq0VHDDdQJy19T/aOjX8hYOUqGlLZG75bTBN5bNBJSC6LkZCocQU3OioSIWIRUD1TPjhSVqAL3qObqqK0nNoKaHaWkZG/Brkpok8mDOmGZhieleqrHm4aLR9WC9Nbdm9C7OJHrj4retHJrNuBJBmxHGc6gdpscCRExFNKgQNVeo1oh+Lea2BDmbC8F7PGODyxDU4IqgnQohnsKqZ0e1QQddbyGJ916bK0EKJ7pz5YGTFRsnUYAle7NX7BWAaos8qMsRY2GeuU1xKFfhjScQG01sQHM2V4iA0pDHhab5K0dL4d9LUiVO1M07FvuUYMEVQvSiStGyWN8EFJcu6IHZR94bxDU7vnN5dAvw0khdaiOykFqNaiY9Y9d+B/YfGQtbD6yjtjaA8ugw6Qmcjt0VgEQnetvOf5xyYMKmuEevXgQeuQm6kK659QO2HKsFrb6aduO1YLKjtcCapPbjq8P2rZ/sx582dGLB1juyPObP9+APsUtZEjxKEqvwnioO71D9XcR1HVfL4GU/EjDoPYoiIJPD3wCWERNzcxuflIrHzzTr32uXwWp1aDO3G0h0NMAAAllSURBVFLA3TysfewyJVqzPyoLqgRoiaoJGb4hfoA9cpOAnTMl8qTcN68HL7YcW8MBSs9LoRy15/R21W9IPapRUPFMFFb1s4/aQwi6+nAfW4jCPg+2HtUD6cOAcLIWfDIlXqNW6kCq1x8VAa0mIf5P9n6R59SD0qFoFNRxS/zvnaR6c4d/YcLy14HUoyqqpzDs9ypM0PSoGPqNgOobUoNlfkHsTEmQvoeQBgcql/Gj6K9R4V+5WeBJs6Ll/qhsuKfPW4x7jACqPCOO/By9+DWk5iQABZReEdTBpV1Ux3wdzpxfPx5OqEYQ9Yqmsdlv3ZmdqvclHvXgYkjJa6Yd+vOagBakylOohsr8AgS12+RmEBGNkAYKqp86qhjSKG/rSUWFf4txj8PsbeIkCT1oyrR4MnKSwsleEdT3F70Ch87vI810saGunp27fhqCshunAU8IWGnnPe+/77vd8Nq8gYYq/NMLYolHRTDZBwUVm/SifkqNTajSi2LhkiDck5pUOeT7EfoNtEb3rlOlbn4ypHaBqg8pfxQFQ/zsbdOFWfyRCwcgOVsC1CmzUAMu8zN5ZwrXpUrTAxXHBLFZPyv4pxfGwqUf1WtSOwunOUiDAtWg4G8I0o9w4snjMGtrsSag1INSQOmV9aT0OV2j0h0pem018XEgJijzk7XUMBP85fbomqBuV50eRY+6+uBCoeDvE1LUVC32qF1puEdAqQUc+n2C+iiIIO2cFcW1nmwxrgFUEUDVSRLxoNNiPQN77R/fwxWlmL3XH6SOSg/3aa1R0bviFGoteQpB7V7A66iGILUYVCGkVnpUPUhxZypp3GNCD4prKQLo1DhZU2XlKepJ6ZV6UfYaFh7VBlBxYK+WPLUGQWUEfxGkOLlPDvfs7pRFHrXrJE/iRL0oe7XCowohnRxF+qPiBJRZW9QhHgE9fGE/SZJoxk+vWqCa0cjX8M6UTiNfJ9WjsutUzPq/PMWPxcH7jKEfQU3Jl7L+NMGaFCGVjkszh/oorBaASiCNetcb6llIrfCoepBWbSkSCvWYnSdPizck+FNPilcX1Cd9ylOaoB5YSOQpTUjN3kLVkadkSO0CVQxpNCCgIh300Pn9kDw1XtZR9QR/yas+RiQpCqsLanCg9ipOUGX3xJPS/X7qQZXXQDyqBqgcpFaDioK/CNJFX84VAnrkwn7oNjXWq6F65kzRUK+8uqHf/4FouDMlrVHFoX/jkVWAmwbsQwmpqaFfAKoH0r9D1LtoDxOL1gj/Aa9RGcFfCSmugdDYB74+fH4/dJkSw2X90rEU/RGTSSEa2mtp1m+2jjrtSZWOiln/nlPbhJ+F8vPhILXCoyoEfwWk1oOqhJSFE5/jDcE1aJesGMcNmxA1oLCtzM9sUAU6alpBDEmmlFAqPyOElBX85R0qZcinrwMJ/QyoAkgtBFUQ7tkbgDcH9+JTpiUAaqXExjeAFuMbQEvOGkLL8Q2h5YSG8PSEBrIkxYZ/rdBPEqoJjwn3+qnIz17rg+DfJbsJdM1pKlu3nKZALLcZdGMsObcZ9C5KhL1ndqk8Kvs5UUjtArULSlDN36Hhnr1aE/r1PClCeunHi3Dy8jHDtv34Z0JIEdh6CWoAOipWPJ2++o1h+/7mucAhNTvrL2gKMqS6oDK7UaxEFcgatXITXwXF/gsN5DkWjOAGgL9Zf1h7VD9BVfYvDeQ+s/8PFk6TE6k2nevvktlU8qQIqR2glm7IZn/foJ8TSD+SIPUX1AdFnjIb0lX7P/Ge77cBVBWkVoP6bFlP4eSLQGmVIQ1wDPqDAKqZkKKWPW7ZK15I8Wy/xaAKIVWDKq1PzdJRX60eBmv3L4PNR2pVtuVILch2tBa26NjWo7Ww+MsalY7qelSpuS9t6TN3VynsOPGZbDtPfAaBGB5VyVz1Bg+oogGFnOlTacqENaompFaDyjWgYKqnjFb401moTmnp45c8FWZ7/Sj4y+ZpjU4bUHDdUrQ8apAtfQikkZ71KIKpNEnktz7rV3b042ANg5Y+yraTYV+PKhD8/QHVTHlKgvTtv4ELqnfPny3vo8/DoszPBsE/FKB6IXUKqEzoF3ecNjoVxdyWPgirC6p0LMVuUDtnNIWISASUmiDk0yWAbaHfJ6ji49JYNG1FSx/qTcMGVD91VBzc2wnN4OgerEv1B9Rgkyk1pIF6VBMFf+X6VOxRXVDJwIkQD5sgsAaSTPmR9YshrQegamX9rjzFy1OSTCWV+DnVo3bOaAIRzWioV14DCf0O8qguqI2gvcWhXw77uASwyKN2nuiBNHhQzRX8tXRUf0O/C2r4gypB+tbfACENF1A5DVWnpY8r+DND0ZzuUXUE/07EkyKk1JQhn74OJPRbWOEv9qhG5Sm+Uwpbhyo/dyv8QWuNKjegsEnwV0Pq8aqyJEUhxasLqnzIj5Wl6HNXR7VGR/VA+pDXk4aDR/Wpoxr1qK7gH8ycKdmjCo6iyAmVgWTK1xZqx4mNIaLpWwhpfQPV1VHri44qQ2oLqA6Sp9ydKeuzfrN2piRIxzwECOmDBqorT4UHqF5I9UA1RZ5iTqE6yKO6oFoPqrw+DVDw7zgB16QIKDUtj2oKqK7gb9px6QeocFoNqeUe1R5QXcG/IWBHP5I8TW7EX0NUlBKoRyWQNqFelL16PKq0TmXEfldH9Z7zdwV/WwR/GVI9UMNOnmJ6T7k7U9SjCryqlkd1WIV/B1yTIqDU5LUp9apaa1Sne1RX8AcyaGKSBKkU+sMTVAnS//6fDGm98qg+QXUF/3AQ/L2QOgVUB8lTruBvvTxlRPDvMB7DPQJKzQmh30Ggujpq6EElkDamgNJrIKCaoqO6gr+ro6or/GVInQOqPTqqOOvXXqO6HtV6j6qloxJInxr1fyCyxm88BNSavPEQcPbmQ9DkzYegKbG/QdM3GRv9N2gmtL9D5Oi/Q+R/xdb8v3+H5mPQHuYsaszDQOythyGKtbcfhui3/6G2d/4BMYzFvvMPkOwRiH3Xa3HvPgKcvfcIxL33CMTL9ijEv+ex9x+FBA1LHPsoJI79p7Z98E9IVNljkPTBY5D0IWuPQ9JHj0MLDWs57nGQrAG0HNcAnqY2vgE8zVir8Q1AsobQaoLXWk9oCJxNbAhtiDWCNhMVltEI2grtCWiX8QS0yxRb+8wnoP0k1p6E9pMk6zDpSegwWWFZT0JH2Z6CTllqa/dBY4h4pFEMuObeAycz8P8fC9YV3ncQZQAAAABJRU5ErkJggg==;" parent="0f2K5YkPgI1Y6RwSM53R-51" vertex="1">
          <mxGeometry width="79" height="79.47" as="geometry" />
        </mxCell>
        <mxCell id="0f2K5YkPgI1Y6RwSM53R-53" value="&lt;font style=&quot;font-size: 15px;&quot;&gt;ZooKeeper&lt;br&gt;Clusrt&lt;/font&gt;" style="text;html=1;strokeColor=none;fillColor=none;align=center;verticalAlign=middle;whiteSpace=wrap;rounded=0;" parent="0f2K5YkPgI1Y6RwSM53R-51" vertex="1">
          <mxGeometry x="9.5" y="89.94" width="60" height="30" as="geometry" />
        </mxCell>
        <mxCell id="0f2K5YkPgI1Y6RwSM53R-64" style="edgeStyle=orthogonalEdgeStyle;rounded=0;orthogonalLoop=1;jettySize=auto;html=1;exitX=0.5;exitY=1;exitDx=0;exitDy=0;" parent="1" source="0f2K5YkPgI1Y6RwSM53R-54" target="0f2K5YkPgI1Y6RwSM53R-59" edge="1">
          <mxGeometry relative="1" as="geometry" />
        </mxCell>
        <mxCell id="0f2K5YkPgI1Y6RwSM53R-66" style="edgeStyle=orthogonalEdgeStyle;rounded=0;orthogonalLoop=1;jettySize=auto;html=1;" parent="1" source="0f2K5YkPgI1Y6RwSM53R-54" target="0f2K5YkPgI1Y6RwSM53R-62" edge="1">
          <mxGeometry relative="1" as="geometry" />
        </mxCell>
        <mxCell id="0f2K5YkPgI1Y6RwSM53R-54" value="" style="rounded=0;whiteSpace=wrap;html=1;fillColor=none;strokeWidth=2;" parent="1" vertex="1">
          <mxGeometry x="1150" y="220" width="280" height="260" as="geometry" />
        </mxCell>
        <mxCell id="0f2K5YkPgI1Y6RwSM53R-58" value="" style="group" parent="1" vertex="1" connectable="0">
          <mxGeometry x="1120" y="530" width="92" height="100" as="geometry" />
        </mxCell>
        <mxCell id="0f2K5YkPgI1Y6RwSM53R-59" value="" style="sketch=0;outlineConnect=0;fontColor=#232F3E;gradientColor=none;fillColor=#232F3D;strokeColor=none;dashed=0;verticalLabelPosition=bottom;verticalAlign=top;align=center;html=1;fontSize=12;fontStyle=0;aspect=fixed;pointerEvents=1;shape=mxgraph.aws4.servers;" parent="0f2K5YkPgI1Y6RwSM53R-58" vertex="1">
          <mxGeometry x="17" width="58" height="58" as="geometry" />
        </mxCell>
        <mxCell id="0f2K5YkPgI1Y6RwSM53R-60" value="&lt;font style=&quot;font-size: 16px;&quot;&gt;manager&lt;/font&gt;" style="text;html=1;strokeColor=none;fillColor=none;align=center;verticalAlign=middle;whiteSpace=wrap;rounded=0;" parent="0f2K5YkPgI1Y6RwSM53R-58" vertex="1">
          <mxGeometry y="70" width="92" height="30" as="geometry" />
        </mxCell>
        <mxCell id="0f2K5YkPgI1Y6RwSM53R-61" value="" style="group" parent="1" vertex="1" connectable="0">
          <mxGeometry x="1380" y="530" width="92" height="100" as="geometry" />
        </mxCell>
        <mxCell id="0f2K5YkPgI1Y6RwSM53R-62" value="" style="sketch=0;outlineConnect=0;fontColor=#232F3E;gradientColor=none;fillColor=#232F3D;strokeColor=none;dashed=0;verticalLabelPosition=bottom;verticalAlign=top;align=center;html=1;fontSize=12;fontStyle=0;aspect=fixed;pointerEvents=1;shape=mxgraph.aws4.servers;" parent="0f2K5YkPgI1Y6RwSM53R-61" vertex="1">
          <mxGeometry x="17" width="58" height="58" as="geometry" />
        </mxCell>
        <mxCell id="0f2K5YkPgI1Y6RwSM53R-63" value="&lt;font style=&quot;font-size: 16px;&quot;&gt;manager&lt;/font&gt;" style="text;html=1;strokeColor=none;fillColor=none;align=center;verticalAlign=middle;whiteSpace=wrap;rounded=0;" parent="0f2K5YkPgI1Y6RwSM53R-61" vertex="1">
          <mxGeometry y="70" width="92" height="30" as="geometry" />
        </mxCell>
        <mxCell id="0f2K5YkPgI1Y6RwSM53R-73" value="心跳" style="text;strokeColor=none;fillColor=none;align=left;verticalAlign=middle;spacingLeft=4;spacingRight=4;overflow=hidden;points=[[0,0.5],[1,0.5]];portConstraint=eastwest;rotatable=0;whiteSpace=wrap;html=1;" parent="0f2K5YkPgI1Y6RwSM53R-61" vertex="1">
          <mxGeometry x="-40" y="70" width="80" height="30" as="geometry" />
        </mxCell>
        <mxCell id="0f2K5YkPgI1Y6RwSM53R-65" style="edgeStyle=orthogonalEdgeStyle;rounded=0;orthogonalLoop=1;jettySize=auto;html=1;exitX=0.5;exitY=1;exitDx=0;exitDy=0;" parent="1" source="0f2K5YkPgI1Y6RwSM53R-60" target="0f2K5YkPgI1Y6RwSM53R-30" edge="1">
          <mxGeometry relative="1" as="geometry" />
        </mxCell>
        <mxCell id="0f2K5YkPgI1Y6RwSM53R-67" style="edgeStyle=orthogonalEdgeStyle;rounded=0;orthogonalLoop=1;jettySize=auto;html=1;exitX=0.5;exitY=1;exitDx=0;exitDy=0;" parent="1" source="0f2K5YkPgI1Y6RwSM53R-63" target="0f2K5YkPgI1Y6RwSM53R-31" edge="1">
          <mxGeometry relative="1" as="geometry" />
        </mxCell>
        <mxCell id="0f2K5YkPgI1Y6RwSM53R-68" value="" style="endArrow=none;dashed=1;html=1;dashPattern=1 3;strokeWidth=2;rounded=0;exitX=0.205;exitY=0.182;exitDx=0;exitDy=0;exitPerimeter=0;strokeColor=#009900;" parent="1" source="0f2K5YkPgI1Y6RwSM53R-30" edge="1">
          <mxGeometry width="50" height="50" relative="1" as="geometry">
            <mxPoint x="900" y="580" as="sourcePoint" />
            <mxPoint x="1130" y="570" as="targetPoint" />
            <Array as="points" />
          </mxGeometry>
        </mxCell>
        <mxCell id="0f2K5YkPgI1Y6RwSM53R-69" value="" style="endArrow=none;dashed=1;html=1;dashPattern=1 3;strokeWidth=2;rounded=0;strokeColor=#009900;" parent="1" edge="1">
          <mxGeometry width="50" height="50" relative="1" as="geometry">
            <mxPoint x="1230" y="670" as="sourcePoint" />
            <mxPoint x="1200" y="560" as="targetPoint" />
            <Array as="points" />
          </mxGeometry>
        </mxCell>
        <mxCell id="0f2K5YkPgI1Y6RwSM53R-70" value="" style="endArrow=none;dashed=1;html=1;dashPattern=1 3;strokeWidth=2;rounded=0;exitX=0.25;exitY=0;exitDx=0;exitDy=0;strokeColor=#009900;" parent="1" source="0f2K5YkPgI1Y6RwSM53R-31" edge="1">
          <mxGeometry width="50" height="50" relative="1" as="geometry">
            <mxPoint x="1310" y="610" as="sourcePoint" />
            <mxPoint x="1390" y="570" as="targetPoint" />
          </mxGeometry>
        </mxCell>
        <mxCell id="0f2K5YkPgI1Y6RwSM53R-71" value="" style="endArrow=none;dashed=1;html=1;dashPattern=1 3;strokeWidth=2;rounded=0;entryX=0.819;entryY=0.001;entryDx=0;entryDy=0;entryPerimeter=0;strokeColor=#009900;" parent="1" target="0f2K5YkPgI1Y6RwSM53R-31" edge="1">
          <mxGeometry width="50" height="50" relative="1" as="geometry">
            <mxPoint x="1460" y="560" as="sourcePoint" />
            <mxPoint x="1660" y="560" as="targetPoint" />
          </mxGeometry>
        </mxCell>
        <mxCell id="0f2K5YkPgI1Y6RwSM53R-72" value="心跳" style="text;strokeColor=none;fillColor=none;align=left;verticalAlign=middle;spacingLeft=4;spacingRight=4;overflow=hidden;points=[[0,0.5],[1,0.5]];portConstraint=eastwest;rotatable=0;whiteSpace=wrap;html=1;" parent="1" vertex="1">
          <mxGeometry x="1080" y="600" width="80" height="30" as="geometry" />
        </mxCell>
        <mxCell id="0f2K5YkPgI1Y6RwSM53R-74" value="心跳" style="text;strokeColor=none;fillColor=none;align=left;verticalAlign=middle;spacingLeft=4;spacingRight=4;overflow=hidden;points=[[0,0.5],[1,0.5]];portConstraint=eastwest;rotatable=0;whiteSpace=wrap;html=1;" parent="1" vertex="1">
          <mxGeometry x="1472" y="600" width="80" height="30" as="geometry" />
        </mxCell>
        <mxCell id="0f2K5YkPgI1Y6RwSM53R-75" value="&lt;font style=&quot;font-size: 16px;&quot;&gt;内存信息&lt;/font&gt;" style="text;html=1;strokeColor=none;fillColor=none;align=center;verticalAlign=middle;whiteSpace=wrap;rounded=0;" parent="1" vertex="1">
          <mxGeometry x="305" y="1010" width="80" height="30" as="geometry" />
        </mxCell>
        <mxCell id="0f2K5YkPgI1Y6RwSM53R-76" value="&lt;font style=&quot;font-size: 16px;&quot;&gt;配置信息&lt;/font&gt;" style="text;html=1;strokeColor=none;fillColor=none;align=center;verticalAlign=middle;whiteSpace=wrap;rounded=0;" parent="1" vertex="1">
          <mxGeometry x="565" y="1010" width="80" height="30" as="geometry" />
        </mxCell>
        <mxCell id="0f2K5YkPgI1Y6RwSM53R-77" value="" style="rounded=0;whiteSpace=wrap;html=1;" parent="1" vertex="1">
          <mxGeometry x="230" y="1050" width="230" height="190" as="geometry" />
        </mxCell>
        <mxCell id="0f2K5YkPgI1Y6RwSM53R-78" value="&lt;font style=&quot;font-size: 16px;&quot;&gt;堆(Heap)&lt;/font&gt;" style="rounded=0;whiteSpace=wrap;html=1;" parent="1" vertex="1">
          <mxGeometry x="240" y="1060" width="100" height="40" as="geometry" />
        </mxCell>
        <mxCell id="0f2K5YkPgI1Y6RwSM53R-79" value="&lt;span style=&quot;font-size: 16px;&quot;&gt;栈(Stack)&lt;/span&gt;" style="rounded=0;whiteSpace=wrap;html=1;" parent="1" vertex="1">
          <mxGeometry x="240" y="1120" width="100" height="40" as="geometry" />
        </mxCell>
        <mxCell id="0f2K5YkPgI1Y6RwSM53R-80" value="&lt;span style=&quot;font-size: 16px;&quot;&gt;寄存器状态&lt;/span&gt;" style="rounded=0;whiteSpace=wrap;html=1;" parent="1" vertex="1">
          <mxGeometry x="240" y="1180" width="100" height="40" as="geometry" />
        </mxCell>
        <mxCell id="0f2K5YkPgI1Y6RwSM53R-81" value="&lt;font style=&quot;font-size: 16px;&quot;&gt;全局变量&lt;/font&gt;" style="rounded=0;whiteSpace=wrap;html=1;" parent="1" vertex="1">
          <mxGeometry x="350" y="1060" width="100" height="40" as="geometry" />
        </mxCell>
        <mxCell id="0f2K5YkPgI1Y6RwSM53R-83" value="&lt;font style=&quot;font-size: 16px;&quot;&gt;文件描述符&lt;/font&gt;" style="rounded=0;whiteSpace=wrap;html=1;" parent="1" vertex="1">
          <mxGeometry x="350" y="1120" width="100" height="40" as="geometry" />
        </mxCell>
        <mxCell id="0f2K5YkPgI1Y6RwSM53R-84" value="" style="rounded=0;whiteSpace=wrap;html=1;" parent="1" vertex="1">
          <mxGeometry x="490" y="1050" width="230" height="190" as="geometry" />
        </mxCell>
        <mxCell id="0f2K5YkPgI1Y6RwSM53R-85" value="&lt;font style=&quot;font-size: 16px;&quot;&gt;音色&lt;/font&gt;" style="rounded=0;whiteSpace=wrap;html=1;" parent="1" vertex="1">
          <mxGeometry x="500" y="1060" width="100" height="40" as="geometry" />
        </mxCell>
        <mxCell id="0f2K5YkPgI1Y6RwSM53R-86" value="&lt;span style=&quot;font-size: 16px;&quot;&gt;情绪&lt;/span&gt;" style="rounded=0;whiteSpace=wrap;html=1;" parent="1" vertex="1">
          <mxGeometry x="500" y="1120" width="100" height="40" as="geometry" />
        </mxCell>
        <mxCell id="0f2K5YkPgI1Y6RwSM53R-87" value="&lt;span style=&quot;font-size: 16px;&quot;&gt;推流地址&lt;/span&gt;" style="rounded=0;whiteSpace=wrap;html=1;" parent="1" vertex="1">
          <mxGeometry x="500" y="1180" width="100" height="40" as="geometry" />
        </mxCell>
        <mxCell id="0f2K5YkPgI1Y6RwSM53R-88" value="&lt;font style=&quot;font-size: 16px;&quot;&gt;直播平台&lt;/font&gt;" style="rounded=0;whiteSpace=wrap;html=1;" parent="1" vertex="1">
          <mxGeometry x="610" y="1060" width="100" height="40" as="geometry" />
        </mxCell>
        <mxCell id="0f2K5YkPgI1Y6RwSM53R-89" value="&lt;font style=&quot;font-size: 16px;&quot;&gt;直播布局&lt;/font&gt;" style="rounded=0;whiteSpace=wrap;html=1;" parent="1" vertex="1">
          <mxGeometry x="610" y="1120" width="100" height="40" as="geometry" />
        </mxCell>
        <mxCell id="0f2K5YkPgI1Y6RwSM53R-90" value="" style="shape=image;verticalLabelPosition=bottom;labelBackgroundColor=default;verticalAlign=top;aspect=fixed;imageAspect=0;image=data:image/svg+xml,PHN2ZyB4bWxucz0iaHR0cDovL3d3dy53My5vcmcvMjAwMC9zdmciIHZpZXdCb3g9Ii02OC42MDM3IC0zNi40NTA3NSA1OTQuNTY1NCAyMTguNzA0NSIgd2lkdGg9IjEyMDAiIGhlaWdodD0iODAwIj48ZyB0cmFuc2Zvcm09InRyYW5zbGF0ZSgtMTcxLjMyMiAtMjI3LjExMykiPjxwYXRoIGZpbGw9IiM2MzY0NjYiIGQ9Ik00MjEuNjQgMjcyLjI3YzAgMy42MTktMi45NzMgNi44NDktNi44NSA2Ljg0OS0yLjk3MyAwLTUuNTU3Ljc3Ni03Ljc1NCAyLjQ1Ni0yLjQ1NSAxLjU1Mi00LjM5NCAzLjc0OC01Ljk0NCA2LjIwMy0zLjEwMiA0LjEzNi00LjY1MSA5LjA0Ni01LjI5OCAxMC44NTR2MjQuNTU0YzAgMy43NDgtMy4yMyA2Ljg1LTcuMTA3IDYuODUtMy43NDggMC02Ljg0OS0zLjEwMi02Ljg0OS02Ljg1VjI3Mi4yN2MwLTMuNzQ4IDMuMTAxLTYuNzIgNi44NDktNi43MiAzLjg3NyAwIDcuMTA3IDIuOTczIDcuMTA3IDYuNzJ2LjkwNWMuNzc1LS45MDUgMS44MDktMS45MzggMi43MTQtMi41ODUgNC4yNjUtMi44NDIgOS44MjEtNS4xNjkgMTYuMjgyLTUuMDQgMy44NzcgMCA2Ljg1IDIuOTczIDYuODUgNi43MnptLTMuNzkgMjUuNDZjLjEzLTE3LjU3NSAxMy44MjgtMzIuMzA3IDMxLjUzMS0zMi4zMDcgMTYuOCAwIDMwLjExIDEyLjUzNSAzMS4xNDUgMjkuOTh2LjY0NmMwIC4yNTkgMCAuOTA0LS4xMjkgMS4xNjMtLjM4OSAzLjEwMi0zLjEwMiA1LjE3LTYuNzIxIDUuMTdoLTQxLjA5NGMuNjQ2IDIuOTczIDIuMDY3IDYuMzMyIDQuMzk0IDguNTI5IDIuNzE0IDMuMTAyIDcuODgzIDUuNDI2IDEyLjQwNSA1LjgxNCA0LjY1Mi4zODcgMTAuMjA5LS43NzUgMTMuNDQtMy4yMyAyLjcxMy0yLjg0NCA4LjAxMi0yLjQ1NSA5LjY5Mi0uMzg5IDEuNjggMS44MTEgMi45NzIgNS42ODggMCA4LjQtNi4zMzMgNS44MTQtMTMuOTU3IDguNTI5LTIzLjEzMyA4LjUyOS0xNy43MDItLjEyNy0zMS40LTE0LjczLTMxLjUzLTMyLjMwNXptMTQuMDg2LTYuMzMyaDM2LjU3MWMtMS4yOTItNS4xNjktNy44ODMtMTIuNzkzLTE5LjEyNi0xMy42OTgtMTAuOTgzLjUxNi0xNi40MTEgOC40LTE3LjQ0NSAxMy42OTh6TTU0Ni4zNiAzMjMuMDZjMCAzLjc0OC0zLjEwMiA2Ljk3OS02Ljk3OSA2Ljk3OS0zLjQ4OSAwLTYuMjAyLTIuNDU1LTYuODQ5LTUuNTU3LTQuOTEgMy4zNTktMTEuMTEzIDUuNTU3LTE3LjU3NSA1LjU1Ny0xNy40NDUgMC0zMS40MDItMTQuNzMyLTMxLjQwMi0zMi4xNzggMC0xNy43MDUgMTMuOTU3LTMyLjQzNyAzMS40MDItMzIuNDM3IDYuMzMzIDAgMTIuNTM1IDIuMDY3IDE3LjMxNiA1LjQyN3YtMjQuMjk0YzAtMy43NDggMy4xMDItNi45NzkgNy4xMDctNi45NzkgMy44NzcgMCA2Ljk3OSAzLjIzMSA2Ljk3OSA2Ljk3OXY3Ni41MDN6bS0zMS40MDItNDMuNTVjLTQuNjUyIDAtOC45MTcgMS45MzgtMTIuMTQ2IDUuMjk4LTMuMjMxIDMuMjMxLTUuMTcgNy44ODItNS4xNyAxMy4wNTIgMCA0LjkxIDEuOTM4IDkuNTYyIDUuMTcgMTIuNzkzIDMuMjI5IDMuMzYxIDcuNDk0IDUuMjk5IDEyLjE0NiA1LjI5OSA0Ljc4MSAwIDguOTE3LTEuOTM4IDEyLjE0Ny01LjI5OSAzLjIzLTMuMjMgNS4xNjktNy44ODMgNS4xNjktMTIuNzkzIDAtNS4xNy0xLjkzOC05LjgyMS01LjE2OS0xMy4wNTItMy4yMy0zLjM2LTcuMzY2LTUuMjk4LTEyLjE0Ny01LjI5OHptNTUuOTkyLTMwLjI0YzAgMy44NzctMi45NzIgNy4xMDctNi45NzkgNy4xMDctMy44NzcgMC02Ljk3OC0zLjIzLTYuOTc4LTcuMTA3di0yLjcxNGE2Ljk1IDYuOTUgMCAwMTYuOTc4LTYuOTc5YzQuMDA3IDAgNi45NzkgMy4xMDIgNi45NzkgNi45Nzl6bTAgMjMuMzl2NTAuMzk5YzAgMy44NzctMi45NzIgNi45NzktNi45NzkgNi45NzlhNi45NSA2Ljk1IDAgMDEtNi45NzgtNi45NzlWMjcyLjY2YzAtNC4xMzUgMy4xMDEtNy4xMDggNi45NzgtNy4xMDggNC4wMDggMCA2Ljk3OSAyLjk3MyA2Ljk3OSA3LjEwOHptOC44OCAzOC44OWMyLjMyNi0zLjEgNi44NS0zLjQ4OCA5LjY5Mi0xLjAzMyAzLjM2IDIuODQ0IDkuMTc2IDUuODE0IDE0LjIxNSA1LjY4NiAzLjQ4OSAwIDYuNzItMS4xNjIgOC43ODgtMi40NTUgMS44MDktMS41NTEgMi4zMjUtMi44NDIgMi4zMjUtMy44NzcgMC0uNjQ2LS4xMjktLjkwNC0uMzg3LTEuMjkzLS4xMy0uMzg3LS42NDYtLjkwNC0xLjY4MS0xLjU0OS0xLjgwOS0xLjI5My01LjY4Ni0yLjcxNS0xMC4zMzgtMy42MTloLS4xMjljLTQuMDA3LS43NzUtNy44ODQtMS44MDktMTEuMjQzLTMuMzYxLTMuNDg5LTEuNjc5LTYuNTkxLTQuMDA1LTguOTE3LTcuNDk0LTEuNDIxLTIuMzI2LTIuMTk2LTUuMTY5LTIuMTk2LTguMTQxIDAtNS45NDUgMy4zNi0xMC45ODUgNy42MjQtMTQuMjE2IDQuNTIzLTMuMTAxIDkuOTUxLTQuNzgxIDE1Ljg5Ni00Ljc4MSA4LjkxNiAwIDE1LjI0OCA0LjI2NSAxOS4zODQgNy4xMDcgMy4xMDIgMi4wNjggNC4wMDYgNi4zMzMgMi4wNjcgOS41NjItMi4wNjcgMy4xMDItNi4zMzIgNC4wMDctOS41NjIgMS44MS00LjEzNS0yLjcxMy03Ljc1NC00Ljc4Mi0xMS44ODktNC43ODItMy4yMzEgMC02LjA3NCAxLjAzNC03Ljc1NCAyLjMyNi0xLjY4IDEuMTY0LTIuMDY3IDIuMzI3LTIuMDY3IDIuOTczIDAgLjUxNiAwIC42NDYuMjU4IDEuMDMzLjEzLjI1OC41MTcuNzc1IDEuNDIyIDEuMjkyIDEuNjgxIDEuMTYzIDUuMDQgMi4zMjYgOS40MzQgMy4xMDJsLjEyOS4xM2guMTNjNC4yNjUuNzc0IDguMjcxIDEuOTM4IDEyLjAxOCAzLjc0NyAzLjQ4OSAxLjU1MSA2Ljk3OSA0LjAwNiA5LjE3NiA3LjYyNCAxLjU1MSAyLjU4NCAyLjQ1NSA1LjU1NyAyLjQ1NSA4LjUyOSAwIDYuMzMyLTMuNDg5IDExLjYzMS04LjE0MiAxNC45OS00LjY1MiAzLjIzLTEwLjQ2OCA1LjE3LTE2LjggNS4xNy0xMC4wNzktLjEyOS0xNy44MzMtNC43ODEtMjMuMDAyLTguOTE2LTIuODQ0LTIuMzI2LTMuMjMxLTYuNzIxLS45MDYtOS41NjR6Ii8+PHBhdGggZmlsbD0iI2E0MWUxMSIgZD0iTTMzNC43NyAzMzkuNTRjLTkuMDc4IDQuNzMyLTU2LjEwNiAyNC4wNjgtNjYuMTE4IDI5LjI4Ny0xMC4wMTIgNS4yMjEtMTUuNTc0IDUuMTctMjMuNDgzIDEuMzg5LTcuOTA5LTMuNzgxLTU3Ljk1NS0yMy45OTYtNjYuOTctMjguMzA1LTQuNTA2LTIuMTU0LTYuODc1LTMuOTcxLTYuODc1LTUuNjg4di0xNy4xOTVzNjUuMTUzLTE0LjE4NCA3NS42NzItMTcuOTU3YzEwLjUxOC0zLjc3NCAxNC4xNjctMy45MSAyMy4xMTgtLjYzMSA4Ljk1MiAzLjI3OSA2Mi40NzQgMTIuOTM2IDcxLjMyMSAxNi4xNzZsLS4wMDQgMTYuOTUxYy4wMDEgMS43LTIuMDQgMy41NjUtNi42NjEgNS45NzN6Ii8+PHBhdGggZmlsbD0iI2Q4MmMyMCIgZD0iTTMzNC43NyAzMjIuMzRjLTkuMDc4IDQuNzMtNTYuMTA2IDI0LjA2OC02Ni4xMTggMjkuMjg3LTEwLjAxMiA1LjIyMS0xNS41NzQgNS4xNy0yMy40ODMgMS4zODktNy45MS0zLjc3OS01Ny45NTUtMjMuOTk4LTY2Ljk3LTI4LjMwNS05LjAxNS00LjMwOS05LjIwNC03LjI3NS0uMzQ4LTEwLjc0MiA4Ljg1NS0zLjQ2OSA1OC42MjYtMjIuOTk2IDY5LjE0Ni0yNi43NyAxMC41MTgtMy43NzIgMTQuMTY3LTMuOTEgMjMuMTE4LS42MyA4Ljk1MiAzLjI3OSA1NS42OTkgMjEuODg2IDY0LjU0NSAyNS4xMjYgOC44NDggMy4yNDMgOS4xODggNS45MTMuMTEgMTAuNjQ1eiIvPjxwYXRoIGZpbGw9IiNhNDFlMTEiIGQ9Ik0zMzQuNzcgMzExLjVjLTkuMDc4IDQuNzMyLTU2LjEwNiAyNC4wNjgtNjYuMTE4IDI5LjI4OS0xMC4wMTIgNS4yMTktMTUuNTc0IDUuMTY4LTIzLjQ4MyAxLjM4Ny03LjkxLTMuNzc5LTU3Ljk1NS0yMy45OTYtNjYuOTctMjguMzA1LTQuNTA2LTIuMTU0LTYuODc1LTMuOTY5LTYuODc1LTUuNjg2di0xNy4xOTdzNjUuMTUzLTE0LjE4MyA3NS42NzItMTcuOTU3YzEwLjUxOC0zLjc3MyAxNC4xNjctMy45MSAyMy4xMTgtLjYzMSA4Ljk1MiAzLjI3OSA2Mi40NzQgMTIuOTM0IDcxLjMyMSAxNi4xNzVsLS4wMDQgMTYuOTUzYy4wMDEgMS42OTktMi4wNCAzLjU2NC02LjY2MSA1Ljk3MnoiLz48cGF0aCBmaWxsPSIjZDgyYzIwIiBkPSJNMzM0Ljc3IDI5NC4zYy05LjA3OCA0LjczMi01Ni4xMDYgMjQuMDY4LTY2LjExOCAyOS4yODktMTAuMDEyIDUuMjE5LTE1LjU3NCA1LjE2OC0yMy40ODMgMS4zODctNy45MS0zLjc3OS01Ny45NTUtMjMuOTk3LTY2Ljk3LTI4LjMwNXMtOS4yMDQtNy4yNzQtLjM0OC0xMC43NDNjOC44NTUtMy40NjcgNTguNjI2LTIyLjk5NSA2OS4xNDYtMjYuNzY4IDEwLjUxOC0zLjc3MyAxNC4xNjctMy45MSAyMy4xMTgtLjYzMSA4Ljk1MiAzLjI3OSA1NS42OTkgMjEuODg1IDY0LjU0NSAyNS4xMjYgOC44NDggMy4yNDIgOS4xODggNS45MTMuMTEgMTAuNjQ1eiIvPjxwYXRoIGZpbGw9IiNhNDFlMTEiIGQ9Ik0zMzQuNzcgMjgyLjQyYy05LjA3OCA0LjczMi01Ni4xMDYgMjQuMDY5LTY2LjExOCAyOS4yOS0xMC4wMTIgNS4yMTktMTUuNTc0IDUuMTY4LTIzLjQ4MyAxLjM4Ny03LjkxLTMuNzc5LTU3Ljk1NS0yMy45OTctNjYuOTctMjguMzA1LTQuNTA2LTIuMTU0LTYuODc1LTMuOTctNi44NzUtNS42ODZ2LTE3LjE5N3M2NS4xNTMtMTQuMTgzIDc1LjY3Mi0xNy45NTZjMTAuNTE4LTMuNzc0IDE0LjE2Ny0zLjkxIDIzLjExOC0uNjMxIDguOTUyIDMuMjc5IDYyLjQ3NCAxMi45MzQgNzEuMzIxIDE2LjE3NWwtLjAwNCAxNi45NTJjLjAwMSAxLjY5OC0yLjA0IDMuNTYzLTYuNjYxIDUuOTcxeiIvPjxwYXRoIGZpbGw9IiNkODJjMjAiIGQ9Ik0zMzQuNzcgMjY1LjIyYy05LjA3OCA0LjczMi01Ni4xMDYgMjQuMDY5LTY2LjExOCAyOS4yODktMTAuMDEyIDUuMjE5LTE1LjU3NCA1LjE2OC0yMy40ODMgMS4zODgtNy45MDktMy43OC01Ny45NTUtMjMuOTk3LTY2Ljk3LTI4LjMwNXMtOS4yMDQtNy4yNzUtLjM0OC0xMC43NDNjOC44NTUtMy40NjggNTguNjI2LTIyLjk5NCA2OS4xNDYtMjYuNzY4IDEwLjUxOC0zLjc3NCAxNC4xNjctMy45MSAyMy4xMTgtLjYzIDguOTUyIDMuMjc5IDU1LjY5OSAyMS44ODUgNjQuNTQ1IDI1LjEyNiA4Ljg0OCAzLjI0IDkuMTg4IDUuOTEyLjExIDEwLjY0M3oiLz48cGF0aCBkPSJNMjYwLjYzIDI1OC4xM2wtNS4zMy04Ljg2LTE3LjAyLTEuNTMgMTIuNy00LjU4LTMuODEtNy4wMyAxMS44OSA0LjY1IDExLjIxLTMuNjctMy4wMyA3LjI3IDExLjQzIDQuMjgtMTQuNzQgMS41M3ptMTEuMDMgMTEuNTlsLTExLjkxIDE3LjQ2LTI3LjUxLTExLjQxeiIgZmlsbD0iI0ZGRiIvPjxlbGxpcHNlIGN4PSIyMjEuNjEiIHJ4PSIyMS4wNjkiIHJ5PSI4LjE2NyIgY3k9IjI2MS4yNCIgZmlsbD0iI0ZGRiIvPjxwYXRoIGQ9Ik0yOTYuMTEgMjY5LjI2bC0uMDItMTguNDMgMjMuMzMgOS4yMnoiIGZpbGw9IiM3YTBjMDAiLz48cGF0aCBkPSJNMjk2LjExIDI2OS4yNmwtMi41My45OS0yMy4zLTkuMjEgMjUuODEtMTAuMjF6IiBmaWxsPSIjYWQyMTE1Ii8+PC9nPjwvc3ZnPg==;" parent="1" vertex="1">
          <mxGeometry x="380" y="1340" width="195.01" height="130" as="geometry" />
        </mxCell>
        <mxCell id="0f2K5YkPgI1Y6RwSM53R-91" value="" style="endArrow=classic;startArrow=classic;html=1;rounded=0;exitX=0.25;exitY=0;exitDx=0;exitDy=0;entryX=0.5;entryY=1;entryDx=0;entryDy=0;strokeWidth=2;" parent="1" source="0f2K5YkPgI1Y6RwSM53R-90" target="0f2K5YkPgI1Y6RwSM53R-77" edge="1">
          <mxGeometry width="50" height="50" relative="1" as="geometry">
            <mxPoint x="310" y="1330" as="sourcePoint" />
            <mxPoint x="360" y="1280" as="targetPoint" />
          </mxGeometry>
        </mxCell>
        <mxCell id="0f2K5YkPgI1Y6RwSM53R-92" value="" style="endArrow=classic;startArrow=classic;html=1;rounded=0;exitX=0.75;exitY=0;exitDx=0;exitDy=0;entryX=0.5;entryY=1;entryDx=0;entryDy=0;strokeWidth=2;" parent="1" source="0f2K5YkPgI1Y6RwSM53R-90" target="0f2K5YkPgI1Y6RwSM53R-84" edge="1">
          <mxGeometry width="50" height="50" relative="1" as="geometry">
            <mxPoint x="439" y="1350" as="sourcePoint" />
            <mxPoint x="355" y="1250" as="targetPoint" />
          </mxGeometry>
        </mxCell>
        <mxCell id="0f2K5YkPgI1Y6RwSM53R-94" value="&lt;font style=&quot;font-size: 16px;&quot;&gt;配置信息&lt;/font&gt;" style="text;html=1;strokeColor=none;fillColor=none;align=center;verticalAlign=middle;whiteSpace=wrap;rounded=0;" parent="1" vertex="1">
          <mxGeometry x="1055" y="1000" width="80" height="30" as="geometry" />
        </mxCell>
        <mxCell id="0f2K5YkPgI1Y6RwSM53R-95" value="" style="rounded=0;whiteSpace=wrap;html=1;" parent="1" vertex="1">
          <mxGeometry x="960" y="1050" width="270" height="190" as="geometry" />
        </mxCell>
        <mxCell id="0f2K5YkPgI1Y6RwSM53R-96" value="&lt;font style=&quot;font-size: 16px;&quot;&gt;音色：妲己&lt;/font&gt;" style="rounded=0;whiteSpace=wrap;html=1;" parent="1" vertex="1">
          <mxGeometry x="970" y="1060" width="100" height="40" as="geometry" />
        </mxCell>
        <mxCell id="0f2K5YkPgI1Y6RwSM53R-97" value="&lt;span style=&quot;font-size: 16px;&quot;&gt;情绪：兴奋&lt;/span&gt;" style="rounded=0;whiteSpace=wrap;html=1;" parent="1" vertex="1">
          <mxGeometry x="970" y="1120" width="100" height="40" as="geometry" />
        </mxCell>
        <mxCell id="0f2K5YkPgI1Y6RwSM53R-98" value="&lt;span style=&quot;font-size: 16px;&quot;&gt;推流地址：rtmp://XXXX&lt;/span&gt;" style="rounded=0;whiteSpace=wrap;html=1;" parent="1" vertex="1">
          <mxGeometry x="970" y="1180" width="200" height="40" as="geometry" />
        </mxCell>
        <mxCell id="0f2K5YkPgI1Y6RwSM53R-99" value="&lt;font style=&quot;font-size: 16px;&quot;&gt;直播平台：快手&lt;/font&gt;" style="rounded=0;whiteSpace=wrap;html=1;" parent="1" vertex="1">
          <mxGeometry x="1080" y="1060" width="130" height="40" as="geometry" />
        </mxCell>
        <mxCell id="0f2K5YkPgI1Y6RwSM53R-100" value="&lt;font style=&quot;font-size: 16px;&quot;&gt;直播布局：C&lt;/font&gt;" style="rounded=0;whiteSpace=wrap;html=1;" parent="1" vertex="1">
          <mxGeometry x="1080" y="1120" width="130" height="40" as="geometry" />
        </mxCell>
        <mxCell id="0f2K5YkPgI1Y6RwSM53R-101" value="&lt;font style=&quot;font-size: 16px;&quot;&gt;配置信息&lt;/font&gt;" style="text;html=1;strokeColor=none;fillColor=none;align=center;verticalAlign=middle;whiteSpace=wrap;rounded=0;" parent="1" vertex="1">
          <mxGeometry x="1361" y="1000" width="80" height="30" as="geometry" />
        </mxCell>
        <mxCell id="0f2K5YkPgI1Y6RwSM53R-102" value="" style="rounded=0;whiteSpace=wrap;html=1;" parent="1" vertex="1">
          <mxGeometry x="1270" y="1050" width="270" height="190" as="geometry" />
        </mxCell>
        <mxCell id="0f2K5YkPgI1Y6RwSM53R-103" value="&lt;font style=&quot;font-size: 16px;&quot;&gt;音色：原声&lt;/font&gt;" style="rounded=0;whiteSpace=wrap;html=1;" parent="1" vertex="1">
          <mxGeometry x="1280" y="1060" width="100" height="40" as="geometry" />
        </mxCell>
        <mxCell id="0f2K5YkPgI1Y6RwSM53R-104" value="&lt;span style=&quot;font-size: 16px;&quot;&gt;情绪：无&lt;/span&gt;" style="rounded=0;whiteSpace=wrap;html=1;" parent="1" vertex="1">
          <mxGeometry x="1280" y="1120" width="100" height="40" as="geometry" />
        </mxCell>
        <mxCell id="0f2K5YkPgI1Y6RwSM53R-105" value="&lt;span style=&quot;font-size: 16px;&quot;&gt;推流地址：无&lt;/span&gt;" style="rounded=0;whiteSpace=wrap;html=1;" parent="1" vertex="1">
          <mxGeometry x="1280" y="1180" width="200" height="40" as="geometry" />
        </mxCell>
        <mxCell id="0f2K5YkPgI1Y6RwSM53R-106" value="&lt;font style=&quot;font-size: 16px;&quot;&gt;直播平台：无&lt;/font&gt;" style="rounded=0;whiteSpace=wrap;html=1;" parent="1" vertex="1">
          <mxGeometry x="1390" y="1060" width="130" height="40" as="geometry" />
        </mxCell>
        <mxCell id="0f2K5YkPgI1Y6RwSM53R-107" value="&lt;font style=&quot;font-size: 16px;&quot;&gt;直播布局：默认&lt;/font&gt;" style="rounded=0;whiteSpace=wrap;html=1;" parent="1" vertex="1">
          <mxGeometry x="1390" y="1120" width="130" height="40" as="geometry" />
        </mxCell>
        <mxCell id="0f2K5YkPgI1Y6RwSM53R-108" value="" style="shape=image;verticalLabelPosition=bottom;labelBackgroundColor=default;verticalAlign=top;aspect=fixed;imageAspect=0;image=data:image/svg+xml,PHN2ZyB4bWxucz0iaHR0cDovL3d3dy53My5vcmcvMjAwMC9zdmciIHZpZXdCb3g9Ii02OC42MDM3IC0zNi40NTA3NSA1OTQuNTY1NCAyMTguNzA0NSIgd2lkdGg9IjEyMDAiIGhlaWdodD0iODAwIj48ZyB0cmFuc2Zvcm09InRyYW5zbGF0ZSgtMTcxLjMyMiAtMjI3LjExMykiPjxwYXRoIGZpbGw9IiM2MzY0NjYiIGQ9Ik00MjEuNjQgMjcyLjI3YzAgMy42MTktMi45NzMgNi44NDktNi44NSA2Ljg0OS0yLjk3MyAwLTUuNTU3Ljc3Ni03Ljc1NCAyLjQ1Ni0yLjQ1NSAxLjU1Mi00LjM5NCAzLjc0OC01Ljk0NCA2LjIwMy0zLjEwMiA0LjEzNi00LjY1MSA5LjA0Ni01LjI5OCAxMC44NTR2MjQuNTU0YzAgMy43NDgtMy4yMyA2Ljg1LTcuMTA3IDYuODUtMy43NDggMC02Ljg0OS0zLjEwMi02Ljg0OS02Ljg1VjI3Mi4yN2MwLTMuNzQ4IDMuMTAxLTYuNzIgNi44NDktNi43MiAzLjg3NyAwIDcuMTA3IDIuOTczIDcuMTA3IDYuNzJ2LjkwNWMuNzc1LS45MDUgMS44MDktMS45MzggMi43MTQtMi41ODUgNC4yNjUtMi44NDIgOS44MjEtNS4xNjkgMTYuMjgyLTUuMDQgMy44NzcgMCA2Ljg1IDIuOTczIDYuODUgNi43MnptLTMuNzkgMjUuNDZjLjEzLTE3LjU3NSAxMy44MjgtMzIuMzA3IDMxLjUzMS0zMi4zMDcgMTYuOCAwIDMwLjExIDEyLjUzNSAzMS4xNDUgMjkuOTh2LjY0NmMwIC4yNTkgMCAuOTA0LS4xMjkgMS4xNjMtLjM4OSAzLjEwMi0zLjEwMiA1LjE3LTYuNzIxIDUuMTdoLTQxLjA5NGMuNjQ2IDIuOTczIDIuMDY3IDYuMzMyIDQuMzk0IDguNTI5IDIuNzE0IDMuMTAyIDcuODgzIDUuNDI2IDEyLjQwNSA1LjgxNCA0LjY1Mi4zODcgMTAuMjA5LS43NzUgMTMuNDQtMy4yMyAyLjcxMy0yLjg0NCA4LjAxMi0yLjQ1NSA5LjY5Mi0uMzg5IDEuNjggMS44MTEgMi45NzIgNS42ODggMCA4LjQtNi4zMzMgNS44MTQtMTMuOTU3IDguNTI5LTIzLjEzMyA4LjUyOS0xNy43MDItLjEyNy0zMS40LTE0LjczLTMxLjUzLTMyLjMwNXptMTQuMDg2LTYuMzMyaDM2LjU3MWMtMS4yOTItNS4xNjktNy44ODMtMTIuNzkzLTE5LjEyNi0xMy42OTgtMTAuOTgzLjUxNi0xNi40MTEgOC40LTE3LjQ0NSAxMy42OTh6TTU0Ni4zNiAzMjMuMDZjMCAzLjc0OC0zLjEwMiA2Ljk3OS02Ljk3OSA2Ljk3OS0zLjQ4OSAwLTYuMjAyLTIuNDU1LTYuODQ5LTUuNTU3LTQuOTEgMy4zNTktMTEuMTEzIDUuNTU3LTE3LjU3NSA1LjU1Ny0xNy40NDUgMC0zMS40MDItMTQuNzMyLTMxLjQwMi0zMi4xNzggMC0xNy43MDUgMTMuOTU3LTMyLjQzNyAzMS40MDItMzIuNDM3IDYuMzMzIDAgMTIuNTM1IDIuMDY3IDE3LjMxNiA1LjQyN3YtMjQuMjk0YzAtMy43NDggMy4xMDItNi45NzkgNy4xMDctNi45NzkgMy44NzcgMCA2Ljk3OSAzLjIzMSA2Ljk3OSA2Ljk3OXY3Ni41MDN6bS0zMS40MDItNDMuNTVjLTQuNjUyIDAtOC45MTcgMS45MzgtMTIuMTQ2IDUuMjk4LTMuMjMxIDMuMjMxLTUuMTcgNy44ODItNS4xNyAxMy4wNTIgMCA0LjkxIDEuOTM4IDkuNTYyIDUuMTcgMTIuNzkzIDMuMjI5IDMuMzYxIDcuNDk0IDUuMjk5IDEyLjE0NiA1LjI5OSA0Ljc4MSAwIDguOTE3LTEuOTM4IDEyLjE0Ny01LjI5OSAzLjIzLTMuMjMgNS4xNjktNy44ODMgNS4xNjktMTIuNzkzIDAtNS4xNy0xLjkzOC05LjgyMS01LjE2OS0xMy4wNTItMy4yMy0zLjM2LTcuMzY2LTUuMjk4LTEyLjE0Ny01LjI5OHptNTUuOTkyLTMwLjI0YzAgMy44NzctMi45NzIgNy4xMDctNi45NzkgNy4xMDctMy44NzcgMC02Ljk3OC0zLjIzLTYuOTc4LTcuMTA3di0yLjcxNGE2Ljk1IDYuOTUgMCAwMTYuOTc4LTYuOTc5YzQuMDA3IDAgNi45NzkgMy4xMDIgNi45NzkgNi45Nzl6bTAgMjMuMzl2NTAuMzk5YzAgMy44NzctMi45NzIgNi45NzktNi45NzkgNi45NzlhNi45NSA2Ljk1IDAgMDEtNi45NzgtNi45NzlWMjcyLjY2YzAtNC4xMzUgMy4xMDEtNy4xMDggNi45NzgtNy4xMDggNC4wMDggMCA2Ljk3OSAyLjk3MyA2Ljk3OSA3LjEwOHptOC44OCAzOC44OWMyLjMyNi0zLjEgNi44NS0zLjQ4OCA5LjY5Mi0xLjAzMyAzLjM2IDIuODQ0IDkuMTc2IDUuODE0IDE0LjIxNSA1LjY4NiAzLjQ4OSAwIDYuNzItMS4xNjIgOC43ODgtMi40NTUgMS44MDktMS41NTEgMi4zMjUtMi44NDIgMi4zMjUtMy44NzcgMC0uNjQ2LS4xMjktLjkwNC0uMzg3LTEuMjkzLS4xMy0uMzg3LS42NDYtLjkwNC0xLjY4MS0xLjU0OS0xLjgwOS0xLjI5My01LjY4Ni0yLjcxNS0xMC4zMzgtMy42MTloLS4xMjljLTQuMDA3LS43NzUtNy44ODQtMS44MDktMTEuMjQzLTMuMzYxLTMuNDg5LTEuNjc5LTYuNTkxLTQuMDA1LTguOTE3LTcuNDk0LTEuNDIxLTIuMzI2LTIuMTk2LTUuMTY5LTIuMTk2LTguMTQxIDAtNS45NDUgMy4zNi0xMC45ODUgNy42MjQtMTQuMjE2IDQuNTIzLTMuMTAxIDkuOTUxLTQuNzgxIDE1Ljg5Ni00Ljc4MSA4LjkxNiAwIDE1LjI0OCA0LjI2NSAxOS4zODQgNy4xMDcgMy4xMDIgMi4wNjggNC4wMDYgNi4zMzMgMi4wNjcgOS41NjItMi4wNjcgMy4xMDItNi4zMzIgNC4wMDctOS41NjIgMS44MS00LjEzNS0yLjcxMy03Ljc1NC00Ljc4Mi0xMS44ODktNC43ODItMy4yMzEgMC02LjA3NCAxLjAzNC03Ljc1NCAyLjMyNi0xLjY4IDEuMTY0LTIuMDY3IDIuMzI3LTIuMDY3IDIuOTczIDAgLjUxNiAwIC42NDYuMjU4IDEuMDMzLjEzLjI1OC41MTcuNzc1IDEuNDIyIDEuMjkyIDEuNjgxIDEuMTYzIDUuMDQgMi4zMjYgOS40MzQgMy4xMDJsLjEyOS4xM2guMTNjNC4yNjUuNzc0IDguMjcxIDEuOTM4IDEyLjAxOCAzLjc0NyAzLjQ4OSAxLjU1MSA2Ljk3OSA0LjAwNiA5LjE3NiA3LjYyNCAxLjU1MSAyLjU4NCAyLjQ1NSA1LjU1NyAyLjQ1NSA4LjUyOSAwIDYuMzMyLTMuNDg5IDExLjYzMS04LjE0MiAxNC45OS00LjY1MiAzLjIzLTEwLjQ2OCA1LjE3LTE2LjggNS4xNy0xMC4wNzktLjEyOS0xNy44MzMtNC43ODEtMjMuMDAyLTguOTE2LTIuODQ0LTIuMzI2LTMuMjMxLTYuNzIxLS45MDYtOS41NjR6Ii8+PHBhdGggZmlsbD0iI2E0MWUxMSIgZD0iTTMzNC43NyAzMzkuNTRjLTkuMDc4IDQuNzMyLTU2LjEwNiAyNC4wNjgtNjYuMTE4IDI5LjI4Ny0xMC4wMTIgNS4yMjEtMTUuNTc0IDUuMTctMjMuNDgzIDEuMzg5LTcuOTA5LTMuNzgxLTU3Ljk1NS0yMy45OTYtNjYuOTctMjguMzA1LTQuNTA2LTIuMTU0LTYuODc1LTMuOTcxLTYuODc1LTUuNjg4di0xNy4xOTVzNjUuMTUzLTE0LjE4NCA3NS42NzItMTcuOTU3YzEwLjUxOC0zLjc3NCAxNC4xNjctMy45MSAyMy4xMTgtLjYzMSA4Ljk1MiAzLjI3OSA2Mi40NzQgMTIuOTM2IDcxLjMyMSAxNi4xNzZsLS4wMDQgMTYuOTUxYy4wMDEgMS43LTIuMDQgMy41NjUtNi42NjEgNS45NzN6Ii8+PHBhdGggZmlsbD0iI2Q4MmMyMCIgZD0iTTMzNC43NyAzMjIuMzRjLTkuMDc4IDQuNzMtNTYuMTA2IDI0LjA2OC02Ni4xMTggMjkuMjg3LTEwLjAxMiA1LjIyMS0xNS41NzQgNS4xNy0yMy40ODMgMS4zODktNy45MS0zLjc3OS01Ny45NTUtMjMuOTk4LTY2Ljk3LTI4LjMwNS05LjAxNS00LjMwOS05LjIwNC03LjI3NS0uMzQ4LTEwLjc0MiA4Ljg1NS0zLjQ2OSA1OC42MjYtMjIuOTk2IDY5LjE0Ni0yNi43NyAxMC41MTgtMy43NzIgMTQuMTY3LTMuOTEgMjMuMTE4LS42MyA4Ljk1MiAzLjI3OSA1NS42OTkgMjEuODg2IDY0LjU0NSAyNS4xMjYgOC44NDggMy4yNDMgOS4xODggNS45MTMuMTEgMTAuNjQ1eiIvPjxwYXRoIGZpbGw9IiNhNDFlMTEiIGQ9Ik0zMzQuNzcgMzExLjVjLTkuMDc4IDQuNzMyLTU2LjEwNiAyNC4wNjgtNjYuMTE4IDI5LjI4OS0xMC4wMTIgNS4yMTktMTUuNTc0IDUuMTY4LTIzLjQ4MyAxLjM4Ny03LjkxLTMuNzc5LTU3Ljk1NS0yMy45OTYtNjYuOTctMjguMzA1LTQuNTA2LTIuMTU0LTYuODc1LTMuOTY5LTYuODc1LTUuNjg2di0xNy4xOTdzNjUuMTUzLTE0LjE4MyA3NS42NzItMTcuOTU3YzEwLjUxOC0zLjc3MyAxNC4xNjctMy45MSAyMy4xMTgtLjYzMSA4Ljk1MiAzLjI3OSA2Mi40NzQgMTIuOTM0IDcxLjMyMSAxNi4xNzVsLS4wMDQgMTYuOTUzYy4wMDEgMS42OTktMi4wNCAzLjU2NC02LjY2MSA1Ljk3MnoiLz48cGF0aCBmaWxsPSIjZDgyYzIwIiBkPSJNMzM0Ljc3IDI5NC4zYy05LjA3OCA0LjczMi01Ni4xMDYgMjQuMDY4LTY2LjExOCAyOS4yODktMTAuMDEyIDUuMjE5LTE1LjU3NCA1LjE2OC0yMy40ODMgMS4zODctNy45MS0zLjc3OS01Ny45NTUtMjMuOTk3LTY2Ljk3LTI4LjMwNXMtOS4yMDQtNy4yNzQtLjM0OC0xMC43NDNjOC44NTUtMy40NjcgNTguNjI2LTIyLjk5NSA2OS4xNDYtMjYuNzY4IDEwLjUxOC0zLjc3MyAxNC4xNjctMy45MSAyMy4xMTgtLjYzMSA4Ljk1MiAzLjI3OSA1NS42OTkgMjEuODg1IDY0LjU0NSAyNS4xMjYgOC44NDggMy4yNDIgOS4xODggNS45MTMuMTEgMTAuNjQ1eiIvPjxwYXRoIGZpbGw9IiNhNDFlMTEiIGQ9Ik0zMzQuNzcgMjgyLjQyYy05LjA3OCA0LjczMi01Ni4xMDYgMjQuMDY5LTY2LjExOCAyOS4yOS0xMC4wMTIgNS4yMTktMTUuNTc0IDUuMTY4LTIzLjQ4MyAxLjM4Ny03LjkxLTMuNzc5LTU3Ljk1NS0yMy45OTctNjYuOTctMjguMzA1LTQuNTA2LTIuMTU0LTYuODc1LTMuOTctNi44NzUtNS42ODZ2LTE3LjE5N3M2NS4xNTMtMTQuMTgzIDc1LjY3Mi0xNy45NTZjMTAuNTE4LTMuNzc0IDE0LjE2Ny0zLjkxIDIzLjExOC0uNjMxIDguOTUyIDMuMjc5IDYyLjQ3NCAxMi45MzQgNzEuMzIxIDE2LjE3NWwtLjAwNCAxNi45NTJjLjAwMSAxLjY5OC0yLjA0IDMuNTYzLTYuNjYxIDUuOTcxeiIvPjxwYXRoIGZpbGw9IiNkODJjMjAiIGQ9Ik0zMzQuNzcgMjY1LjIyYy05LjA3OCA0LjczMi01Ni4xMDYgMjQuMDY5LTY2LjExOCAyOS4yODktMTAuMDEyIDUuMjE5LTE1LjU3NCA1LjE2OC0yMy40ODMgMS4zODgtNy45MDktMy43OC01Ny45NTUtMjMuOTk3LTY2Ljk3LTI4LjMwNXMtOS4yMDQtNy4yNzUtLjM0OC0xMC43NDNjOC44NTUtMy40NjggNTguNjI2LTIyLjk5NCA2OS4xNDYtMjYuNzY4IDEwLjUxOC0zLjc3NCAxNC4xNjctMy45MSAyMy4xMTgtLjYzIDguOTUyIDMuMjc5IDU1LjY5OSAyMS44ODUgNjQuNTQ1IDI1LjEyNiA4Ljg0OCAzLjI0IDkuMTg4IDUuOTEyLjExIDEwLjY0M3oiLz48cGF0aCBkPSJNMjYwLjYzIDI1OC4xM2wtNS4zMy04Ljg2LTE3LjAyLTEuNTMgMTIuNy00LjU4LTMuODEtNy4wMyAxMS44OSA0LjY1IDExLjIxLTMuNjctMy4wMyA3LjI3IDExLjQzIDQuMjgtMTQuNzQgMS41M3ptMTEuMDMgMTEuNTlsLTExLjkxIDE3LjQ2LTI3LjUxLTExLjQxeiIgZmlsbD0iI0ZGRiIvPjxlbGxpcHNlIGN4PSIyMjEuNjEiIHJ4PSIyMS4wNjkiIHJ5PSI4LjE2NyIgY3k9IjI2MS4yNCIgZmlsbD0iI0ZGRiIvPjxwYXRoIGQ9Ik0yOTYuMTEgMjY5LjI2bC0uMDItMTguNDMgMjMuMzMgOS4yMnoiIGZpbGw9IiM3YTBjMDAiLz48cGF0aCBkPSJNMjk2LjExIDI2OS4yNmwtMi41My45OS0yMy4zLTkuMjEgMjUuODEtMTAuMjF6IiBmaWxsPSIjYWQyMTE1Ii8+PC9nPjwvc3ZnPg==;" parent="1" vertex="1">
          <mxGeometry x="997.5" y="1300" width="195.01" height="130" as="geometry" />
        </mxCell>
        <mxCell id="0f2K5YkPgI1Y6RwSM53R-109" value="" style="endArrow=classic;html=1;rounded=0;exitX=0.5;exitY=0;exitDx=0;exitDy=0;entryX=0.5;entryY=1;entryDx=0;entryDy=0;strokeWidth=2;" parent="1" source="0f2K5YkPgI1Y6RwSM53R-108" target="0f2K5YkPgI1Y6RwSM53R-95" edge="1">
          <mxGeometry width="50" height="50" relative="1" as="geometry">
            <mxPoint x="800" y="1330" as="sourcePoint" />
            <mxPoint x="850" y="1280" as="targetPoint" />
          </mxGeometry>
        </mxCell>
        <mxCell id="0f2K5YkPgI1Y6RwSM53R-110" value="&lt;font style=&quot;font-size: 17px;&quot;&gt;默认配置信息&lt;/font&gt;" style="text;html=1;strokeColor=none;fillColor=none;align=center;verticalAlign=middle;whiteSpace=wrap;rounded=0;" parent="1" vertex="1">
          <mxGeometry x="1350" y="1250" width="110" height="30" as="geometry" />
        </mxCell>
        <mxCell id="0f2K5YkPgI1Y6RwSM53R-111" value="&lt;font style=&quot;font-size: 16px;&quot;&gt;恢复配置&lt;/font&gt;" style="text;html=1;strokeColor=none;fillColor=none;align=center;verticalAlign=middle;whiteSpace=wrap;rounded=0;" parent="1" vertex="1">
          <mxGeometry x="1100" y="1260" width="80" height="30" as="geometry" />
        </mxCell>
        <mxCell id="0f2K5YkPgI1Y6RwSM53R-112" value="" style="group" parent="1" vertex="1" connectable="0">
          <mxGeometry x="580" y="1810" width="190" height="110" as="geometry" />
        </mxCell>
        <mxCell id="0f2K5YkPgI1Y6RwSM53R-113" value="" style="group" parent="0f2K5YkPgI1Y6RwSM53R-112" vertex="1" connectable="0">
          <mxGeometry x="10" y="20" width="60" height="88" as="geometry" />
        </mxCell>
        <mxCell id="0f2K5YkPgI1Y6RwSM53R-114" value="" style="sketch=0;outlineConnect=0;fontColor=#232F3E;gradientColor=none;fillColor=#232F3D;strokeColor=none;dashed=0;verticalLabelPosition=bottom;verticalAlign=top;align=center;html=1;fontSize=12;fontStyle=0;aspect=fixed;pointerEvents=1;shape=mxgraph.aws4.servers;" parent="0f2K5YkPgI1Y6RwSM53R-113" vertex="1">
          <mxGeometry width="58" height="58" as="geometry" />
        </mxCell>
        <mxCell id="0f2K5YkPgI1Y6RwSM53R-115" value="Worker" style="text;html=1;strokeColor=none;fillColor=none;align=center;verticalAlign=middle;whiteSpace=wrap;rounded=0;" parent="0f2K5YkPgI1Y6RwSM53R-113" vertex="1">
          <mxGeometry y="58" width="60" height="30" as="geometry" />
        </mxCell>
        <mxCell id="0f2K5YkPgI1Y6RwSM53R-116" value="" style="group" parent="0f2K5YkPgI1Y6RwSM53R-112" vertex="1" connectable="0">
          <mxGeometry x="110" y="20" width="60" height="88" as="geometry" />
        </mxCell>
        <mxCell id="0f2K5YkPgI1Y6RwSM53R-117" value="" style="sketch=0;outlineConnect=0;fontColor=#232F3E;gradientColor=none;fillColor=#232F3D;strokeColor=none;dashed=0;verticalLabelPosition=bottom;verticalAlign=top;align=center;html=1;fontSize=12;fontStyle=0;aspect=fixed;pointerEvents=1;shape=mxgraph.aws4.servers;" parent="0f2K5YkPgI1Y6RwSM53R-116" vertex="1">
          <mxGeometry width="58" height="58" as="geometry" />
        </mxCell>
        <mxCell id="0f2K5YkPgI1Y6RwSM53R-118" value="Worker" style="text;html=1;strokeColor=none;fillColor=none;align=center;verticalAlign=middle;whiteSpace=wrap;rounded=0;" parent="0f2K5YkPgI1Y6RwSM53R-116" vertex="1">
          <mxGeometry y="58" width="60" height="30" as="geometry" />
        </mxCell>
        <mxCell id="0f2K5YkPgI1Y6RwSM53R-119" value="" style="rounded=0;whiteSpace=wrap;html=1;fillColor=none;strokeWidth=2;" parent="0f2K5YkPgI1Y6RwSM53R-112" vertex="1">
          <mxGeometry width="190" height="110" as="geometry" />
        </mxCell>
        <mxCell id="0f2K5YkPgI1Y6RwSM53R-120" value="" style="group" parent="1" vertex="1" connectable="0">
          <mxGeometry x="840" y="1800" width="190" height="121" as="geometry" />
        </mxCell>
        <mxCell id="0f2K5YkPgI1Y6RwSM53R-121" value="" style="group" parent="0f2K5YkPgI1Y6RwSM53R-120" vertex="1" connectable="0">
          <mxGeometry x="10" y="22" width="60" height="88" as="geometry" />
        </mxCell>
        <mxCell id="0f2K5YkPgI1Y6RwSM53R-122" value="" style="sketch=0;outlineConnect=0;fontColor=#232F3E;gradientColor=none;fillColor=#232F3D;strokeColor=none;dashed=0;verticalLabelPosition=bottom;verticalAlign=top;align=center;html=1;fontSize=12;fontStyle=0;aspect=fixed;pointerEvents=1;shape=mxgraph.aws4.servers;" parent="0f2K5YkPgI1Y6RwSM53R-121" vertex="1">
          <mxGeometry width="58" height="58" as="geometry" />
        </mxCell>
        <mxCell id="0f2K5YkPgI1Y6RwSM53R-123" value="Worker" style="text;html=1;strokeColor=none;fillColor=none;align=center;verticalAlign=middle;whiteSpace=wrap;rounded=0;" parent="0f2K5YkPgI1Y6RwSM53R-121" vertex="1">
          <mxGeometry y="58" width="60" height="30" as="geometry" />
        </mxCell>
        <mxCell id="0f2K5YkPgI1Y6RwSM53R-124" value="" style="group" parent="0f2K5YkPgI1Y6RwSM53R-120" vertex="1" connectable="0">
          <mxGeometry x="110" y="22" width="80" height="99" as="geometry" />
        </mxCell>
        <mxCell id="0f2K5YkPgI1Y6RwSM53R-125" value="" style="sketch=0;outlineConnect=0;fontColor=#232F3E;gradientColor=none;fillColor=#232F3D;strokeColor=none;dashed=0;verticalLabelPosition=bottom;verticalAlign=top;align=center;html=1;fontSize=12;fontStyle=0;aspect=fixed;pointerEvents=1;shape=mxgraph.aws4.servers;" parent="0f2K5YkPgI1Y6RwSM53R-124" vertex="1">
          <mxGeometry width="58" height="58" as="geometry" />
        </mxCell>
        <mxCell id="0f2K5YkPgI1Y6RwSM53R-126" value="Worker" style="text;html=1;strokeColor=none;fillColor=none;align=center;verticalAlign=middle;whiteSpace=wrap;rounded=0;" parent="0f2K5YkPgI1Y6RwSM53R-124" vertex="1">
          <mxGeometry y="58" width="60" height="30" as="geometry" />
        </mxCell>
        <mxCell id="0f2K5YkPgI1Y6RwSM53R-127" value="" style="rounded=0;whiteSpace=wrap;html=1;fillColor=none;strokeWidth=2;movable=1;resizable=1;rotatable=1;deletable=1;editable=1;locked=0;connectable=1;" parent="0f2K5YkPgI1Y6RwSM53R-124" vertex="1">
          <mxGeometry x="-110" y="-11" width="190" height="110" as="geometry" />
        </mxCell>
        <mxCell id="0f2K5YkPgI1Y6RwSM53R-128" value="" style="group" parent="1" vertex="1" connectable="0">
          <mxGeometry x="629" y="1680" width="92" height="100" as="geometry" />
        </mxCell>
        <mxCell id="0f2K5YkPgI1Y6RwSM53R-129" value="" style="sketch=0;outlineConnect=0;fontColor=#232F3E;gradientColor=none;fillColor=#232F3D;strokeColor=none;dashed=0;verticalLabelPosition=bottom;verticalAlign=top;align=center;html=1;fontSize=12;fontStyle=0;aspect=fixed;pointerEvents=1;shape=mxgraph.aws4.servers;" parent="0f2K5YkPgI1Y6RwSM53R-128" vertex="1">
          <mxGeometry x="17" width="58" height="58" as="geometry" />
        </mxCell>
        <mxCell id="0f2K5YkPgI1Y6RwSM53R-131" value="" style="group" parent="1" vertex="1" connectable="0">
          <mxGeometry x="889" y="1680" width="92" height="100" as="geometry" />
        </mxCell>
        <mxCell id="0f2K5YkPgI1Y6RwSM53R-132" value="" style="sketch=0;outlineConnect=0;fontColor=#232F3E;gradientColor=none;fillColor=#232F3D;strokeColor=none;dashed=0;verticalLabelPosition=bottom;verticalAlign=top;align=center;html=1;fontSize=12;fontStyle=0;aspect=fixed;pointerEvents=1;shape=mxgraph.aws4.servers;" parent="0f2K5YkPgI1Y6RwSM53R-131" vertex="1">
          <mxGeometry x="17" width="58" height="58" as="geometry" />
        </mxCell>
        <mxCell id="0f2K5YkPgI1Y6RwSM53R-134" value="&lt;font style=&quot;font-size: 16px;&quot;&gt;心跳&lt;/font&gt;" style="text;strokeColor=none;fillColor=none;align=left;verticalAlign=middle;spacingLeft=4;spacingRight=4;overflow=hidden;points=[[0,0.5],[1,0.5]];portConstraint=eastwest;rotatable=0;whiteSpace=wrap;html=1;" parent="0f2K5YkPgI1Y6RwSM53R-131" vertex="1">
          <mxGeometry x="-40" y="70" width="80" height="30" as="geometry" />
        </mxCell>
        <mxCell id="0f2K5YkPgI1Y6RwSM53R-135" style="edgeStyle=orthogonalEdgeStyle;rounded=0;orthogonalLoop=1;jettySize=auto;html=1;" parent="1" source="0f2K5YkPgI1Y6RwSM53R-129" target="0f2K5YkPgI1Y6RwSM53R-119" edge="1">
          <mxGeometry relative="1" as="geometry">
            <mxPoint x="675" y="1730" as="sourcePoint" />
          </mxGeometry>
        </mxCell>
        <mxCell id="0f2K5YkPgI1Y6RwSM53R-136" style="edgeStyle=orthogonalEdgeStyle;rounded=0;orthogonalLoop=1;jettySize=auto;html=1;" parent="1" source="0f2K5YkPgI1Y6RwSM53R-132" target="0f2K5YkPgI1Y6RwSM53R-127" edge="1">
          <mxGeometry relative="1" as="geometry" />
        </mxCell>
        <mxCell id="0f2K5YkPgI1Y6RwSM53R-137" value="" style="endArrow=none;dashed=1;html=1;dashPattern=1 3;strokeWidth=3;rounded=0;exitX=0.205;exitY=0.182;exitDx=0;exitDy=0;exitPerimeter=0;strokeColor=#009900;" parent="1" source="0f2K5YkPgI1Y6RwSM53R-119" edge="1">
          <mxGeometry width="50" height="50" relative="1" as="geometry">
            <mxPoint x="409" y="1730" as="sourcePoint" />
            <mxPoint x="639" y="1720" as="targetPoint" />
            <Array as="points" />
          </mxGeometry>
        </mxCell>
        <mxCell id="0f2K5YkPgI1Y6RwSM53R-138" value="" style="endArrow=none;dashed=1;html=1;dashPattern=1 3;strokeWidth=3;rounded=0;strokeColor=#009900;" parent="1" edge="1">
          <mxGeometry width="50" height="50" relative="1" as="geometry">
            <mxPoint x="739" y="1820" as="sourcePoint" />
            <mxPoint x="709" y="1710" as="targetPoint" />
            <Array as="points" />
          </mxGeometry>
        </mxCell>
        <mxCell id="0f2K5YkPgI1Y6RwSM53R-139" value="" style="endArrow=none;dashed=1;html=1;dashPattern=1 3;strokeWidth=3;rounded=0;strokeColor=#009900;" parent="1" source="0f2K5YkPgI1Y6RwSM53R-122" edge="1">
          <mxGeometry width="50" height="50" relative="1" as="geometry">
            <mxPoint x="819" y="1750" as="sourcePoint" />
            <mxPoint x="899" y="1710" as="targetPoint" />
          </mxGeometry>
        </mxCell>
        <mxCell id="0f2K5YkPgI1Y6RwSM53R-140" value="" style="endArrow=none;dashed=1;html=1;dashPattern=1 3;strokeWidth=3;rounded=0;strokeColor=#FF0000;" parent="1" target="0f2K5YkPgI1Y6RwSM53R-125" edge="1">
          <mxGeometry width="50" height="50" relative="1" as="geometry">
            <mxPoint x="969" y="1700" as="sourcePoint" />
            <mxPoint x="1169" y="1700" as="targetPoint" />
          </mxGeometry>
        </mxCell>
        <mxCell id="0f2K5YkPgI1Y6RwSM53R-141" value="&lt;font style=&quot;font-size: 16px;&quot;&gt;心跳&lt;/font&gt;" style="text;strokeColor=none;fillColor=none;align=left;verticalAlign=middle;spacingLeft=4;spacingRight=4;overflow=hidden;points=[[0,0.5],[1,0.5]];portConstraint=eastwest;rotatable=0;whiteSpace=wrap;html=1;" parent="1" vertex="1">
          <mxGeometry x="589" y="1750" width="80" height="30" as="geometry" />
        </mxCell>
        <mxCell id="0f2K5YkPgI1Y6RwSM53R-143" value="&lt;font style=&quot;font-size: 16px;&quot;&gt;心跳&lt;/font&gt;" style="text;strokeColor=none;fillColor=none;align=left;verticalAlign=middle;spacingLeft=4;spacingRight=4;overflow=hidden;points=[[0,0.5],[1,0.5]];portConstraint=eastwest;rotatable=0;whiteSpace=wrap;html=1;" parent="1" vertex="1">
          <mxGeometry x="730" y="1740" width="80" height="30" as="geometry" />
        </mxCell>
        <mxCell id="0f2K5YkPgI1Y6RwSM53R-130" value="&lt;font style=&quot;font-size: 16px;&quot;&gt;manager&lt;/font&gt;" style="text;html=1;strokeColor=none;fillColor=none;align=center;verticalAlign=middle;whiteSpace=wrap;rounded=0;" parent="1" vertex="1">
          <mxGeometry x="629" y="1650" width="92" height="30" as="geometry" />
        </mxCell>
        <mxCell id="0f2K5YkPgI1Y6RwSM53R-133" value="&lt;font style=&quot;font-size: 16px;&quot;&gt;manager&lt;/font&gt;" style="text;html=1;strokeColor=none;fillColor=none;align=center;verticalAlign=middle;whiteSpace=wrap;rounded=0;" parent="1" vertex="1">
          <mxGeometry x="889" y="1650" width="92" height="30" as="geometry" />
        </mxCell>
        <mxCell id="0f2K5YkPgI1Y6RwSM53R-145" value="" style="shape=umlDestroy;whiteSpace=wrap;html=1;strokeWidth=3;targetShapes=umlLifeline;strokeColor=#FF0000;" parent="1" vertex="1">
          <mxGeometry x="990" y="1760" width="30" height="30" as="geometry" />
        </mxCell>
        <mxCell id="0f2K5YkPgI1Y6RwSM53R-146" value="&lt;font color=&quot;#ff0000&quot; style=&quot;font-size: 16px;&quot;&gt;心跳包未定时刷新，判断程序可能崩溃&lt;/font&gt;" style="text;strokeColor=none;fillColor=none;align=left;verticalAlign=middle;spacingLeft=4;spacingRight=4;overflow=hidden;points=[[0,0.5],[1,0.5]];portConstraint=eastwest;rotatable=0;whiteSpace=wrap;html=1;" parent="1" vertex="1">
          <mxGeometry x="1020.01" y="1755" width="179.99" height="40" as="geometry" />
        </mxCell>
        <mxCell id="H0nsU_ZC4IHtGFfJjAbq-1" value="" style="rounded=0;whiteSpace=wrap;html=1;" vertex="1" parent="1">
          <mxGeometry x="1420" y="1676" width="120" height="220" as="geometry" />
        </mxCell>
        <mxCell id="H0nsU_ZC4IHtGFfJjAbq-2" value="" style="rounded=0;whiteSpace=wrap;html=1;" vertex="1" parent="1">
          <mxGeometry x="960" y="1560" width="120" height="60" as="geometry" />
        </mxCell>
        <mxCell id="H0nsU_ZC4IHtGFfJjAbq-3" value="" style="rounded=0;whiteSpace=wrap;html=1;" vertex="1" parent="1">
          <mxGeometry x="960" y="1560" width="120" height="60" as="geometry" />
        </mxCell>
        <mxCell id="H0nsU_ZC4IHtGFfJjAbq-8" value="" style="rounded=0;whiteSpace=wrap;html=1;" vertex="1" parent="1">
          <mxGeometry x="960" y="1560" width="120" height="60" as="geometry" />
        </mxCell>
        <mxCell id="H0nsU_ZC4IHtGFfJjAbq-22" value="进 程 1" style="rounded=0;whiteSpace=wrap;html=1;" vertex="1" parent="1">
          <mxGeometry x="1420" y="1840" width="120" height="56" as="geometry" />
        </mxCell>
        <mxCell id="H0nsU_ZC4IHtGFfJjAbq-23" value="" style="rounded=0;whiteSpace=wrap;html=1;" vertex="1" parent="1">
          <mxGeometry x="1721" y="1680.25" width="120" height="220" as="geometry" />
        </mxCell>
        <mxCell id="H0nsU_ZC4IHtGFfJjAbq-25" value="进 程 2" style="rounded=0;whiteSpace=wrap;html=1;" vertex="1" parent="1">
          <mxGeometry x="1721" y="1810.25" width="120" height="90" as="geometry" />
        </mxCell>
        <mxCell id="H0nsU_ZC4IHtGFfJjAbq-40" value="" style="rounded=0;whiteSpace=wrap;html=1;" vertex="1" parent="1">
          <mxGeometry x="2020" y="1676" width="120" height="220" as="geometry" />
        </mxCell>
        <mxCell id="H0nsU_ZC4IHtGFfJjAbq-41" value="堆 Heap" style="rounded=0;whiteSpace=wrap;html=1;" vertex="1" parent="1">
          <mxGeometry x="2020" y="1676" width="120" height="130" as="geometry" />
        </mxCell>
        <mxCell id="H0nsU_ZC4IHtGFfJjAbq-45" value="进 程 1" style="rounded=0;whiteSpace=wrap;html=1;" vertex="1" parent="1">
          <mxGeometry x="2020" y="1806" width="120" height="90" as="geometry" />
        </mxCell>
        <mxCell id="H0nsU_ZC4IHtGFfJjAbq-61" value="" style="shape=cross;whiteSpace=wrap;html=1;rotation=-45;fillColor=#FF0000;" vertex="1" parent="1">
          <mxGeometry x="2040" y="1860" width="80" height="80" as="geometry" />
        </mxCell>
        <mxCell id="H0nsU_ZC4IHtGFfJjAbq-63" value="" style="rounded=0;whiteSpace=wrap;html=1;" vertex="1" parent="1">
          <mxGeometry x="2500" y="1680" width="120" height="220" as="geometry" />
        </mxCell>
        <mxCell id="H0nsU_ZC4IHtGFfJjAbq-65" value="进 程 4" style="rounded=0;whiteSpace=wrap;html=1;" vertex="1" parent="1">
          <mxGeometry x="2500" y="1859" width="120" height="41" as="geometry" />
        </mxCell>
        <mxCell id="H0nsU_ZC4IHtGFfJjAbq-70" value="" style="shape=flexArrow;endArrow=classic;html=1;rounded=0;exitX=0.929;exitY=1.063;exitDx=0;exitDy=0;exitPerimeter=0;" edge="1" parent="1">
          <mxGeometry width="50" height="50" relative="1" as="geometry">
            <mxPoint x="2490.0009999999997" y="1614.08" as="sourcePoint" />
            <mxPoint x="2550" y="1679" as="targetPoint" />
          </mxGeometry>
        </mxCell>
        <mxCell id="H0nsU_ZC4IHtGFfJjAbq-73" value="同步堆中内存数据到分布式redis 中存储" style="text;html=1;strokeColor=none;fillColor=none;align=center;verticalAlign=middle;whiteSpace=wrap;rounded=0;" vertex="1" parent="1">
          <mxGeometry x="1302" y="1640" width="260" height="30" as="geometry" />
        </mxCell>
        <mxCell id="H0nsU_ZC4IHtGFfJjAbq-74" value="从Redis 中拉取进程 1 中的数据，恢复到进程 4 中" style="text;html=1;strokeColor=none;fillColor=none;align=left;verticalAlign=middle;whiteSpace=wrap;rounded=0;" vertex="1" parent="1">
          <mxGeometry x="2540" y="1619" width="161" height="30" as="geometry" />
        </mxCell>
        <mxCell id="H0nsU_ZC4IHtGFfJjAbq-76" value="新拉起进程" style="text;html=1;strokeColor=none;fillColor=none;align=center;verticalAlign=middle;whiteSpace=wrap;rounded=0;" vertex="1" parent="1">
          <mxGeometry x="2520" y="1910" width="80" height="30" as="geometry" />
        </mxCell>
        <mxCell id="H0nsU_ZC4IHtGFfJjAbq-78" value="" style="html=1;shadow=0;dashed=0;align=center;verticalAlign=middle;shape=mxgraph.arrows2.uTurnArrow;dy=11;arrowHead=47.33;dx2=21;" vertex="1" parent="1">
          <mxGeometry x="1369" y="1760" width="51" height="90" as="geometry" />
        </mxCell>
        <mxCell id="H0nsU_ZC4IHtGFfJjAbq-81" value="" style="shape=flexArrow;endArrow=classic;html=1;rounded=0;exitX=1;exitY=0.5;exitDx=0;exitDy=0;entryX=0.275;entryY=1.004;entryDx=0;entryDy=0;entryPerimeter=0;" edge="1" parent="1" source="H0nsU_ZC4IHtGFfJjAbq-22" target="H0nsU_ZC4IHtGFfJjAbq-9">
          <mxGeometry width="50" height="50" relative="1" as="geometry">
            <mxPoint x="1690" y="2030" as="sourcePoint" />
            <mxPoint x="1590" y="1620" as="targetPoint" />
            <Array as="points">
              <mxPoint x="1590" y="1850" />
            </Array>
          </mxGeometry>
        </mxCell>
        <mxCell id="H0nsU_ZC4IHtGFfJjAbq-82" value="" style="html=1;shadow=0;dashed=0;align=center;verticalAlign=middle;shape=mxgraph.arrows2.uTurnArrow;dy=11;arrowHead=47.33;dx2=21;" vertex="1" parent="1">
          <mxGeometry x="1670" y="1759.75" width="51" height="90" as="geometry" />
        </mxCell>
        <mxCell id="H0nsU_ZC4IHtGFfJjAbq-83" value="" style="shape=flexArrow;endArrow=classic;html=1;rounded=0;exitX=1;exitY=0.5;exitDx=0;exitDy=0;entryX=0.25;entryY=1;entryDx=0;entryDy=0;" edge="1" parent="1">
          <mxGeometry width="50" height="50" relative="1" as="geometry">
            <mxPoint x="1841" y="1850.75" as="sourcePoint" />
            <mxPoint x="1888" y="1609.75" as="targetPoint" />
            <Array as="points">
              <mxPoint x="1891" y="1849.75" />
            </Array>
          </mxGeometry>
        </mxCell>
        <mxCell id="H0nsU_ZC4IHtGFfJjAbq-86" value="堆 Heap" style="text;html=1;strokeColor=none;fillColor=none;align=center;verticalAlign=middle;whiteSpace=wrap;rounded=0;" vertex="1" parent="1">
          <mxGeometry x="1450" y="1816" width="60" height="30" as="geometry" />
        </mxCell>
        <mxCell id="H0nsU_ZC4IHtGFfJjAbq-110" value="" style="shape=image;verticalLabelPosition=bottom;labelBackgroundColor=default;verticalAlign=top;aspect=fixed;imageAspect=0;image=data:image/svg+xml,PHN2ZyB4bWxucz0iaHR0cDovL3d3dy53My5vcmcvMjAwMC9zdmciIHZpZXdCb3g9Ii02OC42MDM3IC0zNi40NTA3NSA1OTQuNTY1NCAyMTguNzA0NSIgd2lkdGg9IjEyMDAiIGhlaWdodD0iODAwIj48ZyB0cmFuc2Zvcm09InRyYW5zbGF0ZSgtMTcxLjMyMiAtMjI3LjExMykiPjxwYXRoIGZpbGw9IiM2MzY0NjYiIGQ9Ik00MjEuNjQgMjcyLjI3YzAgMy42MTktMi45NzMgNi44NDktNi44NSA2Ljg0OS0yLjk3MyAwLTUuNTU3Ljc3Ni03Ljc1NCAyLjQ1Ni0yLjQ1NSAxLjU1Mi00LjM5NCAzLjc0OC01Ljk0NCA2LjIwMy0zLjEwMiA0LjEzNi00LjY1MSA5LjA0Ni01LjI5OCAxMC44NTR2MjQuNTU0YzAgMy43NDgtMy4yMyA2Ljg1LTcuMTA3IDYuODUtMy43NDggMC02Ljg0OS0zLjEwMi02Ljg0OS02Ljg1VjI3Mi4yN2MwLTMuNzQ4IDMuMTAxLTYuNzIgNi44NDktNi43MiAzLjg3NyAwIDcuMTA3IDIuOTczIDcuMTA3IDYuNzJ2LjkwNWMuNzc1LS45MDUgMS44MDktMS45MzggMi43MTQtMi41ODUgNC4yNjUtMi44NDIgOS44MjEtNS4xNjkgMTYuMjgyLTUuMDQgMy44NzcgMCA2Ljg1IDIuOTczIDYuODUgNi43MnptLTMuNzkgMjUuNDZjLjEzLTE3LjU3NSAxMy44MjgtMzIuMzA3IDMxLjUzMS0zMi4zMDcgMTYuOCAwIDMwLjExIDEyLjUzNSAzMS4xNDUgMjkuOTh2LjY0NmMwIC4yNTkgMCAuOTA0LS4xMjkgMS4xNjMtLjM4OSAzLjEwMi0zLjEwMiA1LjE3LTYuNzIxIDUuMTdoLTQxLjA5NGMuNjQ2IDIuOTczIDIuMDY3IDYuMzMyIDQuMzk0IDguNTI5IDIuNzE0IDMuMTAyIDcuODgzIDUuNDI2IDEyLjQwNSA1LjgxNCA0LjY1Mi4zODcgMTAuMjA5LS43NzUgMTMuNDQtMy4yMyAyLjcxMy0yLjg0NCA4LjAxMi0yLjQ1NSA5LjY5Mi0uMzg5IDEuNjggMS44MTEgMi45NzIgNS42ODggMCA4LjQtNi4zMzMgNS44MTQtMTMuOTU3IDguNTI5LTIzLjEzMyA4LjUyOS0xNy43MDItLjEyNy0zMS40LTE0LjczLTMxLjUzLTMyLjMwNXptMTQuMDg2LTYuMzMyaDM2LjU3MWMtMS4yOTItNS4xNjktNy44ODMtMTIuNzkzLTE5LjEyNi0xMy42OTgtMTAuOTgzLjUxNi0xNi40MTEgOC40LTE3LjQ0NSAxMy42OTh6TTU0Ni4zNiAzMjMuMDZjMCAzLjc0OC0zLjEwMiA2Ljk3OS02Ljk3OSA2Ljk3OS0zLjQ4OSAwLTYuMjAyLTIuNDU1LTYuODQ5LTUuNTU3LTQuOTEgMy4zNTktMTEuMTEzIDUuNTU3LTE3LjU3NSA1LjU1Ny0xNy40NDUgMC0zMS40MDItMTQuNzMyLTMxLjQwMi0zMi4xNzggMC0xNy43MDUgMTMuOTU3LTMyLjQzNyAzMS40MDItMzIuNDM3IDYuMzMzIDAgMTIuNTM1IDIuMDY3IDE3LjMxNiA1LjQyN3YtMjQuMjk0YzAtMy43NDggMy4xMDItNi45NzkgNy4xMDctNi45NzkgMy44NzcgMCA2Ljk3OSAzLjIzMSA2Ljk3OSA2Ljk3OXY3Ni41MDN6bS0zMS40MDItNDMuNTVjLTQuNjUyIDAtOC45MTcgMS45MzgtMTIuMTQ2IDUuMjk4LTMuMjMxIDMuMjMxLTUuMTcgNy44ODItNS4xNyAxMy4wNTIgMCA0LjkxIDEuOTM4IDkuNTYyIDUuMTcgMTIuNzkzIDMuMjI5IDMuMzYxIDcuNDk0IDUuMjk5IDEyLjE0NiA1LjI5OSA0Ljc4MSAwIDguOTE3LTEuOTM4IDEyLjE0Ny01LjI5OSAzLjIzLTMuMjMgNS4xNjktNy44ODMgNS4xNjktMTIuNzkzIDAtNS4xNy0xLjkzOC05LjgyMS01LjE2OS0xMy4wNTItMy4yMy0zLjM2LTcuMzY2LTUuMjk4LTEyLjE0Ny01LjI5OHptNTUuOTkyLTMwLjI0YzAgMy44NzctMi45NzIgNy4xMDctNi45NzkgNy4xMDctMy44NzcgMC02Ljk3OC0zLjIzLTYuOTc4LTcuMTA3di0yLjcxNGE2Ljk1IDYuOTUgMCAwMTYuOTc4LTYuOTc5YzQuMDA3IDAgNi45NzkgMy4xMDIgNi45NzkgNi45Nzl6bTAgMjMuMzl2NTAuMzk5YzAgMy44NzctMi45NzIgNi45NzktNi45NzkgNi45NzlhNi45NSA2Ljk1IDAgMDEtNi45NzgtNi45NzlWMjcyLjY2YzAtNC4xMzUgMy4xMDEtNy4xMDggNi45NzgtNy4xMDggNC4wMDggMCA2Ljk3OSAyLjk3MyA2Ljk3OSA3LjEwOHptOC44OCAzOC44OWMyLjMyNi0zLjEgNi44NS0zLjQ4OCA5LjY5Mi0xLjAzMyAzLjM2IDIuODQ0IDkuMTc2IDUuODE0IDE0LjIxNSA1LjY4NiAzLjQ4OSAwIDYuNzItMS4xNjIgOC43ODgtMi40NTUgMS44MDktMS41NTEgMi4zMjUtMi44NDIgMi4zMjUtMy44NzcgMC0uNjQ2LS4xMjktLjkwNC0uMzg3LTEuMjkzLS4xMy0uMzg3LS42NDYtLjkwNC0xLjY4MS0xLjU0OS0xLjgwOS0xLjI5My01LjY4Ni0yLjcxNS0xMC4zMzgtMy42MTloLS4xMjljLTQuMDA3LS43NzUtNy44ODQtMS44MDktMTEuMjQzLTMuMzYxLTMuNDg5LTEuNjc5LTYuNTkxLTQuMDA1LTguOTE3LTcuNDk0LTEuNDIxLTIuMzI2LTIuMTk2LTUuMTY5LTIuMTk2LTguMTQxIDAtNS45NDUgMy4zNi0xMC45ODUgNy42MjQtMTQuMjE2IDQuNTIzLTMuMTAxIDkuOTUxLTQuNzgxIDE1Ljg5Ni00Ljc4MSA4LjkxNiAwIDE1LjI0OCA0LjI2NSAxOS4zODQgNy4xMDcgMy4xMDIgMi4wNjggNC4wMDYgNi4zMzMgMi4wNjcgOS41NjItMi4wNjcgMy4xMDItNi4zMzIgNC4wMDctOS41NjIgMS44MS00LjEzNS0yLjcxMy03Ljc1NC00Ljc4Mi0xMS44ODktNC43ODItMy4yMzEgMC02LjA3NCAxLjAzNC03Ljc1NCAyLjMyNi0xLjY4IDEuMTY0LTIuMDY3IDIuMzI3LTIuMDY3IDIuOTczIDAgLjUxNiAwIC42NDYuMjU4IDEuMDMzLjEzLjI1OC41MTcuNzc1IDEuNDIyIDEuMjkyIDEuNjgxIDEuMTYzIDUuMDQgMi4zMjYgOS40MzQgMy4xMDJsLjEyOS4xM2guMTNjNC4yNjUuNzc0IDguMjcxIDEuOTM4IDEyLjAxOCAzLjc0NyAzLjQ4OSAxLjU1MSA2Ljk3OSA0LjAwNiA5LjE3NiA3LjYyNCAxLjU1MSAyLjU4NCAyLjQ1NSA1LjU1NyAyLjQ1NSA4LjUyOSAwIDYuMzMyLTMuNDg5IDExLjYzMS04LjE0MiAxNC45OS00LjY1MiAzLjIzLTEwLjQ2OCA1LjE3LTE2LjggNS4xNy0xMC4wNzktLjEyOS0xNy44MzMtNC43ODEtMjMuMDAyLTguOTE2LTIuODQ0LTIuMzI2LTMuMjMxLTYuNzIxLS45MDYtOS41NjR6Ii8+PHBhdGggZmlsbD0iI2E0MWUxMSIgZD0iTTMzNC43NyAzMzkuNTRjLTkuMDc4IDQuNzMyLTU2LjEwNiAyNC4wNjgtNjYuMTE4IDI5LjI4Ny0xMC4wMTIgNS4yMjEtMTUuNTc0IDUuMTctMjMuNDgzIDEuMzg5LTcuOTA5LTMuNzgxLTU3Ljk1NS0yMy45OTYtNjYuOTctMjguMzA1LTQuNTA2LTIuMTU0LTYuODc1LTMuOTcxLTYuODc1LTUuNjg4di0xNy4xOTVzNjUuMTUzLTE0LjE4NCA3NS42NzItMTcuOTU3YzEwLjUxOC0zLjc3NCAxNC4xNjctMy45MSAyMy4xMTgtLjYzMSA4Ljk1MiAzLjI3OSA2Mi40NzQgMTIuOTM2IDcxLjMyMSAxNi4xNzZsLS4wMDQgMTYuOTUxYy4wMDEgMS43LTIuMDQgMy41NjUtNi42NjEgNS45NzN6Ii8+PHBhdGggZmlsbD0iI2Q4MmMyMCIgZD0iTTMzNC43NyAzMjIuMzRjLTkuMDc4IDQuNzMtNTYuMTA2IDI0LjA2OC02Ni4xMTggMjkuMjg3LTEwLjAxMiA1LjIyMS0xNS41NzQgNS4xNy0yMy40ODMgMS4zODktNy45MS0zLjc3OS01Ny45NTUtMjMuOTk4LTY2Ljk3LTI4LjMwNS05LjAxNS00LjMwOS05LjIwNC03LjI3NS0uMzQ4LTEwLjc0MiA4Ljg1NS0zLjQ2OSA1OC42MjYtMjIuOTk2IDY5LjE0Ni0yNi43NyAxMC41MTgtMy43NzIgMTQuMTY3LTMuOTEgMjMuMTE4LS42MyA4Ljk1MiAzLjI3OSA1NS42OTkgMjEuODg2IDY0LjU0NSAyNS4xMjYgOC44NDggMy4yNDMgOS4xODggNS45MTMuMTEgMTAuNjQ1eiIvPjxwYXRoIGZpbGw9IiNhNDFlMTEiIGQ9Ik0zMzQuNzcgMzExLjVjLTkuMDc4IDQuNzMyLTU2LjEwNiAyNC4wNjgtNjYuMTE4IDI5LjI4OS0xMC4wMTIgNS4yMTktMTUuNTc0IDUuMTY4LTIzLjQ4MyAxLjM4Ny03LjkxLTMuNzc5LTU3Ljk1NS0yMy45OTYtNjYuOTctMjguMzA1LTQuNTA2LTIuMTU0LTYuODc1LTMuOTY5LTYuODc1LTUuNjg2di0xNy4xOTdzNjUuMTUzLTE0LjE4MyA3NS42NzItMTcuOTU3YzEwLjUxOC0zLjc3MyAxNC4xNjctMy45MSAyMy4xMTgtLjYzMSA4Ljk1MiAzLjI3OSA2Mi40NzQgMTIuOTM0IDcxLjMyMSAxNi4xNzVsLS4wMDQgMTYuOTUzYy4wMDEgMS42OTktMi4wNCAzLjU2NC02LjY2MSA1Ljk3MnoiLz48cGF0aCBmaWxsPSIjZDgyYzIwIiBkPSJNMzM0Ljc3IDI5NC4zYy05LjA3OCA0LjczMi01Ni4xMDYgMjQuMDY4LTY2LjExOCAyOS4yODktMTAuMDEyIDUuMjE5LTE1LjU3NCA1LjE2OC0yMy40ODMgMS4zODctNy45MS0zLjc3OS01Ny45NTUtMjMuOTk3LTY2Ljk3LTI4LjMwNXMtOS4yMDQtNy4yNzQtLjM0OC0xMC43NDNjOC44NTUtMy40NjcgNTguNjI2LTIyLjk5NSA2OS4xNDYtMjYuNzY4IDEwLjUxOC0zLjc3MyAxNC4xNjctMy45MSAyMy4xMTgtLjYzMSA4Ljk1MiAzLjI3OSA1NS42OTkgMjEuODg1IDY0LjU0NSAyNS4xMjYgOC44NDggMy4yNDIgOS4xODggNS45MTMuMTEgMTAuNjQ1eiIvPjxwYXRoIGZpbGw9IiNhNDFlMTEiIGQ9Ik0zMzQuNzcgMjgyLjQyYy05LjA3OCA0LjczMi01Ni4xMDYgMjQuMDY5LTY2LjExOCAyOS4yOS0xMC4wMTIgNS4yMTktMTUuNTc0IDUuMTY4LTIzLjQ4MyAxLjM4Ny03LjkxLTMuNzc5LTU3Ljk1NS0yMy45OTctNjYuOTctMjguMzA1LTQuNTA2LTIuMTU0LTYuODc1LTMuOTctNi44NzUtNS42ODZ2LTE3LjE5N3M2NS4xNTMtMTQuMTgzIDc1LjY3Mi0xNy45NTZjMTAuNTE4LTMuNzc0IDE0LjE2Ny0zLjkxIDIzLjExOC0uNjMxIDguOTUyIDMuMjc5IDYyLjQ3NCAxMi45MzQgNzEuMzIxIDE2LjE3NWwtLjAwNCAxNi45NTJjLjAwMSAxLjY5OC0yLjA0IDMuNTYzLTYuNjYxIDUuOTcxeiIvPjxwYXRoIGZpbGw9IiNkODJjMjAiIGQ9Ik0zMzQuNzcgMjY1LjIyYy05LjA3OCA0LjczMi01Ni4xMDYgMjQuMDY5LTY2LjExOCAyOS4yODktMTAuMDEyIDUuMjE5LTE1LjU3NCA1LjE2OC0yMy40ODMgMS4zODgtNy45MDktMy43OC01Ny45NTUtMjMuOTk3LTY2Ljk3LTI4LjMwNXMtOS4yMDQtNy4yNzUtLjM0OC0xMC43NDNjOC44NTUtMy40NjggNTguNjI2LTIyLjk5NCA2OS4xNDYtMjYuNzY4IDEwLjUxOC0zLjc3NCAxNC4xNjctMy45MSAyMy4xMTgtLjYzIDguOTUyIDMuMjc5IDU1LjY5OSAyMS44ODUgNjQuNTQ1IDI1LjEyNiA4Ljg0OCAzLjI0IDkuMTg4IDUuOTEyLjExIDEwLjY0M3oiLz48cGF0aCBkPSJNMjYwLjYzIDI1OC4xM2wtNS4zMy04Ljg2LTE3LjAyLTEuNTMgMTIuNy00LjU4LTMuODEtNy4wMyAxMS44OSA0LjY1IDExLjIxLTMuNjctMy4wMyA3LjI3IDExLjQzIDQuMjgtMTQuNzQgMS41M3ptMTEuMDMgMTEuNTlsLTExLjkxIDE3LjQ2LTI3LjUxLTExLjQxeiIgZmlsbD0iI0ZGRiIvPjxlbGxpcHNlIGN4PSIyMjEuNjEiIHJ4PSIyMS4wNjkiIHJ5PSI4LjE2NyIgY3k9IjI2MS4yNCIgZmlsbD0iI0ZGRiIvPjxwYXRoIGQ9Ik0yOTYuMTEgMjY5LjI2bC0uMDItMTguNDMgMjMuMzMgOS4yMnoiIGZpbGw9IiM3YTBjMDAiLz48cGF0aCBkPSJNMjk2LjExIDI2OS4yNmwtMi41My45OS0yMy4zLTkuMjEgMjUuODEtMTAuMjF6IiBmaWxsPSIjYWQyMTE1Ii8+PC9nPjwvc3ZnPg==;" vertex="1" parent="1">
          <mxGeometry x="1464.99" y="1530" width="120.01" height="80" as="geometry" />
        </mxCell>
        <mxCell id="H0nsU_ZC4IHtGFfJjAbq-111" value="" style="shape=image;verticalLabelPosition=bottom;labelBackgroundColor=default;verticalAlign=top;aspect=fixed;imageAspect=0;image=data:image/svg+xml,PHN2ZyB4bWxucz0iaHR0cDovL3d3dy53My5vcmcvMjAwMC9zdmciIHZpZXdCb3g9Ii02OC42MDM3IC0zNi40NTA3NSA1OTQuNTY1NCAyMTguNzA0NSIgd2lkdGg9IjEyMDAiIGhlaWdodD0iODAwIj48ZyB0cmFuc2Zvcm09InRyYW5zbGF0ZSgtMTcxLjMyMiAtMjI3LjExMykiPjxwYXRoIGZpbGw9IiM2MzY0NjYiIGQ9Ik00MjEuNjQgMjcyLjI3YzAgMy42MTktMi45NzMgNi44NDktNi44NSA2Ljg0OS0yLjk3MyAwLTUuNTU3Ljc3Ni03Ljc1NCAyLjQ1Ni0yLjQ1NSAxLjU1Mi00LjM5NCAzLjc0OC01Ljk0NCA2LjIwMy0zLjEwMiA0LjEzNi00LjY1MSA5LjA0Ni01LjI5OCAxMC44NTR2MjQuNTU0YzAgMy43NDgtMy4yMyA2Ljg1LTcuMTA3IDYuODUtMy43NDggMC02Ljg0OS0zLjEwMi02Ljg0OS02Ljg1VjI3Mi4yN2MwLTMuNzQ4IDMuMTAxLTYuNzIgNi44NDktNi43MiAzLjg3NyAwIDcuMTA3IDIuOTczIDcuMTA3IDYuNzJ2LjkwNWMuNzc1LS45MDUgMS44MDktMS45MzggMi43MTQtMi41ODUgNC4yNjUtMi44NDIgOS44MjEtNS4xNjkgMTYuMjgyLTUuMDQgMy44NzcgMCA2Ljg1IDIuOTczIDYuODUgNi43MnptLTMuNzkgMjUuNDZjLjEzLTE3LjU3NSAxMy44MjgtMzIuMzA3IDMxLjUzMS0zMi4zMDcgMTYuOCAwIDMwLjExIDEyLjUzNSAzMS4xNDUgMjkuOTh2LjY0NmMwIC4yNTkgMCAuOTA0LS4xMjkgMS4xNjMtLjM4OSAzLjEwMi0zLjEwMiA1LjE3LTYuNzIxIDUuMTdoLTQxLjA5NGMuNjQ2IDIuOTczIDIuMDY3IDYuMzMyIDQuMzk0IDguNTI5IDIuNzE0IDMuMTAyIDcuODgzIDUuNDI2IDEyLjQwNSA1LjgxNCA0LjY1Mi4zODcgMTAuMjA5LS43NzUgMTMuNDQtMy4yMyAyLjcxMy0yLjg0NCA4LjAxMi0yLjQ1NSA5LjY5Mi0uMzg5IDEuNjggMS44MTEgMi45NzIgNS42ODggMCA4LjQtNi4zMzMgNS44MTQtMTMuOTU3IDguNTI5LTIzLjEzMyA4LjUyOS0xNy43MDItLjEyNy0zMS40LTE0LjczLTMxLjUzLTMyLjMwNXptMTQuMDg2LTYuMzMyaDM2LjU3MWMtMS4yOTItNS4xNjktNy44ODMtMTIuNzkzLTE5LjEyNi0xMy42OTgtMTAuOTgzLjUxNi0xNi40MTEgOC40LTE3LjQ0NSAxMy42OTh6TTU0Ni4zNiAzMjMuMDZjMCAzLjc0OC0zLjEwMiA2Ljk3OS02Ljk3OSA2Ljk3OS0zLjQ4OSAwLTYuMjAyLTIuNDU1LTYuODQ5LTUuNTU3LTQuOTEgMy4zNTktMTEuMTEzIDUuNTU3LTE3LjU3NSA1LjU1Ny0xNy40NDUgMC0zMS40MDItMTQuNzMyLTMxLjQwMi0zMi4xNzggMC0xNy43MDUgMTMuOTU3LTMyLjQzNyAzMS40MDItMzIuNDM3IDYuMzMzIDAgMTIuNTM1IDIuMDY3IDE3LjMxNiA1LjQyN3YtMjQuMjk0YzAtMy43NDggMy4xMDItNi45NzkgNy4xMDctNi45NzkgMy44NzcgMCA2Ljk3OSAzLjIzMSA2Ljk3OSA2Ljk3OXY3Ni41MDN6bS0zMS40MDItNDMuNTVjLTQuNjUyIDAtOC45MTcgMS45MzgtMTIuMTQ2IDUuMjk4LTMuMjMxIDMuMjMxLTUuMTcgNy44ODItNS4xNyAxMy4wNTIgMCA0LjkxIDEuOTM4IDkuNTYyIDUuMTcgMTIuNzkzIDMuMjI5IDMuMzYxIDcuNDk0IDUuMjk5IDEyLjE0NiA1LjI5OSA0Ljc4MSAwIDguOTE3LTEuOTM4IDEyLjE0Ny01LjI5OSAzLjIzLTMuMjMgNS4xNjktNy44ODMgNS4xNjktMTIuNzkzIDAtNS4xNy0xLjkzOC05LjgyMS01LjE2OS0xMy4wNTItMy4yMy0zLjM2LTcuMzY2LTUuMjk4LTEyLjE0Ny01LjI5OHptNTUuOTkyLTMwLjI0YzAgMy44NzctMi45NzIgNy4xMDctNi45NzkgNy4xMDctMy44NzcgMC02Ljk3OC0zLjIzLTYuOTc4LTcuMTA3di0yLjcxNGE2Ljk1IDYuOTUgMCAwMTYuOTc4LTYuOTc5YzQuMDA3IDAgNi45NzkgMy4xMDIgNi45NzkgNi45Nzl6bTAgMjMuMzl2NTAuMzk5YzAgMy44NzctMi45NzIgNi45NzktNi45NzkgNi45NzlhNi45NSA2Ljk1IDAgMDEtNi45NzgtNi45NzlWMjcyLjY2YzAtNC4xMzUgMy4xMDEtNy4xMDggNi45NzgtNy4xMDggNC4wMDggMCA2Ljk3OSAyLjk3MyA2Ljk3OSA3LjEwOHptOC44OCAzOC44OWMyLjMyNi0zLjEgNi44NS0zLjQ4OCA5LjY5Mi0xLjAzMyAzLjM2IDIuODQ0IDkuMTc2IDUuODE0IDE0LjIxNSA1LjY4NiAzLjQ4OSAwIDYuNzItMS4xNjIgOC43ODgtMi40NTUgMS44MDktMS41NTEgMi4zMjUtMi44NDIgMi4zMjUtMy44NzcgMC0uNjQ2LS4xMjktLjkwNC0uMzg3LTEuMjkzLS4xMy0uMzg3LS42NDYtLjkwNC0xLjY4MS0xLjU0OS0xLjgwOS0xLjI5My01LjY4Ni0yLjcxNS0xMC4zMzgtMy42MTloLS4xMjljLTQuMDA3LS43NzUtNy44ODQtMS44MDktMTEuMjQzLTMuMzYxLTMuNDg5LTEuNjc5LTYuNTkxLTQuMDA1LTguOTE3LTcuNDk0LTEuNDIxLTIuMzI2LTIuMTk2LTUuMTY5LTIuMTk2LTguMTQxIDAtNS45NDUgMy4zNi0xMC45ODUgNy42MjQtMTQuMjE2IDQuNTIzLTMuMTAxIDkuOTUxLTQuNzgxIDE1Ljg5Ni00Ljc4MSA4LjkxNiAwIDE1LjI0OCA0LjI2NSAxOS4zODQgNy4xMDcgMy4xMDIgMi4wNjggNC4wMDYgNi4zMzMgMi4wNjcgOS41NjItMi4wNjcgMy4xMDItNi4zMzIgNC4wMDctOS41NjIgMS44MS00LjEzNS0yLjcxMy03Ljc1NC00Ljc4Mi0xMS44ODktNC43ODItMy4yMzEgMC02LjA3NCAxLjAzNC03Ljc1NCAyLjMyNi0xLjY4IDEuMTY0LTIuMDY3IDIuMzI3LTIuMDY3IDIuOTczIDAgLjUxNiAwIC42NDYuMjU4IDEuMDMzLjEzLjI1OC41MTcuNzc1IDEuNDIyIDEuMjkyIDEuNjgxIDEuMTYzIDUuMDQgMi4zMjYgOS40MzQgMy4xMDJsLjEyOS4xM2guMTNjNC4yNjUuNzc0IDguMjcxIDEuOTM4IDEyLjAxOCAzLjc0NyAzLjQ4OSAxLjU1MSA2Ljk3OSA0LjAwNiA5LjE3NiA3LjYyNCAxLjU1MSAyLjU4NCAyLjQ1NSA1LjU1NyAyLjQ1NSA4LjUyOSAwIDYuMzMyLTMuNDg5IDExLjYzMS04LjE0MiAxNC45OS00LjY1MiAzLjIzLTEwLjQ2OCA1LjE3LTE2LjggNS4xNy0xMC4wNzktLjEyOS0xNy44MzMtNC43ODEtMjMuMDAyLTguOTE2LTIuODQ0LTIuMzI2LTMuMjMxLTYuNzIxLS45MDYtOS41NjR6Ii8+PHBhdGggZmlsbD0iI2E0MWUxMSIgZD0iTTMzNC43NyAzMzkuNTRjLTkuMDc4IDQuNzMyLTU2LjEwNiAyNC4wNjgtNjYuMTE4IDI5LjI4Ny0xMC4wMTIgNS4yMjEtMTUuNTc0IDUuMTctMjMuNDgzIDEuMzg5LTcuOTA5LTMuNzgxLTU3Ljk1NS0yMy45OTYtNjYuOTctMjguMzA1LTQuNTA2LTIuMTU0LTYuODc1LTMuOTcxLTYuODc1LTUuNjg4di0xNy4xOTVzNjUuMTUzLTE0LjE4NCA3NS42NzItMTcuOTU3YzEwLjUxOC0zLjc3NCAxNC4xNjctMy45MSAyMy4xMTgtLjYzMSA4Ljk1MiAzLjI3OSA2Mi40NzQgMTIuOTM2IDcxLjMyMSAxNi4xNzZsLS4wMDQgMTYuOTUxYy4wMDEgMS43LTIuMDQgMy41NjUtNi42NjEgNS45NzN6Ii8+PHBhdGggZmlsbD0iI2Q4MmMyMCIgZD0iTTMzNC43NyAzMjIuMzRjLTkuMDc4IDQuNzMtNTYuMTA2IDI0LjA2OC02Ni4xMTggMjkuMjg3LTEwLjAxMiA1LjIyMS0xNS41NzQgNS4xNy0yMy40ODMgMS4zODktNy45MS0zLjc3OS01Ny45NTUtMjMuOTk4LTY2Ljk3LTI4LjMwNS05LjAxNS00LjMwOS05LjIwNC03LjI3NS0uMzQ4LTEwLjc0MiA4Ljg1NS0zLjQ2OSA1OC42MjYtMjIuOTk2IDY5LjE0Ni0yNi43NyAxMC41MTgtMy43NzIgMTQuMTY3LTMuOTEgMjMuMTE4LS42MyA4Ljk1MiAzLjI3OSA1NS42OTkgMjEuODg2IDY0LjU0NSAyNS4xMjYgOC44NDggMy4yNDMgOS4xODggNS45MTMuMTEgMTAuNjQ1eiIvPjxwYXRoIGZpbGw9IiNhNDFlMTEiIGQ9Ik0zMzQuNzcgMzExLjVjLTkuMDc4IDQuNzMyLTU2LjEwNiAyNC4wNjgtNjYuMTE4IDI5LjI4OS0xMC4wMTIgNS4yMTktMTUuNTc0IDUuMTY4LTIzLjQ4MyAxLjM4Ny03LjkxLTMuNzc5LTU3Ljk1NS0yMy45OTYtNjYuOTctMjguMzA1LTQuNTA2LTIuMTU0LTYuODc1LTMuOTY5LTYuODc1LTUuNjg2di0xNy4xOTdzNjUuMTUzLTE0LjE4MyA3NS42NzItMTcuOTU3YzEwLjUxOC0zLjc3MyAxNC4xNjctMy45MSAyMy4xMTgtLjYzMSA4Ljk1MiAzLjI3OSA2Mi40NzQgMTIuOTM0IDcxLjMyMSAxNi4xNzVsLS4wMDQgMTYuOTUzYy4wMDEgMS42OTktMi4wNCAzLjU2NC02LjY2MSA1Ljk3MnoiLz48cGF0aCBmaWxsPSIjZDgyYzIwIiBkPSJNMzM0Ljc3IDI5NC4zYy05LjA3OCA0LjczMi01Ni4xMDYgMjQuMDY4LTY2LjExOCAyOS4yODktMTAuMDEyIDUuMjE5LTE1LjU3NCA1LjE2OC0yMy40ODMgMS4zODctNy45MS0zLjc3OS01Ny45NTUtMjMuOTk3LTY2Ljk3LTI4LjMwNXMtOS4yMDQtNy4yNzQtLjM0OC0xMC43NDNjOC44NTUtMy40NjcgNTguNjI2LTIyLjk5NSA2OS4xNDYtMjYuNzY4IDEwLjUxOC0zLjc3MyAxNC4xNjctMy45MSAyMy4xMTgtLjYzMSA4Ljk1MiAzLjI3OSA1NS42OTkgMjEuODg1IDY0LjU0NSAyNS4xMjYgOC44NDggMy4yNDIgOS4xODggNS45MTMuMTEgMTAuNjQ1eiIvPjxwYXRoIGZpbGw9IiNhNDFlMTEiIGQ9Ik0zMzQuNzcgMjgyLjQyYy05LjA3OCA0LjczMi01Ni4xMDYgMjQuMDY5LTY2LjExOCAyOS4yOS0xMC4wMTIgNS4yMTktMTUuNTc0IDUuMTY4LTIzLjQ4MyAxLjM4Ny03LjkxLTMuNzc5LTU3Ljk1NS0yMy45OTctNjYuOTctMjguMzA1LTQuNTA2LTIuMTU0LTYuODc1LTMuOTctNi44NzUtNS42ODZ2LTE3LjE5N3M2NS4xNTMtMTQuMTgzIDc1LjY3Mi0xNy45NTZjMTAuNTE4LTMuNzc0IDE0LjE2Ny0zLjkxIDIzLjExOC0uNjMxIDguOTUyIDMuMjc5IDYyLjQ3NCAxMi45MzQgNzEuMzIxIDE2LjE3NWwtLjAwNCAxNi45NTJjLjAwMSAxLjY5OC0yLjA0IDMuNTYzLTYuNjYxIDUuOTcxeiIvPjxwYXRoIGZpbGw9IiNkODJjMjAiIGQ9Ik0zMzQuNzcgMjY1LjIyYy05LjA3OCA0LjczMi01Ni4xMDYgMjQuMDY5LTY2LjExOCAyOS4yODktMTAuMDEyIDUuMjE5LTE1LjU3NCA1LjE2OC0yMy40ODMgMS4zODgtNy45MDktMy43OC01Ny45NTUtMjMuOTk3LTY2Ljk3LTI4LjMwNXMtOS4yMDQtNy4yNzUtLjM0OC0xMC43NDNjOC44NTUtMy40NjggNTguNjI2LTIyLjk5NCA2OS4xNDYtMjYuNzY4IDEwLjUxOC0zLjc3NCAxNC4xNjctMy45MSAyMy4xMTgtLjYzIDguOTUyIDMuMjc5IDU1LjY5OSAyMS44ODUgNjQuNTQ1IDI1LjEyNiA4Ljg0OCAzLjI0IDkuMTg4IDUuOTEyLjExIDEwLjY0M3oiLz48cGF0aCBkPSJNMjYwLjYzIDI1OC4xM2wtNS4zMy04Ljg2LTE3LjAyLTEuNTMgMTIuNy00LjU4LTMuODEtNy4wMyAxMS44OSA0LjY1IDExLjIxLTMuNjctMy4wMyA3LjI3IDExLjQzIDQuMjgtMTQuNzQgMS41M3ptMTEuMDMgMTEuNTlsLTExLjkxIDE3LjQ2LTI3LjUxLTExLjQxeiIgZmlsbD0iI0ZGRiIvPjxlbGxpcHNlIGN4PSIyMjEuNjEiIHJ4PSIyMS4wNjkiIHJ5PSI4LjE2NyIgY3k9IjI2MS4yNCIgZmlsbD0iI0ZGRiIvPjxwYXRoIGQ9Ik0yOTYuMTEgMjY5LjI2bC0uMDItMTguNDMgMjMuMzMgOS4yMnoiIGZpbGw9IiM3YTBjMDAiLz48cGF0aCBkPSJNMjk2LjExIDI2OS4yNmwtMi41My45OS0yMy4zLTkuMjEgMjUuODEtMTAuMjF6IiBmaWxsPSIjYWQyMTE1Ii8+PC9nPjwvc3ZnPg==;" vertex="1" parent="1">
          <mxGeometry x="1760" y="1530" width="120.01" height="80" as="geometry" />
        </mxCell>
        <mxCell id="H0nsU_ZC4IHtGFfJjAbq-112" value="" style="shape=image;verticalLabelPosition=bottom;labelBackgroundColor=default;verticalAlign=top;aspect=fixed;imageAspect=0;image=data:image/svg+xml,PHN2ZyB4bWxucz0iaHR0cDovL3d3dy53My5vcmcvMjAwMC9zdmciIHZpZXdCb3g9Ii02OC42MDM3IC0zNi40NTA3NSA1OTQuNTY1NCAyMTguNzA0NSIgd2lkdGg9IjEyMDAiIGhlaWdodD0iODAwIj48ZyB0cmFuc2Zvcm09InRyYW5zbGF0ZSgtMTcxLjMyMiAtMjI3LjExMykiPjxwYXRoIGZpbGw9IiM2MzY0NjYiIGQ9Ik00MjEuNjQgMjcyLjI3YzAgMy42MTktMi45NzMgNi44NDktNi44NSA2Ljg0OS0yLjk3MyAwLTUuNTU3Ljc3Ni03Ljc1NCAyLjQ1Ni0yLjQ1NSAxLjU1Mi00LjM5NCAzLjc0OC01Ljk0NCA2LjIwMy0zLjEwMiA0LjEzNi00LjY1MSA5LjA0Ni01LjI5OCAxMC44NTR2MjQuNTU0YzAgMy43NDgtMy4yMyA2Ljg1LTcuMTA3IDYuODUtMy43NDggMC02Ljg0OS0zLjEwMi02Ljg0OS02Ljg1VjI3Mi4yN2MwLTMuNzQ4IDMuMTAxLTYuNzIgNi44NDktNi43MiAzLjg3NyAwIDcuMTA3IDIuOTczIDcuMTA3IDYuNzJ2LjkwNWMuNzc1LS45MDUgMS44MDktMS45MzggMi43MTQtMi41ODUgNC4yNjUtMi44NDIgOS44MjEtNS4xNjkgMTYuMjgyLTUuMDQgMy44NzcgMCA2Ljg1IDIuOTczIDYuODUgNi43MnptLTMuNzkgMjUuNDZjLjEzLTE3LjU3NSAxMy44MjgtMzIuMzA3IDMxLjUzMS0zMi4zMDcgMTYuOCAwIDMwLjExIDEyLjUzNSAzMS4xNDUgMjkuOTh2LjY0NmMwIC4yNTkgMCAuOTA0LS4xMjkgMS4xNjMtLjM4OSAzLjEwMi0zLjEwMiA1LjE3LTYuNzIxIDUuMTdoLTQxLjA5NGMuNjQ2IDIuOTczIDIuMDY3IDYuMzMyIDQuMzk0IDguNTI5IDIuNzE0IDMuMTAyIDcuODgzIDUuNDI2IDEyLjQwNSA1LjgxNCA0LjY1Mi4zODcgMTAuMjA5LS43NzUgMTMuNDQtMy4yMyAyLjcxMy0yLjg0NCA4LjAxMi0yLjQ1NSA5LjY5Mi0uMzg5IDEuNjggMS44MTEgMi45NzIgNS42ODggMCA4LjQtNi4zMzMgNS44MTQtMTMuOTU3IDguNTI5LTIzLjEzMyA4LjUyOS0xNy43MDItLjEyNy0zMS40LTE0LjczLTMxLjUzLTMyLjMwNXptMTQuMDg2LTYuMzMyaDM2LjU3MWMtMS4yOTItNS4xNjktNy44ODMtMTIuNzkzLTE5LjEyNi0xMy42OTgtMTAuOTgzLjUxNi0xNi40MTEgOC40LTE3LjQ0NSAxMy42OTh6TTU0Ni4zNiAzMjMuMDZjMCAzLjc0OC0zLjEwMiA2Ljk3OS02Ljk3OSA2Ljk3OS0zLjQ4OSAwLTYuMjAyLTIuNDU1LTYuODQ5LTUuNTU3LTQuOTEgMy4zNTktMTEuMTEzIDUuNTU3LTE3LjU3NSA1LjU1Ny0xNy40NDUgMC0zMS40MDItMTQuNzMyLTMxLjQwMi0zMi4xNzggMC0xNy43MDUgMTMuOTU3LTMyLjQzNyAzMS40MDItMzIuNDM3IDYuMzMzIDAgMTIuNTM1IDIuMDY3IDE3LjMxNiA1LjQyN3YtMjQuMjk0YzAtMy43NDggMy4xMDItNi45NzkgNy4xMDctNi45NzkgMy44NzcgMCA2Ljk3OSAzLjIzMSA2Ljk3OSA2Ljk3OXY3Ni41MDN6bS0zMS40MDItNDMuNTVjLTQuNjUyIDAtOC45MTcgMS45MzgtMTIuMTQ2IDUuMjk4LTMuMjMxIDMuMjMxLTUuMTcgNy44ODItNS4xNyAxMy4wNTIgMCA0LjkxIDEuOTM4IDkuNTYyIDUuMTcgMTIuNzkzIDMuMjI5IDMuMzYxIDcuNDk0IDUuMjk5IDEyLjE0NiA1LjI5OSA0Ljc4MSAwIDguOTE3LTEuOTM4IDEyLjE0Ny01LjI5OSAzLjIzLTMuMjMgNS4xNjktNy44ODMgNS4xNjktMTIuNzkzIDAtNS4xNy0xLjkzOC05LjgyMS01LjE2OS0xMy4wNTItMy4yMy0zLjM2LTcuMzY2LTUuMjk4LTEyLjE0Ny01LjI5OHptNTUuOTkyLTMwLjI0YzAgMy44NzctMi45NzIgNy4xMDctNi45NzkgNy4xMDctMy44NzcgMC02Ljk3OC0zLjIzLTYuOTc4LTcuMTA3di0yLjcxNGE2Ljk1IDYuOTUgMCAwMTYuOTc4LTYuOTc5YzQuMDA3IDAgNi45NzkgMy4xMDIgNi45NzkgNi45Nzl6bTAgMjMuMzl2NTAuMzk5YzAgMy44NzctMi45NzIgNi45NzktNi45NzkgNi45NzlhNi45NSA2Ljk1IDAgMDEtNi45NzgtNi45NzlWMjcyLjY2YzAtNC4xMzUgMy4xMDEtNy4xMDggNi45NzgtNy4xMDggNC4wMDggMCA2Ljk3OSAyLjk3MyA2Ljk3OSA3LjEwOHptOC44OCAzOC44OWMyLjMyNi0zLjEgNi44NS0zLjQ4OCA5LjY5Mi0xLjAzMyAzLjM2IDIuODQ0IDkuMTc2IDUuODE0IDE0LjIxNSA1LjY4NiAzLjQ4OSAwIDYuNzItMS4xNjIgOC43ODgtMi40NTUgMS44MDktMS41NTEgMi4zMjUtMi44NDIgMi4zMjUtMy44NzcgMC0uNjQ2LS4xMjktLjkwNC0uMzg3LTEuMjkzLS4xMy0uMzg3LS42NDYtLjkwNC0xLjY4MS0xLjU0OS0xLjgwOS0xLjI5My01LjY4Ni0yLjcxNS0xMC4zMzgtMy42MTloLS4xMjljLTQuMDA3LS43NzUtNy44ODQtMS44MDktMTEuMjQzLTMuMzYxLTMuNDg5LTEuNjc5LTYuNTkxLTQuMDA1LTguOTE3LTcuNDk0LTEuNDIxLTIuMzI2LTIuMTk2LTUuMTY5LTIuMTk2LTguMTQxIDAtNS45NDUgMy4zNi0xMC45ODUgNy42MjQtMTQuMjE2IDQuNTIzLTMuMTAxIDkuOTUxLTQuNzgxIDE1Ljg5Ni00Ljc4MSA4LjkxNiAwIDE1LjI0OCA0LjI2NSAxOS4zODQgNy4xMDcgMy4xMDIgMi4wNjggNC4wMDYgNi4zMzMgMi4wNjcgOS41NjItMi4wNjcgMy4xMDItNi4zMzIgNC4wMDctOS41NjIgMS44MS00LjEzNS0yLjcxMy03Ljc1NC00Ljc4Mi0xMS44ODktNC43ODItMy4yMzEgMC02LjA3NCAxLjAzNC03Ljc1NCAyLjMyNi0xLjY4IDEuMTY0LTIuMDY3IDIuMzI3LTIuMDY3IDIuOTczIDAgLjUxNiAwIC42NDYuMjU4IDEuMDMzLjEzLjI1OC41MTcuNzc1IDEuNDIyIDEuMjkyIDEuNjgxIDEuMTYzIDUuMDQgMi4zMjYgOS40MzQgMy4xMDJsLjEyOS4xM2guMTNjNC4yNjUuNzc0IDguMjcxIDEuOTM4IDEyLjAxOCAzLjc0NyAzLjQ4OSAxLjU1MSA2Ljk3OSA0LjAwNiA5LjE3NiA3LjYyNCAxLjU1MSAyLjU4NCAyLjQ1NSA1LjU1NyAyLjQ1NSA4LjUyOSAwIDYuMzMyLTMuNDg5IDExLjYzMS04LjE0MiAxNC45OS00LjY1MiAzLjIzLTEwLjQ2OCA1LjE3LTE2LjggNS4xNy0xMC4wNzktLjEyOS0xNy44MzMtNC43ODEtMjMuMDAyLTguOTE2LTIuODQ0LTIuMzI2LTMuMjMxLTYuNzIxLS45MDYtOS41NjR6Ii8+PHBhdGggZmlsbD0iI2E0MWUxMSIgZD0iTTMzNC43NyAzMzkuNTRjLTkuMDc4IDQuNzMyLTU2LjEwNiAyNC4wNjgtNjYuMTE4IDI5LjI4Ny0xMC4wMTIgNS4yMjEtMTUuNTc0IDUuMTctMjMuNDgzIDEuMzg5LTcuOTA5LTMuNzgxLTU3Ljk1NS0yMy45OTYtNjYuOTctMjguMzA1LTQuNTA2LTIuMTU0LTYuODc1LTMuOTcxLTYuODc1LTUuNjg4di0xNy4xOTVzNjUuMTUzLTE0LjE4NCA3NS42NzItMTcuOTU3YzEwLjUxOC0zLjc3NCAxNC4xNjctMy45MSAyMy4xMTgtLjYzMSA4Ljk1MiAzLjI3OSA2Mi40NzQgMTIuOTM2IDcxLjMyMSAxNi4xNzZsLS4wMDQgMTYuOTUxYy4wMDEgMS43LTIuMDQgMy41NjUtNi42NjEgNS45NzN6Ii8+PHBhdGggZmlsbD0iI2Q4MmMyMCIgZD0iTTMzNC43NyAzMjIuMzRjLTkuMDc4IDQuNzMtNTYuMTA2IDI0LjA2OC02Ni4xMTggMjkuMjg3LTEwLjAxMiA1LjIyMS0xNS41NzQgNS4xNy0yMy40ODMgMS4zODktNy45MS0zLjc3OS01Ny45NTUtMjMuOTk4LTY2Ljk3LTI4LjMwNS05LjAxNS00LjMwOS05LjIwNC03LjI3NS0uMzQ4LTEwLjc0MiA4Ljg1NS0zLjQ2OSA1OC42MjYtMjIuOTk2IDY5LjE0Ni0yNi43NyAxMC41MTgtMy43NzIgMTQuMTY3LTMuOTEgMjMuMTE4LS42MyA4Ljk1MiAzLjI3OSA1NS42OTkgMjEuODg2IDY0LjU0NSAyNS4xMjYgOC44NDggMy4yNDMgOS4xODggNS45MTMuMTEgMTAuNjQ1eiIvPjxwYXRoIGZpbGw9IiNhNDFlMTEiIGQ9Ik0zMzQuNzcgMzExLjVjLTkuMDc4IDQuNzMyLTU2LjEwNiAyNC4wNjgtNjYuMTE4IDI5LjI4OS0xMC4wMTIgNS4yMTktMTUuNTc0IDUuMTY4LTIzLjQ4MyAxLjM4Ny03LjkxLTMuNzc5LTU3Ljk1NS0yMy45OTYtNjYuOTctMjguMzA1LTQuNTA2LTIuMTU0LTYuODc1LTMuOTY5LTYuODc1LTUuNjg2di0xNy4xOTdzNjUuMTUzLTE0LjE4MyA3NS42NzItMTcuOTU3YzEwLjUxOC0zLjc3MyAxNC4xNjctMy45MSAyMy4xMTgtLjYzMSA4Ljk1MiAzLjI3OSA2Mi40NzQgMTIuOTM0IDcxLjMyMSAxNi4xNzVsLS4wMDQgMTYuOTUzYy4wMDEgMS42OTktMi4wNCAzLjU2NC02LjY2MSA1Ljk3MnoiLz48cGF0aCBmaWxsPSIjZDgyYzIwIiBkPSJNMzM0Ljc3IDI5NC4zYy05LjA3OCA0LjczMi01Ni4xMDYgMjQuMDY4LTY2LjExOCAyOS4yODktMTAuMDEyIDUuMjE5LTE1LjU3NCA1LjE2OC0yMy40ODMgMS4zODctNy45MS0zLjc3OS01Ny45NTUtMjMuOTk3LTY2Ljk3LTI4LjMwNXMtOS4yMDQtNy4yNzQtLjM0OC0xMC43NDNjOC44NTUtMy40NjcgNTguNjI2LTIyLjk5NSA2OS4xNDYtMjYuNzY4IDEwLjUxOC0zLjc3MyAxNC4xNjctMy45MSAyMy4xMTgtLjYzMSA4Ljk1MiAzLjI3OSA1NS42OTkgMjEuODg1IDY0LjU0NSAyNS4xMjYgOC44NDggMy4yNDIgOS4xODggNS45MTMuMTEgMTAuNjQ1eiIvPjxwYXRoIGZpbGw9IiNhNDFlMTEiIGQ9Ik0zMzQuNzcgMjgyLjQyYy05LjA3OCA0LjczMi01Ni4xMDYgMjQuMDY5LTY2LjExOCAyOS4yOS0xMC4wMTIgNS4yMTktMTUuNTc0IDUuMTY4LTIzLjQ4MyAxLjM4Ny03LjkxLTMuNzc5LTU3Ljk1NS0yMy45OTctNjYuOTctMjguMzA1LTQuNTA2LTIuMTU0LTYuODc1LTMuOTctNi44NzUtNS42ODZ2LTE3LjE5N3M2NS4xNTMtMTQuMTgzIDc1LjY3Mi0xNy45NTZjMTAuNTE4LTMuNzc0IDE0LjE2Ny0zLjkxIDIzLjExOC0uNjMxIDguOTUyIDMuMjc5IDYyLjQ3NCAxMi45MzQgNzEuMzIxIDE2LjE3NWwtLjAwNCAxNi45NTJjLjAwMSAxLjY5OC0yLjA0IDMuNTYzLTYuNjYxIDUuOTcxeiIvPjxwYXRoIGZpbGw9IiNkODJjMjAiIGQ9Ik0zMzQuNzcgMjY1LjIyYy05LjA3OCA0LjczMi01Ni4xMDYgMjQuMDY5LTY2LjExOCAyOS4yODktMTAuMDEyIDUuMjE5LTE1LjU3NCA1LjE2OC0yMy40ODMgMS4zODgtNy45MDktMy43OC01Ny45NTUtMjMuOTk3LTY2Ljk3LTI4LjMwNXMtOS4yMDQtNy4yNzUtLjM0OC0xMC43NDNjOC44NTUtMy40NjggNTguNjI2LTIyLjk5NCA2OS4xNDYtMjYuNzY4IDEwLjUxOC0zLjc3NCAxNC4xNjctMy45MSAyMy4xMTgtLjYzIDguOTUyIDMuMjc5IDU1LjY5OSAyMS44ODUgNjQuNTQ1IDI1LjEyNiA4Ljg0OCAzLjI0IDkuMTg4IDUuOTEyLjExIDEwLjY0M3oiLz48cGF0aCBkPSJNMjYwLjYzIDI1OC4xM2wtNS4zMy04Ljg2LTE3LjAyLTEuNTMgMTIuNy00LjU4LTMuODEtNy4wMyAxMS44OSA0LjY1IDExLjIxLTMuNjctMy4wMyA3LjI3IDExLjQzIDQuMjgtMTQuNzQgMS41M3ptMTEuMDMgMTEuNTlsLTExLjkxIDE3LjQ2LTI3LjUxLTExLjQxeiIgZmlsbD0iI0ZGRiIvPjxlbGxpcHNlIGN4PSIyMjEuNjEiIHJ4PSIyMS4wNjkiIHJ5PSI4LjE2NyIgY3k9IjI2MS4yNCIgZmlsbD0iI0ZGRiIvPjxwYXRoIGQ9Ik0yOTYuMTEgMjY5LjI2bC0uMDItMTguNDMgMjMuMzMgOS4yMnoiIGZpbGw9IiM3YTBjMDAiLz48cGF0aCBkPSJNMjk2LjExIDI2OS4yNmwtMi41My45OS0yMy4zLTkuMjEgMjUuODEtMTAuMjF6IiBmaWxsPSIjYWQyMTE1Ii8+PC9nPjwvc3ZnPg==;" vertex="1" parent="1">
          <mxGeometry x="2159.99" y="1530" width="120.01" height="80" as="geometry" />
        </mxCell>
        <mxCell id="H0nsU_ZC4IHtGFfJjAbq-113" value="" style="shape=image;verticalLabelPosition=bottom;labelBackgroundColor=default;verticalAlign=top;aspect=fixed;imageAspect=0;image=data:image/svg+xml,PHN2ZyB4bWxucz0iaHR0cDovL3d3dy53My5vcmcvMjAwMC9zdmciIHZpZXdCb3g9Ii02OC42MDM3IC0zNi40NTA3NSA1OTQuNTY1NCAyMTguNzA0NSIgd2lkdGg9IjEyMDAiIGhlaWdodD0iODAwIj48ZyB0cmFuc2Zvcm09InRyYW5zbGF0ZSgtMTcxLjMyMiAtMjI3LjExMykiPjxwYXRoIGZpbGw9IiM2MzY0NjYiIGQ9Ik00MjEuNjQgMjcyLjI3YzAgMy42MTktMi45NzMgNi44NDktNi44NSA2Ljg0OS0yLjk3MyAwLTUuNTU3Ljc3Ni03Ljc1NCAyLjQ1Ni0yLjQ1NSAxLjU1Mi00LjM5NCAzLjc0OC01Ljk0NCA2LjIwMy0zLjEwMiA0LjEzNi00LjY1MSA5LjA0Ni01LjI5OCAxMC44NTR2MjQuNTU0YzAgMy43NDgtMy4yMyA2Ljg1LTcuMTA3IDYuODUtMy43NDggMC02Ljg0OS0zLjEwMi02Ljg0OS02Ljg1VjI3Mi4yN2MwLTMuNzQ4IDMuMTAxLTYuNzIgNi44NDktNi43MiAzLjg3NyAwIDcuMTA3IDIuOTczIDcuMTA3IDYuNzJ2LjkwNWMuNzc1LS45MDUgMS44MDktMS45MzggMi43MTQtMi41ODUgNC4yNjUtMi44NDIgOS44MjEtNS4xNjkgMTYuMjgyLTUuMDQgMy44NzcgMCA2Ljg1IDIuOTczIDYuODUgNi43MnptLTMuNzkgMjUuNDZjLjEzLTE3LjU3NSAxMy44MjgtMzIuMzA3IDMxLjUzMS0zMi4zMDcgMTYuOCAwIDMwLjExIDEyLjUzNSAzMS4xNDUgMjkuOTh2LjY0NmMwIC4yNTkgMCAuOTA0LS4xMjkgMS4xNjMtLjM4OSAzLjEwMi0zLjEwMiA1LjE3LTYuNzIxIDUuMTdoLTQxLjA5NGMuNjQ2IDIuOTczIDIuMDY3IDYuMzMyIDQuMzk0IDguNTI5IDIuNzE0IDMuMTAyIDcuODgzIDUuNDI2IDEyLjQwNSA1LjgxNCA0LjY1Mi4zODcgMTAuMjA5LS43NzUgMTMuNDQtMy4yMyAyLjcxMy0yLjg0NCA4LjAxMi0yLjQ1NSA5LjY5Mi0uMzg5IDEuNjggMS44MTEgMi45NzIgNS42ODggMCA4LjQtNi4zMzMgNS44MTQtMTMuOTU3IDguNTI5LTIzLjEzMyA4LjUyOS0xNy43MDItLjEyNy0zMS40LTE0LjczLTMxLjUzLTMyLjMwNXptMTQuMDg2LTYuMzMyaDM2LjU3MWMtMS4yOTItNS4xNjktNy44ODMtMTIuNzkzLTE5LjEyNi0xMy42OTgtMTAuOTgzLjUxNi0xNi40MTEgOC40LTE3LjQ0NSAxMy42OTh6TTU0Ni4zNiAzMjMuMDZjMCAzLjc0OC0zLjEwMiA2Ljk3OS02Ljk3OSA2Ljk3OS0zLjQ4OSAwLTYuMjAyLTIuNDU1LTYuODQ5LTUuNTU3LTQuOTEgMy4zNTktMTEuMTEzIDUuNTU3LTE3LjU3NSA1LjU1Ny0xNy40NDUgMC0zMS40MDItMTQuNzMyLTMxLjQwMi0zMi4xNzggMC0xNy43MDUgMTMuOTU3LTMyLjQzNyAzMS40MDItMzIuNDM3IDYuMzMzIDAgMTIuNTM1IDIuMDY3IDE3LjMxNiA1LjQyN3YtMjQuMjk0YzAtMy43NDggMy4xMDItNi45NzkgNy4xMDctNi45NzkgMy44NzcgMCA2Ljk3OSAzLjIzMSA2Ljk3OSA2Ljk3OXY3Ni41MDN6bS0zMS40MDItNDMuNTVjLTQuNjUyIDAtOC45MTcgMS45MzgtMTIuMTQ2IDUuMjk4LTMuMjMxIDMuMjMxLTUuMTcgNy44ODItNS4xNyAxMy4wNTIgMCA0LjkxIDEuOTM4IDkuNTYyIDUuMTcgMTIuNzkzIDMuMjI5IDMuMzYxIDcuNDk0IDUuMjk5IDEyLjE0NiA1LjI5OSA0Ljc4MSAwIDguOTE3LTEuOTM4IDEyLjE0Ny01LjI5OSAzLjIzLTMuMjMgNS4xNjktNy44ODMgNS4xNjktMTIuNzkzIDAtNS4xNy0xLjkzOC05LjgyMS01LjE2OS0xMy4wNTItMy4yMy0zLjM2LTcuMzY2LTUuMjk4LTEyLjE0Ny01LjI5OHptNTUuOTkyLTMwLjI0YzAgMy44NzctMi45NzIgNy4xMDctNi45NzkgNy4xMDctMy44NzcgMC02Ljk3OC0zLjIzLTYuOTc4LTcuMTA3di0yLjcxNGE2Ljk1IDYuOTUgMCAwMTYuOTc4LTYuOTc5YzQuMDA3IDAgNi45NzkgMy4xMDIgNi45NzkgNi45Nzl6bTAgMjMuMzl2NTAuMzk5YzAgMy44NzctMi45NzIgNi45NzktNi45NzkgNi45NzlhNi45NSA2Ljk1IDAgMDEtNi45NzgtNi45NzlWMjcyLjY2YzAtNC4xMzUgMy4xMDEtNy4xMDggNi45NzgtNy4xMDggNC4wMDggMCA2Ljk3OSAyLjk3MyA2Ljk3OSA3LjEwOHptOC44OCAzOC44OWMyLjMyNi0zLjEgNi44NS0zLjQ4OCA5LjY5Mi0xLjAzMyAzLjM2IDIuODQ0IDkuMTc2IDUuODE0IDE0LjIxNSA1LjY4NiAzLjQ4OSAwIDYuNzItMS4xNjIgOC43ODgtMi40NTUgMS44MDktMS41NTEgMi4zMjUtMi44NDIgMi4zMjUtMy44NzcgMC0uNjQ2LS4xMjktLjkwNC0uMzg3LTEuMjkzLS4xMy0uMzg3LS42NDYtLjkwNC0xLjY4MS0xLjU0OS0xLjgwOS0xLjI5My01LjY4Ni0yLjcxNS0xMC4zMzgtMy42MTloLS4xMjljLTQuMDA3LS43NzUtNy44ODQtMS44MDktMTEuMjQzLTMuMzYxLTMuNDg5LTEuNjc5LTYuNTkxLTQuMDA1LTguOTE3LTcuNDk0LTEuNDIxLTIuMzI2LTIuMTk2LTUuMTY5LTIuMTk2LTguMTQxIDAtNS45NDUgMy4zNi0xMC45ODUgNy42MjQtMTQuMjE2IDQuNTIzLTMuMTAxIDkuOTUxLTQuNzgxIDE1Ljg5Ni00Ljc4MSA4LjkxNiAwIDE1LjI0OCA0LjI2NSAxOS4zODQgNy4xMDcgMy4xMDIgMi4wNjggNC4wMDYgNi4zMzMgMi4wNjcgOS41NjItMi4wNjcgMy4xMDItNi4zMzIgNC4wMDctOS41NjIgMS44MS00LjEzNS0yLjcxMy03Ljc1NC00Ljc4Mi0xMS44ODktNC43ODItMy4yMzEgMC02LjA3NCAxLjAzNC03Ljc1NCAyLjMyNi0xLjY4IDEuMTY0LTIuMDY3IDIuMzI3LTIuMDY3IDIuOTczIDAgLjUxNiAwIC42NDYuMjU4IDEuMDMzLjEzLjI1OC41MTcuNzc1IDEuNDIyIDEuMjkyIDEuNjgxIDEuMTYzIDUuMDQgMi4zMjYgOS40MzQgMy4xMDJsLjEyOS4xM2guMTNjNC4yNjUuNzc0IDguMjcxIDEuOTM4IDEyLjAxOCAzLjc0NyAzLjQ4OSAxLjU1MSA2Ljk3OSA0LjAwNiA5LjE3NiA3LjYyNCAxLjU1MSAyLjU4NCAyLjQ1NSA1LjU1NyAyLjQ1NSA4LjUyOSAwIDYuMzMyLTMuNDg5IDExLjYzMS04LjE0MiAxNC45OS00LjY1MiAzLjIzLTEwLjQ2OCA1LjE3LTE2LjggNS4xNy0xMC4wNzktLjEyOS0xNy44MzMtNC43ODEtMjMuMDAyLTguOTE2LTIuODQ0LTIuMzI2LTMuMjMxLTYuNzIxLS45MDYtOS41NjR6Ii8+PHBhdGggZmlsbD0iI2E0MWUxMSIgZD0iTTMzNC43NyAzMzkuNTRjLTkuMDc4IDQuNzMyLTU2LjEwNiAyNC4wNjgtNjYuMTE4IDI5LjI4Ny0xMC4wMTIgNS4yMjEtMTUuNTc0IDUuMTctMjMuNDgzIDEuMzg5LTcuOTA5LTMuNzgxLTU3Ljk1NS0yMy45OTYtNjYuOTctMjguMzA1LTQuNTA2LTIuMTU0LTYuODc1LTMuOTcxLTYuODc1LTUuNjg4di0xNy4xOTVzNjUuMTUzLTE0LjE4NCA3NS42NzItMTcuOTU3YzEwLjUxOC0zLjc3NCAxNC4xNjctMy45MSAyMy4xMTgtLjYzMSA4Ljk1MiAzLjI3OSA2Mi40NzQgMTIuOTM2IDcxLjMyMSAxNi4xNzZsLS4wMDQgMTYuOTUxYy4wMDEgMS43LTIuMDQgMy41NjUtNi42NjEgNS45NzN6Ii8+PHBhdGggZmlsbD0iI2Q4MmMyMCIgZD0iTTMzNC43NyAzMjIuMzRjLTkuMDc4IDQuNzMtNTYuMTA2IDI0LjA2OC02Ni4xMTggMjkuMjg3LTEwLjAxMiA1LjIyMS0xNS41NzQgNS4xNy0yMy40ODMgMS4zODktNy45MS0zLjc3OS01Ny45NTUtMjMuOTk4LTY2Ljk3LTI4LjMwNS05LjAxNS00LjMwOS05LjIwNC03LjI3NS0uMzQ4LTEwLjc0MiA4Ljg1NS0zLjQ2OSA1OC42MjYtMjIuOTk2IDY5LjE0Ni0yNi43NyAxMC41MTgtMy43NzIgMTQuMTY3LTMuOTEgMjMuMTE4LS42MyA4Ljk1MiAzLjI3OSA1NS42OTkgMjEuODg2IDY0LjU0NSAyNS4xMjYgOC44NDggMy4yNDMgOS4xODggNS45MTMuMTEgMTAuNjQ1eiIvPjxwYXRoIGZpbGw9IiNhNDFlMTEiIGQ9Ik0zMzQuNzcgMzExLjVjLTkuMDc4IDQuNzMyLTU2LjEwNiAyNC4wNjgtNjYuMTE4IDI5LjI4OS0xMC4wMTIgNS4yMTktMTUuNTc0IDUuMTY4LTIzLjQ4MyAxLjM4Ny03LjkxLTMuNzc5LTU3Ljk1NS0yMy45OTYtNjYuOTctMjguMzA1LTQuNTA2LTIuMTU0LTYuODc1LTMuOTY5LTYuODc1LTUuNjg2di0xNy4xOTdzNjUuMTUzLTE0LjE4MyA3NS42NzItMTcuOTU3YzEwLjUxOC0zLjc3MyAxNC4xNjctMy45MSAyMy4xMTgtLjYzMSA4Ljk1MiAzLjI3OSA2Mi40NzQgMTIuOTM0IDcxLjMyMSAxNi4xNzVsLS4wMDQgMTYuOTUzYy4wMDEgMS42OTktMi4wNCAzLjU2NC02LjY2MSA1Ljk3MnoiLz48cGF0aCBmaWxsPSIjZDgyYzIwIiBkPSJNMzM0Ljc3IDI5NC4zYy05LjA3OCA0LjczMi01Ni4xMDYgMjQuMDY4LTY2LjExOCAyOS4yODktMTAuMDEyIDUuMjE5LTE1LjU3NCA1LjE2OC0yMy40ODMgMS4zODctNy45MS0zLjc3OS01Ny45NTUtMjMuOTk3LTY2Ljk3LTI4LjMwNXMtOS4yMDQtNy4yNzQtLjM0OC0xMC43NDNjOC44NTUtMy40NjcgNTguNjI2LTIyLjk5NSA2OS4xNDYtMjYuNzY4IDEwLjUxOC0zLjc3MyAxNC4xNjctMy45MSAyMy4xMTgtLjYzMSA4Ljk1MiAzLjI3OSA1NS42OTkgMjEuODg1IDY0LjU0NSAyNS4xMjYgOC44NDggMy4yNDIgOS4xODggNS45MTMuMTEgMTAuNjQ1eiIvPjxwYXRoIGZpbGw9IiNhNDFlMTEiIGQ9Ik0zMzQuNzcgMjgyLjQyYy05LjA3OCA0LjczMi01Ni4xMDYgMjQuMDY5LTY2LjExOCAyOS4yOS0xMC4wMTIgNS4yMTktMTUuNTc0IDUuMTY4LTIzLjQ4MyAxLjM4Ny03LjkxLTMuNzc5LTU3Ljk1NS0yMy45OTctNjYuOTctMjguMzA1LTQuNTA2LTIuMTU0LTYuODc1LTMuOTctNi44NzUtNS42ODZ2LTE3LjE5N3M2NS4xNTMtMTQuMTgzIDc1LjY3Mi0xNy45NTZjMTAuNTE4LTMuNzc0IDE0LjE2Ny0zLjkxIDIzLjExOC0uNjMxIDguOTUyIDMuMjc5IDYyLjQ3NCAxMi45MzQgNzEuMzIxIDE2LjE3NWwtLjAwNCAxNi45NTJjLjAwMSAxLjY5OC0yLjA0IDMuNTYzLTYuNjYxIDUuOTcxeiIvPjxwYXRoIGZpbGw9IiNkODJjMjAiIGQ9Ik0zMzQuNzcgMjY1LjIyYy05LjA3OCA0LjczMi01Ni4xMDYgMjQuMDY5LTY2LjExOCAyOS4yODktMTAuMDEyIDUuMjE5LTE1LjU3NCA1LjE2OC0yMy40ODMgMS4zODgtNy45MDktMy43OC01Ny45NTUtMjMuOTk3LTY2Ljk3LTI4LjMwNXMtOS4yMDQtNy4yNzUtLjM0OC0xMC43NDNjOC44NTUtMy40NjggNTguNjI2LTIyLjk5NCA2OS4xNDYtMjYuNzY4IDEwLjUxOC0zLjc3NCAxNC4xNjctMy45MSAyMy4xMTgtLjYzIDguOTUyIDMuMjc5IDU1LjY5OSAyMS44ODUgNjQuNTQ1IDI1LjEyNiA4Ljg0OCAzLjI0IDkuMTg4IDUuOTEyLjExIDEwLjY0M3oiLz48cGF0aCBkPSJNMjYwLjYzIDI1OC4xM2wtNS4zMy04Ljg2LTE3LjAyLTEuNTMgMTIuNy00LjU4LTMuODEtNy4wMyAxMS44OSA0LjY1IDExLjIxLTMuNjctMy4wMyA3LjI3IDExLjQzIDQuMjgtMTQuNzQgMS41M3ptMTEuMDMgMTEuNTlsLTExLjkxIDE3LjQ2LTI3LjUxLTExLjQxeiIgZmlsbD0iI0ZGRiIvPjxlbGxpcHNlIGN4PSIyMjEuNjEiIHJ4PSIyMS4wNjkiIHJ5PSI4LjE2NyIgY3k9IjI2MS4yNCIgZmlsbD0iI0ZGRiIvPjxwYXRoIGQ9Ik0yOTYuMTEgMjY5LjI2bC0uMDItMTguNDMgMjMuMzMgOS4yMnoiIGZpbGw9IiM3YTBjMDAiLz48cGF0aCBkPSJNMjk2LjExIDI2OS4yNmwtMi41My45OS0yMy4zLTkuMjEgMjUuODEtMTAuMjF6IiBmaWxsPSIjYWQyMTE1Ii8+PC9nPjwvc3ZnPg==;" vertex="1" parent="1">
          <mxGeometry x="2459.99" y="1540" width="120.01" height="80" as="geometry" />
        </mxCell>
        <mxCell id="H0nsU_ZC4IHtGFfJjAbq-114" value="Map1" style="shape=table;startSize=30;container=1;collapsible=0;childLayout=tableLayout;fixedRows=1;rowLines=0;fontStyle=0;strokeColor=default;fontSize=16;" vertex="1" parent="1">
          <mxGeometry x="1472" y="1450" width="90" height="90" as="geometry" />
        </mxCell>
        <mxCell id="H0nsU_ZC4IHtGFfJjAbq-115" value="" style="shape=tableRow;horizontal=0;startSize=0;swimlaneHead=0;swimlaneBody=0;top=0;left=0;bottom=0;right=0;collapsible=0;dropTarget=0;fillColor=none;points=[[0,0.5],[1,0.5]];portConstraint=eastwest;strokeColor=inherit;fontSize=16;" vertex="1" parent="H0nsU_ZC4IHtGFfJjAbq-114">
          <mxGeometry y="30" width="90" height="30" as="geometry" />
        </mxCell>
        <mxCell id="H0nsU_ZC4IHtGFfJjAbq-116" value="1" style="shape=partialRectangle;html=1;whiteSpace=wrap;connectable=0;fillColor=none;top=0;left=0;bottom=0;right=0;overflow=hidden;pointerEvents=1;strokeColor=inherit;fontSize=16;" vertex="1" parent="H0nsU_ZC4IHtGFfJjAbq-115">
          <mxGeometry width="20" height="30" as="geometry">
            <mxRectangle width="20" height="30" as="alternateBounds" />
          </mxGeometry>
        </mxCell>
        <mxCell id="H0nsU_ZC4IHtGFfJjAbq-117" value="Value 1" style="shape=partialRectangle;html=1;whiteSpace=wrap;connectable=0;fillColor=none;top=0;left=0;bottom=0;right=0;align=left;spacingLeft=6;overflow=hidden;strokeColor=inherit;fontSize=16;" vertex="1" parent="H0nsU_ZC4IHtGFfJjAbq-115">
          <mxGeometry x="20" width="70" height="30" as="geometry">
            <mxRectangle width="70" height="30" as="alternateBounds" />
          </mxGeometry>
        </mxCell>
        <mxCell id="H0nsU_ZC4IHtGFfJjAbq-118" value="" style="shape=tableRow;horizontal=0;startSize=0;swimlaneHead=0;swimlaneBody=0;top=0;left=0;bottom=0;right=0;collapsible=0;dropTarget=0;fillColor=none;points=[[0,0.5],[1,0.5]];portConstraint=eastwest;strokeColor=inherit;fontSize=16;" vertex="1" parent="H0nsU_ZC4IHtGFfJjAbq-114">
          <mxGeometry y="60" width="90" height="30" as="geometry" />
        </mxCell>
        <mxCell id="H0nsU_ZC4IHtGFfJjAbq-119" value="&lt;font color=&quot;#ff0000&quot;&gt;2&lt;/font&gt;" style="shape=partialRectangle;html=1;whiteSpace=wrap;connectable=0;fillColor=none;top=0;left=0;bottom=0;right=0;overflow=hidden;strokeColor=inherit;fontSize=16;" vertex="1" parent="H0nsU_ZC4IHtGFfJjAbq-118">
          <mxGeometry width="20" height="30" as="geometry">
            <mxRectangle width="20" height="30" as="alternateBounds" />
          </mxGeometry>
        </mxCell>
        <mxCell id="H0nsU_ZC4IHtGFfJjAbq-120" value="&lt;font color=&quot;#ff0000&quot;&gt;Value 2&lt;/font&gt;" style="shape=partialRectangle;html=1;whiteSpace=wrap;connectable=0;fillColor=none;top=0;left=0;bottom=0;right=0;align=left;spacingLeft=6;overflow=hidden;strokeColor=inherit;fontSize=16;" vertex="1" parent="H0nsU_ZC4IHtGFfJjAbq-118">
          <mxGeometry x="20" width="70" height="30" as="geometry">
            <mxRectangle width="70" height="30" as="alternateBounds" />
          </mxGeometry>
        </mxCell>
        <mxCell id="H0nsU_ZC4IHtGFfJjAbq-152" value="堆 Heap" style="text;html=1;strokeColor=none;fillColor=none;align=center;verticalAlign=middle;whiteSpace=wrap;rounded=0;" vertex="1" parent="1">
          <mxGeometry x="2530" y="1829.5" width="60" height="30" as="geometry" />
        </mxCell>
        <mxCell id="H0nsU_ZC4IHtGFfJjAbq-135" value="Map1" style="shape=table;startSize=30;container=1;collapsible=0;childLayout=tableLayout;fixedRows=1;rowLines=0;fontStyle=0;strokeColor=default;fontSize=16;" vertex="1" parent="1">
          <mxGeometry x="1724.99" y="1460" width="90" height="90" as="geometry" />
        </mxCell>
        <mxCell id="H0nsU_ZC4IHtGFfJjAbq-136" value="" style="shape=tableRow;horizontal=0;startSize=0;swimlaneHead=0;swimlaneBody=0;top=0;left=0;bottom=0;right=0;collapsible=0;dropTarget=0;fillColor=none;points=[[0,0.5],[1,0.5]];portConstraint=eastwest;strokeColor=inherit;fontSize=16;" vertex="1" parent="H0nsU_ZC4IHtGFfJjAbq-135">
          <mxGeometry y="30" width="90" height="30" as="geometry" />
        </mxCell>
        <mxCell id="H0nsU_ZC4IHtGFfJjAbq-137" value="1" style="shape=partialRectangle;html=1;whiteSpace=wrap;connectable=0;fillColor=none;top=0;left=0;bottom=0;right=0;overflow=hidden;pointerEvents=1;strokeColor=inherit;fontSize=16;" vertex="1" parent="H0nsU_ZC4IHtGFfJjAbq-136">
          <mxGeometry width="20" height="30" as="geometry">
            <mxRectangle width="20" height="30" as="alternateBounds" />
          </mxGeometry>
        </mxCell>
        <mxCell id="H0nsU_ZC4IHtGFfJjAbq-138" value="Value 1" style="shape=partialRectangle;html=1;whiteSpace=wrap;connectable=0;fillColor=none;top=0;left=0;bottom=0;right=0;align=left;spacingLeft=6;overflow=hidden;strokeColor=inherit;fontSize=16;" vertex="1" parent="H0nsU_ZC4IHtGFfJjAbq-136">
          <mxGeometry x="20" width="70" height="30" as="geometry">
            <mxRectangle width="70" height="30" as="alternateBounds" />
          </mxGeometry>
        </mxCell>
        <mxCell id="H0nsU_ZC4IHtGFfJjAbq-139" value="" style="shape=tableRow;horizontal=0;startSize=0;swimlaneHead=0;swimlaneBody=0;top=0;left=0;bottom=0;right=0;collapsible=0;dropTarget=0;fillColor=none;points=[[0,0.5],[1,0.5]];portConstraint=eastwest;strokeColor=inherit;fontSize=16;" vertex="1" parent="H0nsU_ZC4IHtGFfJjAbq-135">
          <mxGeometry y="60" width="90" height="30" as="geometry" />
        </mxCell>
        <mxCell id="H0nsU_ZC4IHtGFfJjAbq-140" value="&lt;font color=&quot;#ff0000&quot;&gt;2&lt;/font&gt;" style="shape=partialRectangle;html=1;whiteSpace=wrap;connectable=0;fillColor=none;top=0;left=0;bottom=0;right=0;overflow=hidden;strokeColor=inherit;fontSize=16;" vertex="1" parent="H0nsU_ZC4IHtGFfJjAbq-139">
          <mxGeometry width="20" height="30" as="geometry">
            <mxRectangle width="20" height="30" as="alternateBounds" />
          </mxGeometry>
        </mxCell>
        <mxCell id="H0nsU_ZC4IHtGFfJjAbq-141" value="&lt;font color=&quot;#ff0000&quot;&gt;Value 2&lt;/font&gt;" style="shape=partialRectangle;html=1;whiteSpace=wrap;connectable=0;fillColor=none;top=0;left=0;bottom=0;right=0;align=left;spacingLeft=6;overflow=hidden;strokeColor=inherit;fontSize=16;" vertex="1" parent="H0nsU_ZC4IHtGFfJjAbq-139">
          <mxGeometry x="20" width="70" height="30" as="geometry">
            <mxRectangle width="70" height="30" as="alternateBounds" />
          </mxGeometry>
        </mxCell>
        <mxCell id="H0nsU_ZC4IHtGFfJjAbq-159" value="Map2" style="shape=table;startSize=30;container=1;collapsible=0;childLayout=tableLayout;fixedRows=1;rowLines=0;fontStyle=0;strokeColor=default;fontSize=16;" vertex="1" parent="1">
          <mxGeometry x="1736" y="1689.75" width="90" height="90" as="geometry" />
        </mxCell>
        <mxCell id="H0nsU_ZC4IHtGFfJjAbq-160" value="" style="shape=tableRow;horizontal=0;startSize=0;swimlaneHead=0;swimlaneBody=0;top=0;left=0;bottom=0;right=0;collapsible=0;dropTarget=0;fillColor=none;points=[[0,0.5],[1,0.5]];portConstraint=eastwest;strokeColor=inherit;fontSize=16;" vertex="1" parent="H0nsU_ZC4IHtGFfJjAbq-159">
          <mxGeometry y="30" width="90" height="30" as="geometry" />
        </mxCell>
        <mxCell id="H0nsU_ZC4IHtGFfJjAbq-161" value="1" style="shape=partialRectangle;html=1;whiteSpace=wrap;connectable=0;fillColor=none;top=0;left=0;bottom=0;right=0;overflow=hidden;pointerEvents=1;strokeColor=inherit;fontSize=16;" vertex="1" parent="H0nsU_ZC4IHtGFfJjAbq-160">
          <mxGeometry width="20" height="30" as="geometry">
            <mxRectangle width="20" height="30" as="alternateBounds" />
          </mxGeometry>
        </mxCell>
        <mxCell id="H0nsU_ZC4IHtGFfJjAbq-162" value="Value 6" style="shape=partialRectangle;html=1;whiteSpace=wrap;connectable=0;fillColor=none;top=0;left=0;bottom=0;right=0;align=left;spacingLeft=6;overflow=hidden;strokeColor=inherit;fontSize=16;" vertex="1" parent="H0nsU_ZC4IHtGFfJjAbq-160">
          <mxGeometry x="20" width="70" height="30" as="geometry">
            <mxRectangle width="70" height="30" as="alternateBounds" />
          </mxGeometry>
        </mxCell>
        <mxCell id="H0nsU_ZC4IHtGFfJjAbq-163" value="" style="shape=tableRow;horizontal=0;startSize=0;swimlaneHead=0;swimlaneBody=0;top=0;left=0;bottom=0;right=0;collapsible=0;dropTarget=0;fillColor=none;points=[[0,0.5],[1,0.5]];portConstraint=eastwest;strokeColor=inherit;fontSize=16;" vertex="1" parent="H0nsU_ZC4IHtGFfJjAbq-159">
          <mxGeometry y="60" width="90" height="30" as="geometry" />
        </mxCell>
        <mxCell id="H0nsU_ZC4IHtGFfJjAbq-164" value="2" style="shape=partialRectangle;html=1;whiteSpace=wrap;connectable=0;fillColor=none;top=0;left=0;bottom=0;right=0;overflow=hidden;strokeColor=inherit;fontSize=16;" vertex="1" parent="H0nsU_ZC4IHtGFfJjAbq-163">
          <mxGeometry width="20" height="30" as="geometry">
            <mxRectangle width="20" height="30" as="alternateBounds" />
          </mxGeometry>
        </mxCell>
        <mxCell id="H0nsU_ZC4IHtGFfJjAbq-165" value="Value 9" style="shape=partialRectangle;html=1;whiteSpace=wrap;connectable=0;fillColor=none;top=0;left=0;bottom=0;right=0;align=left;spacingLeft=6;overflow=hidden;strokeColor=inherit;fontSize=16;" vertex="1" parent="H0nsU_ZC4IHtGFfJjAbq-163">
          <mxGeometry x="20" width="70" height="30" as="geometry">
            <mxRectangle width="70" height="30" as="alternateBounds" />
          </mxGeometry>
        </mxCell>
        <mxCell id="H0nsU_ZC4IHtGFfJjAbq-166" value="堆 Heap" style="text;html=1;strokeColor=none;fillColor=none;align=center;verticalAlign=middle;whiteSpace=wrap;rounded=0;" vertex="1" parent="1">
          <mxGeometry x="1751" y="1785.75" width="60" height="30" as="geometry" />
        </mxCell>
        <mxCell id="H0nsU_ZC4IHtGFfJjAbq-167" value="Map2" style="shape=table;startSize=30;container=1;collapsible=0;childLayout=tableLayout;fixedRows=1;rowLines=0;fontStyle=0;strokeColor=default;fontSize=16;" vertex="1" parent="1">
          <mxGeometry x="1570" y="1450" width="90" height="90" as="geometry" />
        </mxCell>
        <mxCell id="H0nsU_ZC4IHtGFfJjAbq-168" value="" style="shape=tableRow;horizontal=0;startSize=0;swimlaneHead=0;swimlaneBody=0;top=0;left=0;bottom=0;right=0;collapsible=0;dropTarget=0;fillColor=none;points=[[0,0.5],[1,0.5]];portConstraint=eastwest;strokeColor=inherit;fontSize=16;" vertex="1" parent="H0nsU_ZC4IHtGFfJjAbq-167">
          <mxGeometry y="30" width="90" height="30" as="geometry" />
        </mxCell>
        <mxCell id="H0nsU_ZC4IHtGFfJjAbq-169" value="1" style="shape=partialRectangle;html=1;whiteSpace=wrap;connectable=0;fillColor=none;top=0;left=0;bottom=0;right=0;overflow=hidden;pointerEvents=1;strokeColor=inherit;fontSize=16;" vertex="1" parent="H0nsU_ZC4IHtGFfJjAbq-168">
          <mxGeometry width="20" height="30" as="geometry">
            <mxRectangle width="20" height="30" as="alternateBounds" />
          </mxGeometry>
        </mxCell>
        <mxCell id="H0nsU_ZC4IHtGFfJjAbq-170" value="Value 6" style="shape=partialRectangle;html=1;whiteSpace=wrap;connectable=0;fillColor=none;top=0;left=0;bottom=0;right=0;align=left;spacingLeft=6;overflow=hidden;strokeColor=inherit;fontSize=16;" vertex="1" parent="H0nsU_ZC4IHtGFfJjAbq-168">
          <mxGeometry x="20" width="70" height="30" as="geometry">
            <mxRectangle width="70" height="30" as="alternateBounds" />
          </mxGeometry>
        </mxCell>
        <mxCell id="H0nsU_ZC4IHtGFfJjAbq-171" value="" style="shape=tableRow;horizontal=0;startSize=0;swimlaneHead=0;swimlaneBody=0;top=0;left=0;bottom=0;right=0;collapsible=0;dropTarget=0;fillColor=none;points=[[0,0.5],[1,0.5]];portConstraint=eastwest;strokeColor=inherit;fontSize=16;" vertex="1" parent="H0nsU_ZC4IHtGFfJjAbq-167">
          <mxGeometry y="60" width="90" height="30" as="geometry" />
        </mxCell>
        <mxCell id="H0nsU_ZC4IHtGFfJjAbq-172" value="2" style="shape=partialRectangle;html=1;whiteSpace=wrap;connectable=0;fillColor=none;top=0;left=0;bottom=0;right=0;overflow=hidden;strokeColor=inherit;fontSize=16;" vertex="1" parent="H0nsU_ZC4IHtGFfJjAbq-171">
          <mxGeometry width="20" height="30" as="geometry">
            <mxRectangle width="20" height="30" as="alternateBounds" />
          </mxGeometry>
        </mxCell>
        <mxCell id="H0nsU_ZC4IHtGFfJjAbq-173" value="Value 9" style="shape=partialRectangle;html=1;whiteSpace=wrap;connectable=0;fillColor=none;top=0;left=0;bottom=0;right=0;align=left;spacingLeft=6;overflow=hidden;strokeColor=inherit;fontSize=16;" vertex="1" parent="H0nsU_ZC4IHtGFfJjAbq-171">
          <mxGeometry x="20" width="70" height="30" as="geometry">
            <mxRectangle width="70" height="30" as="alternateBounds" />
          </mxGeometry>
        </mxCell>
        <mxCell id="H0nsU_ZC4IHtGFfJjAbq-174" value="Map2" style="shape=table;startSize=30;container=1;collapsible=0;childLayout=tableLayout;fixedRows=1;rowLines=0;fontStyle=0;strokeColor=default;fontSize=16;" vertex="1" parent="1">
          <mxGeometry x="1830" y="1460" width="90" height="90" as="geometry" />
        </mxCell>
        <mxCell id="H0nsU_ZC4IHtGFfJjAbq-175" value="" style="shape=tableRow;horizontal=0;startSize=0;swimlaneHead=0;swimlaneBody=0;top=0;left=0;bottom=0;right=0;collapsible=0;dropTarget=0;fillColor=none;points=[[0,0.5],[1,0.5]];portConstraint=eastwest;strokeColor=inherit;fontSize=16;" vertex="1" parent="H0nsU_ZC4IHtGFfJjAbq-174">
          <mxGeometry y="30" width="90" height="30" as="geometry" />
        </mxCell>
        <mxCell id="H0nsU_ZC4IHtGFfJjAbq-176" value="1" style="shape=partialRectangle;html=1;whiteSpace=wrap;connectable=0;fillColor=none;top=0;left=0;bottom=0;right=0;overflow=hidden;pointerEvents=1;strokeColor=inherit;fontSize=16;" vertex="1" parent="H0nsU_ZC4IHtGFfJjAbq-175">
          <mxGeometry width="20" height="30" as="geometry">
            <mxRectangle width="20" height="30" as="alternateBounds" />
          </mxGeometry>
        </mxCell>
        <mxCell id="H0nsU_ZC4IHtGFfJjAbq-177" value="Value 6" style="shape=partialRectangle;html=1;whiteSpace=wrap;connectable=0;fillColor=none;top=0;left=0;bottom=0;right=0;align=left;spacingLeft=6;overflow=hidden;strokeColor=inherit;fontSize=16;" vertex="1" parent="H0nsU_ZC4IHtGFfJjAbq-175">
          <mxGeometry x="20" width="70" height="30" as="geometry">
            <mxRectangle width="70" height="30" as="alternateBounds" />
          </mxGeometry>
        </mxCell>
        <mxCell id="H0nsU_ZC4IHtGFfJjAbq-178" value="" style="shape=tableRow;horizontal=0;startSize=0;swimlaneHead=0;swimlaneBody=0;top=0;left=0;bottom=0;right=0;collapsible=0;dropTarget=0;fillColor=none;points=[[0,0.5],[1,0.5]];portConstraint=eastwest;strokeColor=inherit;fontSize=16;" vertex="1" parent="H0nsU_ZC4IHtGFfJjAbq-174">
          <mxGeometry y="60" width="90" height="30" as="geometry" />
        </mxCell>
        <mxCell id="H0nsU_ZC4IHtGFfJjAbq-179" value="2" style="shape=partialRectangle;html=1;whiteSpace=wrap;connectable=0;fillColor=none;top=0;left=0;bottom=0;right=0;overflow=hidden;strokeColor=inherit;fontSize=16;" vertex="1" parent="H0nsU_ZC4IHtGFfJjAbq-178">
          <mxGeometry width="20" height="30" as="geometry">
            <mxRectangle width="20" height="30" as="alternateBounds" />
          </mxGeometry>
        </mxCell>
        <mxCell id="H0nsU_ZC4IHtGFfJjAbq-180" value="Value 9" style="shape=partialRectangle;html=1;whiteSpace=wrap;connectable=0;fillColor=none;top=0;left=0;bottom=0;right=0;align=left;spacingLeft=6;overflow=hidden;strokeColor=inherit;fontSize=16;" vertex="1" parent="H0nsU_ZC4IHtGFfJjAbq-178">
          <mxGeometry x="20" width="70" height="30" as="geometry">
            <mxRectangle width="70" height="30" as="alternateBounds" />
          </mxGeometry>
        </mxCell>
        <mxCell id="H0nsU_ZC4IHtGFfJjAbq-181" value="" style="rounded=0;whiteSpace=wrap;html=1;" vertex="1" parent="1">
          <mxGeometry x="2231" y="1681" width="120" height="220" as="geometry" />
        </mxCell>
        <mxCell id="H0nsU_ZC4IHtGFfJjAbq-182" value="进 程 2" style="rounded=0;whiteSpace=wrap;html=1;" vertex="1" parent="1">
          <mxGeometry x="2231" y="1811" width="120" height="90" as="geometry" />
        </mxCell>
        <mxCell id="H0nsU_ZC4IHtGFfJjAbq-183" value="" style="html=1;shadow=0;dashed=0;align=center;verticalAlign=middle;shape=mxgraph.arrows2.uTurnArrow;dy=11;arrowHead=47.33;dx2=21;" vertex="1" parent="1">
          <mxGeometry x="2180" y="1760.5" width="51" height="90" as="geometry" />
        </mxCell>
        <mxCell id="H0nsU_ZC4IHtGFfJjAbq-184" value="" style="shape=flexArrow;endArrow=classic;html=1;rounded=0;exitX=1;exitY=0.5;exitDx=0;exitDy=0;entryX=0.25;entryY=1;entryDx=0;entryDy=0;" edge="1" parent="1">
          <mxGeometry width="50" height="50" relative="1" as="geometry">
            <mxPoint x="2351" y="1851.5" as="sourcePoint" />
            <mxPoint x="2398" y="1610.5" as="targetPoint" />
            <Array as="points">
              <mxPoint x="2401" y="1850.5" />
            </Array>
          </mxGeometry>
        </mxCell>
        <mxCell id="H0nsU_ZC4IHtGFfJjAbq-185" value="Map2" style="shape=table;startSize=30;container=1;collapsible=0;childLayout=tableLayout;fixedRows=1;rowLines=0;fontStyle=0;strokeColor=default;fontSize=16;" vertex="1" parent="1">
          <mxGeometry x="2246" y="1690.5" width="90" height="90" as="geometry" />
        </mxCell>
        <mxCell id="H0nsU_ZC4IHtGFfJjAbq-186" value="" style="shape=tableRow;horizontal=0;startSize=0;swimlaneHead=0;swimlaneBody=0;top=0;left=0;bottom=0;right=0;collapsible=0;dropTarget=0;fillColor=none;points=[[0,0.5],[1,0.5]];portConstraint=eastwest;strokeColor=inherit;fontSize=16;" vertex="1" parent="H0nsU_ZC4IHtGFfJjAbq-185">
          <mxGeometry y="30" width="90" height="30" as="geometry" />
        </mxCell>
        <mxCell id="H0nsU_ZC4IHtGFfJjAbq-187" value="1" style="shape=partialRectangle;html=1;whiteSpace=wrap;connectable=0;fillColor=none;top=0;left=0;bottom=0;right=0;overflow=hidden;pointerEvents=1;strokeColor=inherit;fontSize=16;" vertex="1" parent="H0nsU_ZC4IHtGFfJjAbq-186">
          <mxGeometry width="20" height="30" as="geometry">
            <mxRectangle width="20" height="30" as="alternateBounds" />
          </mxGeometry>
        </mxCell>
        <mxCell id="H0nsU_ZC4IHtGFfJjAbq-188" value="Value 6" style="shape=partialRectangle;html=1;whiteSpace=wrap;connectable=0;fillColor=none;top=0;left=0;bottom=0;right=0;align=left;spacingLeft=6;overflow=hidden;strokeColor=inherit;fontSize=16;" vertex="1" parent="H0nsU_ZC4IHtGFfJjAbq-186">
          <mxGeometry x="20" width="70" height="30" as="geometry">
            <mxRectangle width="70" height="30" as="alternateBounds" />
          </mxGeometry>
        </mxCell>
        <mxCell id="H0nsU_ZC4IHtGFfJjAbq-189" value="" style="shape=tableRow;horizontal=0;startSize=0;swimlaneHead=0;swimlaneBody=0;top=0;left=0;bottom=0;right=0;collapsible=0;dropTarget=0;fillColor=none;points=[[0,0.5],[1,0.5]];portConstraint=eastwest;strokeColor=inherit;fontSize=16;" vertex="1" parent="H0nsU_ZC4IHtGFfJjAbq-185">
          <mxGeometry y="60" width="90" height="30" as="geometry" />
        </mxCell>
        <mxCell id="H0nsU_ZC4IHtGFfJjAbq-190" value="2" style="shape=partialRectangle;html=1;whiteSpace=wrap;connectable=0;fillColor=none;top=0;left=0;bottom=0;right=0;overflow=hidden;strokeColor=inherit;fontSize=16;" vertex="1" parent="H0nsU_ZC4IHtGFfJjAbq-189">
          <mxGeometry width="20" height="30" as="geometry">
            <mxRectangle width="20" height="30" as="alternateBounds" />
          </mxGeometry>
        </mxCell>
        <mxCell id="H0nsU_ZC4IHtGFfJjAbq-191" value="Value 9" style="shape=partialRectangle;html=1;whiteSpace=wrap;connectable=0;fillColor=none;top=0;left=0;bottom=0;right=0;align=left;spacingLeft=6;overflow=hidden;strokeColor=inherit;fontSize=16;" vertex="1" parent="H0nsU_ZC4IHtGFfJjAbq-189">
          <mxGeometry x="20" width="70" height="30" as="geometry">
            <mxRectangle width="70" height="30" as="alternateBounds" />
          </mxGeometry>
        </mxCell>
        <mxCell id="H0nsU_ZC4IHtGFfJjAbq-192" value="堆 Heap" style="text;html=1;strokeColor=none;fillColor=none;align=center;verticalAlign=middle;whiteSpace=wrap;rounded=0;" vertex="1" parent="1">
          <mxGeometry x="2261" y="1786.5" width="60" height="30" as="geometry" />
        </mxCell>
        <mxCell id="H0nsU_ZC4IHtGFfJjAbq-196" value="Map1" style="shape=table;startSize=30;container=1;collapsible=0;childLayout=tableLayout;fixedRows=1;rowLines=0;fontStyle=0;strokeColor=default;fontSize=16;" vertex="1" parent="1">
          <mxGeometry x="2132" y="1450" width="90" height="90" as="geometry" />
        </mxCell>
        <mxCell id="H0nsU_ZC4IHtGFfJjAbq-197" value="" style="shape=tableRow;horizontal=0;startSize=0;swimlaneHead=0;swimlaneBody=0;top=0;left=0;bottom=0;right=0;collapsible=0;dropTarget=0;fillColor=none;points=[[0,0.5],[1,0.5]];portConstraint=eastwest;strokeColor=inherit;fontSize=16;" vertex="1" parent="H0nsU_ZC4IHtGFfJjAbq-196">
          <mxGeometry y="30" width="90" height="30" as="geometry" />
        </mxCell>
        <mxCell id="H0nsU_ZC4IHtGFfJjAbq-198" value="1" style="shape=partialRectangle;html=1;whiteSpace=wrap;connectable=0;fillColor=none;top=0;left=0;bottom=0;right=0;overflow=hidden;pointerEvents=1;strokeColor=inherit;fontSize=16;" vertex="1" parent="H0nsU_ZC4IHtGFfJjAbq-197">
          <mxGeometry width="20" height="30" as="geometry">
            <mxRectangle width="20" height="30" as="alternateBounds" />
          </mxGeometry>
        </mxCell>
        <mxCell id="H0nsU_ZC4IHtGFfJjAbq-199" value="Value 1" style="shape=partialRectangle;html=1;whiteSpace=wrap;connectable=0;fillColor=none;top=0;left=0;bottom=0;right=0;align=left;spacingLeft=6;overflow=hidden;strokeColor=inherit;fontSize=16;" vertex="1" parent="H0nsU_ZC4IHtGFfJjAbq-197">
          <mxGeometry x="20" width="70" height="30" as="geometry">
            <mxRectangle width="70" height="30" as="alternateBounds" />
          </mxGeometry>
        </mxCell>
        <mxCell id="H0nsU_ZC4IHtGFfJjAbq-200" value="" style="shape=tableRow;horizontal=0;startSize=0;swimlaneHead=0;swimlaneBody=0;top=0;left=0;bottom=0;right=0;collapsible=0;dropTarget=0;fillColor=none;points=[[0,0.5],[1,0.5]];portConstraint=eastwest;strokeColor=inherit;fontSize=16;" vertex="1" parent="H0nsU_ZC4IHtGFfJjAbq-196">
          <mxGeometry y="60" width="90" height="30" as="geometry" />
        </mxCell>
        <mxCell id="H0nsU_ZC4IHtGFfJjAbq-201" value="2" style="shape=partialRectangle;html=1;whiteSpace=wrap;connectable=0;fillColor=none;top=0;left=0;bottom=0;right=0;overflow=hidden;strokeColor=inherit;fontSize=16;" vertex="1" parent="H0nsU_ZC4IHtGFfJjAbq-200">
          <mxGeometry width="20" height="30" as="geometry">
            <mxRectangle width="20" height="30" as="alternateBounds" />
          </mxGeometry>
        </mxCell>
        <mxCell id="H0nsU_ZC4IHtGFfJjAbq-202" value="Value 2" style="shape=partialRectangle;html=1;whiteSpace=wrap;connectable=0;fillColor=none;top=0;left=0;bottom=0;right=0;align=left;spacingLeft=6;overflow=hidden;strokeColor=inherit;fontSize=16;" vertex="1" parent="H0nsU_ZC4IHtGFfJjAbq-200">
          <mxGeometry x="20" width="70" height="30" as="geometry">
            <mxRectangle width="70" height="30" as="alternateBounds" />
          </mxGeometry>
        </mxCell>
        <mxCell id="H0nsU_ZC4IHtGFfJjAbq-203" value="Map1" style="shape=table;startSize=30;container=1;collapsible=0;childLayout=tableLayout;fixedRows=1;rowLines=0;fontStyle=0;strokeColor=default;fontSize=16;" vertex="1" parent="1">
          <mxGeometry x="2384.99" y="1460" width="90" height="90" as="geometry" />
        </mxCell>
        <mxCell id="H0nsU_ZC4IHtGFfJjAbq-204" value="" style="shape=tableRow;horizontal=0;startSize=0;swimlaneHead=0;swimlaneBody=0;top=0;left=0;bottom=0;right=0;collapsible=0;dropTarget=0;fillColor=none;points=[[0,0.5],[1,0.5]];portConstraint=eastwest;strokeColor=inherit;fontSize=16;" vertex="1" parent="H0nsU_ZC4IHtGFfJjAbq-203">
          <mxGeometry y="30" width="90" height="30" as="geometry" />
        </mxCell>
        <mxCell id="H0nsU_ZC4IHtGFfJjAbq-205" value="1" style="shape=partialRectangle;html=1;whiteSpace=wrap;connectable=0;fillColor=none;top=0;left=0;bottom=0;right=0;overflow=hidden;pointerEvents=1;strokeColor=inherit;fontSize=16;" vertex="1" parent="H0nsU_ZC4IHtGFfJjAbq-204">
          <mxGeometry width="20" height="30" as="geometry">
            <mxRectangle width="20" height="30" as="alternateBounds" />
          </mxGeometry>
        </mxCell>
        <mxCell id="H0nsU_ZC4IHtGFfJjAbq-206" value="Value 1" style="shape=partialRectangle;html=1;whiteSpace=wrap;connectable=0;fillColor=none;top=0;left=0;bottom=0;right=0;align=left;spacingLeft=6;overflow=hidden;strokeColor=inherit;fontSize=16;" vertex="1" parent="H0nsU_ZC4IHtGFfJjAbq-204">
          <mxGeometry x="20" width="70" height="30" as="geometry">
            <mxRectangle width="70" height="30" as="alternateBounds" />
          </mxGeometry>
        </mxCell>
        <mxCell id="H0nsU_ZC4IHtGFfJjAbq-207" value="" style="shape=tableRow;horizontal=0;startSize=0;swimlaneHead=0;swimlaneBody=0;top=0;left=0;bottom=0;right=0;collapsible=0;dropTarget=0;fillColor=none;points=[[0,0.5],[1,0.5]];portConstraint=eastwest;strokeColor=inherit;fontSize=16;" vertex="1" parent="H0nsU_ZC4IHtGFfJjAbq-203">
          <mxGeometry y="60" width="90" height="30" as="geometry" />
        </mxCell>
        <mxCell id="H0nsU_ZC4IHtGFfJjAbq-208" value="2" style="shape=partialRectangle;html=1;whiteSpace=wrap;connectable=0;fillColor=none;top=0;left=0;bottom=0;right=0;overflow=hidden;strokeColor=inherit;fontSize=16;" vertex="1" parent="H0nsU_ZC4IHtGFfJjAbq-207">
          <mxGeometry width="20" height="30" as="geometry">
            <mxRectangle width="20" height="30" as="alternateBounds" />
          </mxGeometry>
        </mxCell>
        <mxCell id="H0nsU_ZC4IHtGFfJjAbq-209" value="Value 2" style="shape=partialRectangle;html=1;whiteSpace=wrap;connectable=0;fillColor=none;top=0;left=0;bottom=0;right=0;align=left;spacingLeft=6;overflow=hidden;strokeColor=inherit;fontSize=16;" vertex="1" parent="H0nsU_ZC4IHtGFfJjAbq-207">
          <mxGeometry x="20" width="70" height="30" as="geometry">
            <mxRectangle width="70" height="30" as="alternateBounds" />
          </mxGeometry>
        </mxCell>
        <mxCell id="H0nsU_ZC4IHtGFfJjAbq-210" value="Map2" style="shape=table;startSize=30;container=1;collapsible=0;childLayout=tableLayout;fixedRows=1;rowLines=0;fontStyle=0;strokeColor=default;fontSize=16;" vertex="1" parent="1">
          <mxGeometry x="2230" y="1450" width="90" height="90" as="geometry" />
        </mxCell>
        <mxCell id="H0nsU_ZC4IHtGFfJjAbq-211" value="" style="shape=tableRow;horizontal=0;startSize=0;swimlaneHead=0;swimlaneBody=0;top=0;left=0;bottom=0;right=0;collapsible=0;dropTarget=0;fillColor=none;points=[[0,0.5],[1,0.5]];portConstraint=eastwest;strokeColor=inherit;fontSize=16;" vertex="1" parent="H0nsU_ZC4IHtGFfJjAbq-210">
          <mxGeometry y="30" width="90" height="30" as="geometry" />
        </mxCell>
        <mxCell id="H0nsU_ZC4IHtGFfJjAbq-212" value="1" style="shape=partialRectangle;html=1;whiteSpace=wrap;connectable=0;fillColor=none;top=0;left=0;bottom=0;right=0;overflow=hidden;pointerEvents=1;strokeColor=inherit;fontSize=16;" vertex="1" parent="H0nsU_ZC4IHtGFfJjAbq-211">
          <mxGeometry width="20" height="30" as="geometry">
            <mxRectangle width="20" height="30" as="alternateBounds" />
          </mxGeometry>
        </mxCell>
        <mxCell id="H0nsU_ZC4IHtGFfJjAbq-213" value="Value 6" style="shape=partialRectangle;html=1;whiteSpace=wrap;connectable=0;fillColor=none;top=0;left=0;bottom=0;right=0;align=left;spacingLeft=6;overflow=hidden;strokeColor=inherit;fontSize=16;" vertex="1" parent="H0nsU_ZC4IHtGFfJjAbq-211">
          <mxGeometry x="20" width="70" height="30" as="geometry">
            <mxRectangle width="70" height="30" as="alternateBounds" />
          </mxGeometry>
        </mxCell>
        <mxCell id="H0nsU_ZC4IHtGFfJjAbq-214" value="" style="shape=tableRow;horizontal=0;startSize=0;swimlaneHead=0;swimlaneBody=0;top=0;left=0;bottom=0;right=0;collapsible=0;dropTarget=0;fillColor=none;points=[[0,0.5],[1,0.5]];portConstraint=eastwest;strokeColor=inherit;fontSize=16;" vertex="1" parent="H0nsU_ZC4IHtGFfJjAbq-210">
          <mxGeometry y="60" width="90" height="30" as="geometry" />
        </mxCell>
        <mxCell id="H0nsU_ZC4IHtGFfJjAbq-215" value="2" style="shape=partialRectangle;html=1;whiteSpace=wrap;connectable=0;fillColor=none;top=0;left=0;bottom=0;right=0;overflow=hidden;strokeColor=inherit;fontSize=16;" vertex="1" parent="H0nsU_ZC4IHtGFfJjAbq-214">
          <mxGeometry width="20" height="30" as="geometry">
            <mxRectangle width="20" height="30" as="alternateBounds" />
          </mxGeometry>
        </mxCell>
        <mxCell id="H0nsU_ZC4IHtGFfJjAbq-216" value="Value 9" style="shape=partialRectangle;html=1;whiteSpace=wrap;connectable=0;fillColor=none;top=0;left=0;bottom=0;right=0;align=left;spacingLeft=6;overflow=hidden;strokeColor=inherit;fontSize=16;" vertex="1" parent="H0nsU_ZC4IHtGFfJjAbq-214">
          <mxGeometry x="20" width="70" height="30" as="geometry">
            <mxRectangle width="70" height="30" as="alternateBounds" />
          </mxGeometry>
        </mxCell>
        <mxCell id="H0nsU_ZC4IHtGFfJjAbq-217" value="Map2" style="shape=table;startSize=30;container=1;collapsible=0;childLayout=tableLayout;fixedRows=1;rowLines=0;fontStyle=0;strokeColor=default;fontSize=16;" vertex="1" parent="1">
          <mxGeometry x="2490" y="1460" width="90" height="90" as="geometry" />
        </mxCell>
        <mxCell id="H0nsU_ZC4IHtGFfJjAbq-218" value="" style="shape=tableRow;horizontal=0;startSize=0;swimlaneHead=0;swimlaneBody=0;top=0;left=0;bottom=0;right=0;collapsible=0;dropTarget=0;fillColor=none;points=[[0,0.5],[1,0.5]];portConstraint=eastwest;strokeColor=inherit;fontSize=16;" vertex="1" parent="H0nsU_ZC4IHtGFfJjAbq-217">
          <mxGeometry y="30" width="90" height="30" as="geometry" />
        </mxCell>
        <mxCell id="H0nsU_ZC4IHtGFfJjAbq-219" value="1" style="shape=partialRectangle;html=1;whiteSpace=wrap;connectable=0;fillColor=none;top=0;left=0;bottom=0;right=0;overflow=hidden;pointerEvents=1;strokeColor=inherit;fontSize=16;" vertex="1" parent="H0nsU_ZC4IHtGFfJjAbq-218">
          <mxGeometry width="20" height="30" as="geometry">
            <mxRectangle width="20" height="30" as="alternateBounds" />
          </mxGeometry>
        </mxCell>
        <mxCell id="H0nsU_ZC4IHtGFfJjAbq-220" value="Value 6" style="shape=partialRectangle;html=1;whiteSpace=wrap;connectable=0;fillColor=none;top=0;left=0;bottom=0;right=0;align=left;spacingLeft=6;overflow=hidden;strokeColor=inherit;fontSize=16;" vertex="1" parent="H0nsU_ZC4IHtGFfJjAbq-218">
          <mxGeometry x="20" width="70" height="30" as="geometry">
            <mxRectangle width="70" height="30" as="alternateBounds" />
          </mxGeometry>
        </mxCell>
        <mxCell id="H0nsU_ZC4IHtGFfJjAbq-221" value="" style="shape=tableRow;horizontal=0;startSize=0;swimlaneHead=0;swimlaneBody=0;top=0;left=0;bottom=0;right=0;collapsible=0;dropTarget=0;fillColor=none;points=[[0,0.5],[1,0.5]];portConstraint=eastwest;strokeColor=inherit;fontSize=16;" vertex="1" parent="H0nsU_ZC4IHtGFfJjAbq-217">
          <mxGeometry y="60" width="90" height="30" as="geometry" />
        </mxCell>
        <mxCell id="H0nsU_ZC4IHtGFfJjAbq-222" value="2" style="shape=partialRectangle;html=1;whiteSpace=wrap;connectable=0;fillColor=none;top=0;left=0;bottom=0;right=0;overflow=hidden;strokeColor=inherit;fontSize=16;" vertex="1" parent="H0nsU_ZC4IHtGFfJjAbq-221">
          <mxGeometry width="20" height="30" as="geometry">
            <mxRectangle width="20" height="30" as="alternateBounds" />
          </mxGeometry>
        </mxCell>
        <mxCell id="H0nsU_ZC4IHtGFfJjAbq-223" value="Value 9" style="shape=partialRectangle;html=1;whiteSpace=wrap;connectable=0;fillColor=none;top=0;left=0;bottom=0;right=0;align=left;spacingLeft=6;overflow=hidden;strokeColor=inherit;fontSize=16;" vertex="1" parent="H0nsU_ZC4IHtGFfJjAbq-221">
          <mxGeometry x="20" width="70" height="30" as="geometry">
            <mxRectangle width="70" height="30" as="alternateBounds" />
          </mxGeometry>
        </mxCell>
        <mxCell id="H0nsU_ZC4IHtGFfJjAbq-224" value="" style="html=1;shadow=0;dashed=0;align=center;verticalAlign=middle;shape=mxgraph.arrows2.uTurnArrow;dy=11;arrowHead=47.33;dx2=21;rotation=-180;" vertex="1" parent="1">
          <mxGeometry x="2620" y="1813" width="51" height="90" as="geometry" />
        </mxCell>
        <mxCell id="H0nsU_ZC4IHtGFfJjAbq-225" value="Map1" style="shape=table;startSize=30;container=1;collapsible=0;childLayout=tableLayout;fixedRows=1;rowLines=0;fontStyle=0;strokeColor=default;fontSize=16;" vertex="1" parent="1">
          <mxGeometry x="2515" y="1695" width="90" height="90" as="geometry" />
        </mxCell>
        <mxCell id="H0nsU_ZC4IHtGFfJjAbq-226" value="" style="shape=tableRow;horizontal=0;startSize=0;swimlaneHead=0;swimlaneBody=0;top=0;left=0;bottom=0;right=0;collapsible=0;dropTarget=0;fillColor=none;points=[[0,0.5],[1,0.5]];portConstraint=eastwest;strokeColor=inherit;fontSize=16;" vertex="1" parent="H0nsU_ZC4IHtGFfJjAbq-225">
          <mxGeometry y="30" width="90" height="30" as="geometry" />
        </mxCell>
        <mxCell id="H0nsU_ZC4IHtGFfJjAbq-227" value="1" style="shape=partialRectangle;html=1;whiteSpace=wrap;connectable=0;fillColor=none;top=0;left=0;bottom=0;right=0;overflow=hidden;pointerEvents=1;strokeColor=inherit;fontSize=16;" vertex="1" parent="H0nsU_ZC4IHtGFfJjAbq-226">
          <mxGeometry width="20" height="30" as="geometry">
            <mxRectangle width="20" height="30" as="alternateBounds" />
          </mxGeometry>
        </mxCell>
        <mxCell id="H0nsU_ZC4IHtGFfJjAbq-228" value="Value 1" style="shape=partialRectangle;html=1;whiteSpace=wrap;connectable=0;fillColor=none;top=0;left=0;bottom=0;right=0;align=left;spacingLeft=6;overflow=hidden;strokeColor=inherit;fontSize=16;" vertex="1" parent="H0nsU_ZC4IHtGFfJjAbq-226">
          <mxGeometry x="20" width="70" height="30" as="geometry">
            <mxRectangle width="70" height="30" as="alternateBounds" />
          </mxGeometry>
        </mxCell>
        <mxCell id="H0nsU_ZC4IHtGFfJjAbq-229" value="" style="shape=tableRow;horizontal=0;startSize=0;swimlaneHead=0;swimlaneBody=0;top=0;left=0;bottom=0;right=0;collapsible=0;dropTarget=0;fillColor=none;points=[[0,0.5],[1,0.5]];portConstraint=eastwest;strokeColor=inherit;fontSize=16;" vertex="1" parent="H0nsU_ZC4IHtGFfJjAbq-225">
          <mxGeometry y="60" width="90" height="30" as="geometry" />
        </mxCell>
        <mxCell id="H0nsU_ZC4IHtGFfJjAbq-230" value="2" style="shape=partialRectangle;html=1;whiteSpace=wrap;connectable=0;fillColor=none;top=0;left=0;bottom=0;right=0;overflow=hidden;strokeColor=inherit;fontSize=16;" vertex="1" parent="H0nsU_ZC4IHtGFfJjAbq-229">
          <mxGeometry width="20" height="30" as="geometry">
            <mxRectangle width="20" height="30" as="alternateBounds" />
          </mxGeometry>
        </mxCell>
        <mxCell id="H0nsU_ZC4IHtGFfJjAbq-231" value="Value 2" style="shape=partialRectangle;html=1;whiteSpace=wrap;connectable=0;fillColor=none;top=0;left=0;bottom=0;right=0;align=left;spacingLeft=6;overflow=hidden;strokeColor=inherit;fontSize=16;" vertex="1" parent="H0nsU_ZC4IHtGFfJjAbq-229">
          <mxGeometry x="20" width="70" height="30" as="geometry">
            <mxRectangle width="70" height="30" as="alternateBounds" />
          </mxGeometry>
        </mxCell>
        <mxCell id="H0nsU_ZC4IHtGFfJjAbq-239" value="Map1" style="shape=table;startSize=30;container=1;collapsible=0;childLayout=tableLayout;fixedRows=1;rowLines=0;fontStyle=0;strokeColor=default;fontSize=16;" vertex="1" parent="1">
          <mxGeometry x="1435" y="1690" width="90" height="90" as="geometry" />
        </mxCell>
        <mxCell id="H0nsU_ZC4IHtGFfJjAbq-240" value="" style="shape=tableRow;horizontal=0;startSize=0;swimlaneHead=0;swimlaneBody=0;top=0;left=0;bottom=0;right=0;collapsible=0;dropTarget=0;fillColor=none;points=[[0,0.5],[1,0.5]];portConstraint=eastwest;strokeColor=inherit;fontSize=16;" vertex="1" parent="H0nsU_ZC4IHtGFfJjAbq-239">
          <mxGeometry y="30" width="90" height="30" as="geometry" />
        </mxCell>
        <mxCell id="H0nsU_ZC4IHtGFfJjAbq-241" value="1" style="shape=partialRectangle;html=1;whiteSpace=wrap;connectable=0;fillColor=none;top=0;left=0;bottom=0;right=0;overflow=hidden;pointerEvents=1;strokeColor=inherit;fontSize=16;" vertex="1" parent="H0nsU_ZC4IHtGFfJjAbq-240">
          <mxGeometry width="20" height="30" as="geometry">
            <mxRectangle width="20" height="30" as="alternateBounds" />
          </mxGeometry>
        </mxCell>
        <mxCell id="H0nsU_ZC4IHtGFfJjAbq-242" value="Value 1" style="shape=partialRectangle;html=1;whiteSpace=wrap;connectable=0;fillColor=none;top=0;left=0;bottom=0;right=0;align=left;spacingLeft=6;overflow=hidden;strokeColor=inherit;fontSize=16;" vertex="1" parent="H0nsU_ZC4IHtGFfJjAbq-240">
          <mxGeometry x="20" width="70" height="30" as="geometry">
            <mxRectangle width="70" height="30" as="alternateBounds" />
          </mxGeometry>
        </mxCell>
        <mxCell id="H0nsU_ZC4IHtGFfJjAbq-243" value="" style="shape=tableRow;horizontal=0;startSize=0;swimlaneHead=0;swimlaneBody=0;top=0;left=0;bottom=0;right=0;collapsible=0;dropTarget=0;fillColor=none;points=[[0,0.5],[1,0.5]];portConstraint=eastwest;strokeColor=inherit;fontSize=16;" vertex="1" parent="H0nsU_ZC4IHtGFfJjAbq-239">
          <mxGeometry y="60" width="90" height="30" as="geometry" />
        </mxCell>
        <mxCell id="H0nsU_ZC4IHtGFfJjAbq-244" value="&lt;font color=&quot;#ff0000&quot;&gt;2&lt;/font&gt;" style="shape=partialRectangle;html=1;whiteSpace=wrap;connectable=0;fillColor=none;top=0;left=0;bottom=0;right=0;overflow=hidden;strokeColor=inherit;fontSize=16;" vertex="1" parent="H0nsU_ZC4IHtGFfJjAbq-243">
          <mxGeometry width="20" height="30" as="geometry">
            <mxRectangle width="20" height="30" as="alternateBounds" />
          </mxGeometry>
        </mxCell>
        <mxCell id="H0nsU_ZC4IHtGFfJjAbq-245" value="&lt;font color=&quot;#ff0000&quot;&gt;Value 2&lt;/font&gt;" style="shape=partialRectangle;html=1;whiteSpace=wrap;connectable=0;fillColor=none;top=0;left=0;bottom=0;right=0;align=left;spacingLeft=6;overflow=hidden;strokeColor=inherit;fontSize=16;" vertex="1" parent="H0nsU_ZC4IHtGFfJjAbq-243">
          <mxGeometry x="20" width="70" height="30" as="geometry">
            <mxRectangle width="70" height="30" as="alternateBounds" />
          </mxGeometry>
        </mxCell>
      </root>
    </mxGraphModel>
  </diagram>
</mxfile>
